<?xml version="1.0" encoding="UTF-8" standalone="no"?>
<!-- Generator: Adobe Illustrator 22.1.0, SVG Export Plug-In . SVG Version: 6.00 Build 0)  -->

<svg
   xmlns:dc="http://purl.org/dc/elements/1.1/"
   xmlns:cc="http://creativecommons.org/ns#"
   xmlns:rdf="http://www.w3.org/1999/02/22-rdf-syntax-ns#"
   xmlns:svg="http://www.w3.org/2000/svg"
   xmlns="http://www.w3.org/2000/svg"
   xmlns:sodipodi="http://sodipodi.sourceforge.net/DTD/sodipodi-0.dtd"
   xmlns:inkscape="http://www.inkscape.org/namespaces/inkscape"
   version="1.1"
   id="Calque_1"
   x="0px"
   y="0px"
   viewBox="0 0 372.46594 258.75"
   xml:space="preserve"
   sodipodi:docname="2018-summer-logo.svg"
   width="372.46594"
   height="258.75"
   inkscape:version="0.92.3 (2405546, 2018-03-11)"><metadata
   id="metadata5340"><rdf:RDF><cc:Work
       rdf:about=""><dc:format>image/svg+xml</dc:format><dc:type
         rdf:resource="http://purl.org/dc/dcmitype/StillImage" /><dc:title></dc:title></cc:Work></rdf:RDF></metadata><defs
   id="defs5338" /><sodipodi:namedview
   pagecolor="#ffffff"
   bordercolor="#666666"
   borderopacity="1"
   objecttolerance="10"
   gridtolerance="10"
   guidetolerance="10"
   inkscape:pageopacity="0"
   inkscape:pageshadow="2"
   inkscape:window-width="1920"
   inkscape:window-height="1015"
   id="namedview5336"
   showgrid="false"
   fit-margin-top="0"
   fit-margin-left="0"
   fit-margin-right="0"
   fit-margin-bottom="0"
   inkscape:zoom="1.8384956"
   inkscape:cx="186.96454"
   inkscape:cy="144.5"
   inkscape:window-x="0"
   inkscape:window-y="0"
   inkscape:window-maximized="1"
   inkscape:current-layer="Calque_1" />
<style
   type="text/css"
   id="style5175">
	.st0{fill:#C670D0;}
	.st1{fill:#FDDA39;}
	.st2{display:none;}
	.st3{display:inline;fill:#C670D0;}
	.st4{display:inline;fill:#FDDA39;}
	.st5{display:inline;}
	.st6{fill:none;stroke:#C670D0;stroke-width:11.3386;stroke-miterlimit:10;}
	.st7{fill:none;stroke:#C670D0;stroke-width:11.3386;stroke-miterlimit:10;stroke-dasharray:8.4175,8.4175;}
	.st8{fill:none;stroke:#FDDA39;stroke-width:11.3386;stroke-miterlimit:10;}
	.st9{fill:none;stroke:#FDDA39;stroke-width:11.3386;stroke-miterlimit:10;stroke-dasharray:8.4175,8.4175;}
	.st10{fill:#562E6D;}
	.st11{fill:#A75CBC;}
	.st12{fill:#7A4683;}
	.st13{fill:#FFF073;}
	.st14{fill:#FFFB66;}
	.st15{fill:#FFFFFF;}
	.st16{fill:none;}
</style>
<g
   id="g5209"
   transform="translate(-8.0354559,-111.75)">
	<g
   id="g5189">
		<g
   id="g5179">
			<path
   class="st0"
   d="m 371,311.2 h -11.3 c 0,-1.4 0,-2.7 -0.1,-4.1 l 11.3,-0.3 c 0.1,1.4 0.1,2.9 0.1,4.4 z"
   id="path5177"
   inkscape:connector-curvature="0"
   style="fill:#c670d0" />
		</g>
		<g
   id="g5183">
			<path
   class="st0"
   d="m 359.2,299 c -0.2,-2.7 -0.5,-5.4 -0.8,-8 l 11.3,-1.4 c 0.3,2.8 0.6,5.7 0.8,8.6 z m -2,-16.1 c -0.5,-2.6 -1,-5.3 -1.6,-7.9 l 11.1,-2.5 c 0.6,2.8 1.2,5.7 1.7,8.5 z m -3.5,-15.7 c -0.7,-2.6 -1.5,-5.2 -2.3,-7.7 l 10.8,-3.6 c 0.9,2.7 1.7,5.5 2.5,8.3 z m -5.1,-15.4 c -1,-2.5 -2,-5 -3.1,-7.5 l 10.4,-4.6 c 1.2,2.6 2.3,5.3 3.3,8 z m -6.5,-14.7 c -1.2,-2.4 -2.5,-4.8 -3.8,-7.1 l 9.9,-5.6 c 1.4,2.5 2.8,5 4.1,7.6 z m -8,-14.1 c -1.4,-2.3 -3,-4.5 -4.5,-6.7 l 9.3,-6.5 c 1.7,2.3 3.3,4.8 4.8,7.2 z m -9.3,-13.2 c -1.7,-2.1 -3.4,-4.2 -5.1,-6.2 l 8.6,-7.4 c 1.9,2.2 3.7,4.4 5.5,6.7 z m -10.6,-12.2 c -1.9,-1.9 -3.8,-3.9 -5.7,-5.7 l 7.8,-8.2 c 2.1,2 4.1,4 6.1,6.1 z m -11.7,-11.1 c -2,-1.8 -4.1,-3.5 -6.2,-5.1 l 7,-8.9 c 2.3,1.8 4.5,3.6 6.7,5.5 z m -12.7,-10 c -2.2,-1.5 -4.4,-3.1 -6.7,-4.5 l 6.1,-9.6 c 2.4,1.5 4.8,3.1 7.2,4.8 z m -13.6,-8.6 c -2.3,-1.3 -4.7,-2.6 -7.1,-3.8 l 5.1,-10.1 c 2.6,1.3 5.1,2.7 7.6,4.1 z m -14.4,-7.3 c -2.4,-1.1 -5,-2.1 -7.4,-3.1 l 4.1,-10.6 c 2.7,1 5.3,2.1 8,3.3 z m -15,-5.8 c -2.5,-0.8 -5.1,-1.6 -7.7,-2.3 l 3,-10.9 c 2.8,0.8 5.5,1.6 8.3,2.5 z m -15.6,-4.3 c -2.6,-0.6 -5.3,-1.1 -7.9,-1.6 l 1.9,-11.2 c 2.8,0.5 5.7,1.1 8.5,1.7 z m -15.9,-2.7 c -2.7,-0.3 -5.4,-0.6 -8,-0.8 l 0.8,-11.3 c 2.9,0.2 5.7,0.5 8.6,0.8 z"
   id="path5181"
   inkscape:connector-curvature="0"
   style="fill:#c670d0" />
		</g>
		<g
   id="g5187">
			<path
   class="st0"
   d="m 199.1,146.6 c -1.4,0 -2.7,0 -4.1,0 v -11.3 c 1.5,0 2.9,0 4.4,0.1 z"
   id="path5185"
   inkscape:connector-curvature="0"
   style="fill:#c670d0" />
		</g>
	</g>
	<g
   id="g5203">
		<g
   id="g5193">
			<path
   class="st1"
   d="m 190.9,146.6 -0.3,-11.3 c 1.5,0 2.9,-0.1 4.4,-0.1 v 11.3 c -1.4,0 -2.7,0 -4.1,0.1 z"
   id="path5191"
   inkscape:connector-curvature="0"
   style="fill:#fdda39" />
		</g>
		<g
   id="g5197">
			<path
   class="st1"
   d="m 30.8,298.9 -11.3,-0.8 c 0.2,-2.9 0.5,-5.7 0.8,-8.6 l 11.3,1.4 c -0.3,2.6 -0.6,5.3 -0.8,8 z m 2,-16 -11.2,-1.9 c 0.5,-2.8 1.1,-5.7 1.7,-8.5 l 11.1,2.5 c -0.6,2.6 -1.2,5.2 -1.6,7.9 z m 3.5,-15.8 -10.9,-3 c 0.8,-2.8 1.6,-5.5 2.5,-8.3 l 10.8,3.6 c -0.9,2.6 -1.7,5.2 -2.4,7.7 z m 5.1,-15.3 -10.6,-4.1 c 1,-2.7 2.1,-5.3 3.3,-8 l 10.4,4.6 c -1.1,2.5 -2.2,5 -3.1,7.5 z M 47.9,237.1 37.8,232 c 1.3,-2.6 2.7,-5.1 4.1,-7.6 l 9.9,5.6 c -1.4,2.3 -2.7,4.7 -3.9,7.1 z m 8,-14 -9.6,-6.1 c 1.5,-2.4 3.1,-4.8 4.8,-7.2 l 9.3,6.5 c -1.6,2.3 -3.1,4.5 -4.5,6.8 z m 9.3,-13.2 -8.9,-7 c 1.8,-2.3 3.6,-4.5 5.5,-6.7 l 8.6,7.4 c -1.9,2.1 -3.6,4.2 -5.2,6.3 z m 10.5,-12.2 -8.2,-7.8 c 2,-2.1 4,-4.1 6.1,-6.1 l 7.8,8.2 c -1.9,1.8 -3.8,3.7 -5.7,5.7 z M 87.4,186.5 80,177.9 c 2.2,-1.9 4.4,-3.7 6.7,-5.5 l 7,8.9 c -2.2,1.7 -4.3,3.5 -6.3,5.2 z m 12.7,-9.9 -6.5,-9.3 c 2.3,-1.7 4.8,-3.3 7.2,-4.8 l 6.1,9.6 c -2.3,1.4 -4.6,2.9 -6.8,4.5 z m 13.7,-8.7 -5.6,-9.9 c 2.5,-1.4 5.1,-2.8 7.6,-4.1 l 5.1,10.1 c -2.4,1.3 -4.8,2.6 -7.1,3.9 z m 14.4,-7.3 -4.6,-10.4 c 2.6,-1.2 5.3,-2.3 8,-3.3 l 4.1,10.6 c -2.5,1 -5,2 -7.5,3.1 z m 15.1,-5.8 -3.6,-10.8 c 2.7,-0.9 5.5,-1.7 8.3,-2.5 l 3,10.9 c -2.5,0.8 -5.2,1.6 -7.7,2.4 z m 15.6,-4.3 -2.5,-11.1 c 2.8,-0.6 5.6,-1.2 8.5,-1.7 l 1.9,11.2 c -2.7,0.5 -5.3,1 -7.9,1.6 z m 15.9,-2.8 -1.4,-11.3 c 2.8,-0.3 5.7,-0.6 8.6,-0.8 l 0.8,11.3 c -2.7,0.3 -5.4,0.5 -8,0.8 z"
   id="path5195"
   inkscape:connector-curvature="0"
   style="fill:#fdda39" />
		</g>
		<g
   id="g5201">
			<path
   class="st1"
   d="M 30.4,311.2 H 19 c 0,-1.5 0,-2.9 0.1,-4.4 l 11.3,0.3 c 0,1.3 0,2.7 0,4.1 z"
   id="path5199"
   inkscape:connector-curvature="0"
   style="fill:#fdda39" />
		</g>
	</g>
	<path
   class="st0"
   d="M 355.4,310.8 H 195 V 150.7 c 88.5,0 160.3,71.7 160.4,160.1 z"
   id="path5205"
   inkscape:connector-curvature="0"
   style="fill:#c670d0" />
	<path
   class="st1"
   d="M 195,150.7 V 310.8 H 34.6 C 34.7,222.4 106.5,150.7 195,150.7 Z"
   id="path5207"
   inkscape:connector-curvature="0"
   style="fill:#fdda39" />
</g>
<g
   class="st2"
   id="g5235"
   style="display:none"
   transform="translate(-8.0354559,-111.75)">
	<path
   class="st3"
   d="m 356.6,226 c 0,89.2 -72.3,161.6 -161.6,161.6 V 64.4 c 89.2,0 161.6,72.4 161.6,161.6 z"
   id="path5211"
   inkscape:connector-curvature="0"
   style="display:inline;fill:#c670d0" />
	<path
   class="st4"
   d="M 195,64.4 V 387.5 C 105.8,387.5 33.4,315.2 33.4,225.9 33.4,136.6 105.8,64.4 195,64.4 Z"
   id="path5213"
   inkscape:connector-curvature="0"
   style="display:inline;fill:#fdda39" />
	<g
   class="st5"
   id="g5223"
   style="display:inline">
		<g
   id="g5221">
			<path
   class="st6"
   d="m 195,397.5 c 1.4,0 2.8,0 4.3,-0.1"
   id="path5215"
   inkscape:connector-curvature="0"
   style="fill:none;stroke:#c670d0;stroke-width:11.33860016;stroke-miterlimit:10" />
			<path
   class="st7"
   d="m 207.7,397 c 88.8,-6.5 158.8,-80.6 158.8,-171 0,-91.9 -72.3,-166.9 -163,-171.3"
   id="path5217"
   inkscape:connector-curvature="0"
   style="fill:none;stroke:#c670d0;stroke-width:11.33860016;stroke-miterlimit:10;stroke-dasharray:8.4175, 8.4175" />
			<path
   class="st6"
   d="m 199.3,54.6 c -1.4,0 -2.8,-0.1 -4.3,-0.1"
   id="path5219"
   inkscape:connector-curvature="0"
   style="fill:none;stroke:#c670d0;stroke-width:11.33860016;stroke-miterlimit:10" />
		</g>
	</g>
	<g
   class="st5"
   id="g5233"
   style="display:inline">
		<g
   id="g5231">
			<path
   class="st8"
   d="m 195,54.5 c -1.4,0 -2.8,0 -4.3,0.1"
   id="path5225"
   inkscape:connector-curvature="0"
   style="fill:none;stroke:#fdda39;stroke-width:11.33860016;stroke-miterlimit:10" />
			<path
   class="st9"
   d="M 182.3,55 C 93.5,61.4 23.5,135.5 23.5,226 c 0,91.9 72.3,166.9 163,171.3"
   id="path5227"
   inkscape:connector-curvature="0"
   style="fill:none;stroke:#fdda39;stroke-width:11.33860016;stroke-miterlimit:10;stroke-dasharray:8.4175, 8.4175" />
			<path
   class="st8"
   d="m 190.7,397.4 c 1.4,0 2.8,0.1 4.3,0.1"
   id="path5229"
   inkscape:connector-curvature="0"
   style="fill:none;stroke:#fdda39;stroke-width:11.33860016;stroke-miterlimit:10" />
		</g>
	</g>
</g>
<g
   id="g5277"
   transform="translate(-8.0354559,-111.75)">
	<g
   id="g5239">
		<path
   class="st10"
   d="m 194,323.2 c -0.7,0 -1.5,-0.1 -2.2,-0.4 L 99.5,284.5 C 97.4,283.6 96,281.6 96,279.3 v -32.8 c 0,-2.3 1.4,-4.4 3.5,-5.2 l 0.6,-0.3 -0.6,-0.3 C 97.4,239.8 96,237.8 96,235.5 v -79.8 c 0,-2.3 1.4,-4.4 3.5,-5.2 l 92.3,-38.3 c 1.4,-0.6 3,-0.6 4.3,0 l 26,10.8 c 1.4,0.6 2.5,1.7 3,3 1.4,-0.6 2.9,-0.5 4.3,0 l 27.1,11.3 c 1.4,0.6 2.5,1.7 3,3 1.4,-0.6 2.9,-0.5 4.3,0 l 24.5,10.2 c 2.1,0.9 3.5,2.9 3.5,5.2 v 123.6 c 0,2.3 -1.4,4.4 -3.5,5.2 l -21.5,8.9 c -1.4,0.6 -3,0.6 -4.3,0 l -23.1,-9.6 c -2.1,-0.9 -3.5,-2.9 -3.5,-5.2 v -14.9 c -5.1,2.1 -10.1,4.2 -14.7,6.1 v 38.8 c 0,2.3 -1.4,4.4 -3.5,5.2 l -21.7,9 c -0.6,0.2 -1.3,0.4 -2,0.4 z m -86.7,-47.8 86.6,36 16,-6.6 V 266 c 0,-2.3 1.4,-4.4 3.5,-5.2 7.8,-3.2 17,-7 26,-10.8 1.8,-0.7 3.7,-0.5 5.3,0.5 1.6,1.1 2.5,2.8 2.5,4.7 v 19.7 l 17.4,7.2 15.8,-6.6 v -116 l -18.8,-7.8 c -1.3,0.5 -3,1.2 -5.2,2.1 -1.8,0.7 -3.7,0.5 -5.3,-0.5 -1.6,-1.1 -2.5,-2.8 -2.5,-4.7 v -2.3 l -21.4,-8.9 c -1.6,0.7 -3.3,1.4 -5.2,2.2 -1.7,0.7 -3.7,0.5 -5.3,-0.5 -1.6,-1.1 -2.5,-2.8 -2.5,-4.7 v -2.3 l -20.4,-8.5 -86.6,36 v 72.3 l 9.7,4 c 2.1,0.9 3.5,2.9 3.5,5.2 0,2.3 -1.4,4.4 -3.5,5.2 l -9.7,4 v 25.1 z"
   id="path5237"
   inkscape:connector-curvature="0"
   style="fill:#562e6d" />
	</g>
	<g
   id="g5243">
		<path
   class="st0"
   d="m 286.3,155.6 -92.3,38.3 -92.3,-38.3 92.3,-38.3 26,10.8 c -15.2,6.3 -50.3,20.9 -70.3,29.2 l 7.3,3.1 c 20,-8.3 55,-22.9 70.3,-29.2 v 0 l 27.1,11.2 c 0,0 -43,17.8 -70.3,29.2 0.1,0 7.3,3 7.3,3.1 27.3,-11.3 70.3,-29.2 70.3,-29.2 z"
   id="path5241"
   inkscape:connector-curvature="0"
   style="fill:#c670d0" />
	</g>
	<path
   class="st1"
   d="m 220,134.2 c -15.2,6.3 -43,17.8 -62.9,26.1 l -7.3,-3.1 c 20,-8.3 55,-22.9 70.3,-29.2 v 6.2 z"
   id="path5245"
   inkscape:connector-curvature="0"
   style="fill:#fdda39" />
	<path
   class="st1"
   d="m 254.4,148.5 c 0,0 -35.6,14.8 -62.9,26.1 0,0 -7.3,-3 -7.3,-3.1 27.3,-11.3 70.3,-29.2 70.3,-29.2 v 6.2 z"
   id="path5247"
   inkscape:connector-curvature="0"
   style="fill:#fdda39" />
	<g
   id="g5251">
		<path
   class="st11"
   d="m 171.7,264.5 v 11 c 0,0 -70,-29.1 -70,-29.1 l 13.2,-5.5 c 20.3,8.4 56.8,23.6 56.8,23.6 z"
   id="path5249"
   inkscape:connector-curvature="0"
   style="fill:#a75cbc" />
	</g>
	<path
   class="st1"
   d="m 123.6,199.1 v 11 c 35.2,14.6 70.4,29.2 70.4,29.2 v 78.2 l -92.3,-38.3 v -32.8 c 0,0 70,29.1 70,29.1 v -11 c 0,0 -36.5,-15.2 -56.8,-23.6 -7.8,-3.2 -13.2,-5.5 -13.2,-5.5 v -79.8 l 92.3,38.3 v 34.4 c 0,0 -35.2,-14.6 -70.4,-29.2 z"
   id="path5253"
   inkscape:connector-curvature="0"
   style="fill:#fdda39" />
	<g
   id="g5257">
		<path
   class="st12"
   d="m 136.8,204.5 -13.2,5.5 v -11 c 4.4,1.9 8.8,3.7 13.2,5.5 z"
   id="path5255"
   inkscape:connector-curvature="0"
   style="fill:#7a4683" />
	</g>
	<g
   id="g5261">
		<path
   class="st11"
   d="m 194,228.3 v 11 c 0,0 -35.2,-14.6 -70.4,-29.2 v 0 l 13.2,-5.5 c 30.3,12.5 57.2,23.7 57.2,23.7 z"
   id="path5259"
   inkscape:connector-curvature="0"
   style="fill:#a75cbc" />
	</g>
	<path
   class="st13"
   d="m 194,193.9 v 123.6 l 21.7,-9 v -42.6 c 7.8,-3.2 17,-7 26,-10.8 8.1,-3.4 16.1,-6.7 23.1,-9.6 v 42.6 l 21.5,-8.9 V 155.6 Z m 70.8,16 c -14.8,6.1 -34.3,14.3 -49.1,20.4 v -10.9 c 14.8,-6.1 34.4,-14.3 49.1,-20.4 z"
   id="path5263"
   inkscape:connector-curvature="0"
   style="fill:#fff073" />
	<g
   id="g5267">
		<path
   class="st12"
   d="m 264.8,199 v 10.9 l -13.3,-5.3 c 4.6,-2 9.1,-3.9 13.3,-5.6 z"
   id="path5265"
   inkscape:connector-curvature="0"
   style="fill:#7a4683" />
	</g>
	<g
   id="g5271">
		<path
   class="st11"
   d="m 264.8,209.9 c -14.8,6.1 -34.3,14.3 -49.1,20.4 v -10.9 c 10.7,-4.4 23.8,-9.9 35.8,-14.9 z"
   id="path5269"
   inkscape:connector-curvature="0"
   style="fill:#a75cbc" />
	</g>
	<g
   id="g5275">
		<path
   class="st11"
   d="m 264.8,245.5 v 42.6 l -23.1,-9.6 v -23.4 c 8,-3.4 16.1,-6.7 23.1,-9.6 z"
   id="path5273"
   inkscape:connector-curvature="0"
   style="fill:#a75cbc" />
	</g>
</g>
<g
   id="g5309"
   transform="translate(-8.0354559,-111.75)">
	<path
   class="st10"
   d="m 379,324 -7.3,-10.5 c 4.7,-5 7.3,-11.6 7.3,-19 0,-17.3 -12.8,-29.4 -31.1,-29.4 h -23.2 c -1.9,0 -3.6,0.6 -5,1.6 -1.4,-1 -3.1,-1.6 -5,-1.6 h -39.9 c -2.4,0 -4.5,1 -6.1,2.6 -1.5,-1.6 -3.7,-2.6 -6.1,-2.6 h -9.3 c -3,0 -5.8,1.6 -7.3,4.2 l -12.8,21.5 -12.8,-21.5 c -1.5,-2.6 -4.3,-4.2 -7.3,-4.2 h -9.8 c -2.6,0 -4.9,1.2 -6.5,3 -1.6,-1.8 -3.9,-3 -6.5,-3 H 181 c -3,0 -5.8,1.6 -7.3,4.2 l -12.8,21.5 -12.8,-21.5 c -1.5,-2.6 -4.3,-4.2 -7.3,-4.2 H 131 c -2.2,0 -4.2,0.8 -5.7,2.2 -1.5,-1.4 -3.5,-2.2 -5.7,-2.2 h -15 c -4.7,0 -8.5,3.8 -8.5,8.5 v 31.6 c 0,2.4 -0.8,2.4 -2.1,2.4 -1.3,0 -1.9,0 -1.9,-2.4 v -31.6 c 0,-4.7 -3.8,-8.5 -8.5,-8.5 h -15 c -3.1,0 -5.9,1.7 -7.4,4.2 -6.2,-3.3 -13,-4.9 -20.6,-4.9 -17.8,0 -30.2,10.6 -30.2,25.8 0,7.1 2.4,12.1 6.1,15.8 -0.1,0.2 -0.2,0.3 -0.3,0.5 l -7,11.8 c -2.2,3.8 -1.2,8.7 2.3,11.2 7.7,5.6 16.9,8.4 27.2,8.4 12.7,0 22.3,-5.1 26.9,-13.6 6.1,8.7 15.9,13.7 28.5,13.7 11.9,0 21.4,-4.4 27.3,-12 l -0.1,2.6 c -0.1,2.3 0.8,4.5 2.4,6.1 1.6,1.6 3.8,2.6 6.1,2.6 h 14.7 c 3.6,0 6.6,-2.2 7.9,-5.3 1.2,0.6 2.5,0.9 3.8,0.9 h 9.1 c 1.4,0 2.8,-0.4 4,-1 1.2,3.2 4.3,5.4 7.9,5.4 h 14.7 c 1.9,0 3.6,-0.6 5.1,-1.7 1.5,1.1 3.2,1.7 5.1,1.7 h 14.7 c 3.6,0 6.6,-2.2 7.9,-5.3 1.2,0.6 2.5,0.9 3.8,0.9 h 9.1 c 1.4,0 2.8,-0.4 4,-1 1.2,3.2 4.3,5.4 7.9,5.4 h 14.7 c 2,0 3.9,-0.7 5.4,-1.9 1.5,1.2 3.3,1.9 5.4,1.9 h 40 c 1.8,0 3.5,-0.6 4.9,-1.6 1.4,1 3.1,1.6 4.9,1.6 h 14.7 c 3.4,0 6.3,-2 7.7,-4.9 l 0.6,0.9 c 1.6,2.4 4.3,3.9 7.2,3.9 h 17 c 3.2,0 6.1,-1.8 7.5,-4.6 1.5,-2.6 1.3,-6 -0.5,-8.6 z M 142.5,295.2 c -1.3,0.3 -2.4,0.9 -3.4,1.7 l 0.2,-9.4 4.4,7.5 c -0.4,0.1 -0.8,0.1 -1.2,0.2 z m 36.7,-0.4 c -0.2,-0.1 -0.4,-0.1 -0.6,-0.1 l 3.8,-6.4 0.2,8.3 c -1,-0.8 -2.1,-1.4 -3.4,-1.8 z m 35.5,0.4 c -1.3,0.3 -2.4,0.9 -3.4,1.7 l 0.2,-9.4 4.4,7.5 c -0.3,0.1 -0.7,0.1 -1.2,0.2 z m 36.7,-0.4 c -0.2,-0.1 -0.4,-0.1 -0.6,-0.1 l 3.8,-6.4 0.2,8.3 c -0.9,-0.8 -2.1,-1.4 -3.4,-1.8 z m 32,6.8 v -1.4 c 0.2,0.3 0.5,0.5 0.7,0.7 -0.2,0.3 -0.4,0.5 -0.7,0.7 z m 49.9,7.3 v -0.8 c 0.1,0.1 0.3,0.3 0.4,0.4 -0.2,0.1 -0.3,0.2 -0.4,0.4 z"
   id="path5279"
   inkscape:connector-curvature="0"
   style="fill:#562e6d" />
	<g
   id="g5307">
		<path
   class="st14"
   d="m 16.7,318.5 7,-11.8 c 5.2,4 9.5,5.8 16.2,5.8 3.6,0 5.6,-1.4 5.6,-3.8 0,-2.8 -2,-3.9 -9.8,-6.2 -11.9,-3.5 -16.6,-8.1 -16.6,-16.4 0,-10.5 8.6,-17.3 21.7,-17.3 8.1,0 14.4,2.2 20,6 L 54.6,286 c -4.2,-2.8 -9.3,-4.5 -14,-4.5 -4.1,0 -6.2,1.1 -6.2,3.4 0,2.1 1.5,3.1 9.6,5.5 11.6,3.5 16.6,8.6 16.6,17 0,11.4 -7.8,18 -21.5,18 -9,-0.1 -16.4,-2.6 -22.4,-6.9 z"
   id="path5281"
   inkscape:connector-curvature="0"
   style="fill:#fffb66" />
		<path
   class="st14"
   d="m 68.8,299.9 v -30.5 h 15 V 301 c 0,5.1 2.6,10.9 10.4,10.9 7.8,0 10.6,-5.8 10.6,-10.9 v -31.6 h 15 v 30.5 c 0,16.8 -10.2,25.4 -25.6,25.4 -15.2,0 -25.4,-8.6 -25.4,-25.4 z"
   id="path5283"
   inkscape:connector-curvature="0"
   style="fill:#fffb66" />
		<path
   class="st14"
   d="m 177.2,324.6 -0.2,-25.7 -11.8,21.3 h -9.1 l -11.6,-21 -0.1,25.3 h -14.7 l 1.3,-55.2 h 9.8 l 20.1,33.8 20.1,-33.8 h 9.3 l 1.4,55.2 h -14.5 z"
   id="path5285"
   inkscape:connector-curvature="0"
   style="fill:#fffb66" />
		<path
   class="st0"
   d="m 249.5,324.6 -0.2,-25.7 -11.8,21.3 h -9.1 l -11.6,-21 -0.1,25.3 H 202 l 1.3,-55.2 h 9.8 l 20.1,33.8 20.1,-33.8 h 9.3 l 1.4,55.2 h -14.5 z"
   id="path5287"
   inkscape:connector-curvature="0"
   style="fill:#c670d0" />
		<path
   class="st0"
   d="m 314.9,311.7 v 12.9 h -40 v -55.2 h 39.9 v 13 h -25 v 7.8 h 22 V 303 h -22 v 8.6 h 25.1 z"
   id="path5289"
   inkscape:connector-curvature="0"
   style="fill:#c670d0" />
		<path
   class="st0"
   d="m 345.9,310.5 h -6.4 v 14.1 H 324.8 V 269.4 H 348 c 14.2,0 22.6,8.9 22.6,20.9 0,7.7 -3.9,13.7 -10.4,17.2 l 11.9,17.1 H 355 Z M 339.4,298 h 7.3 c 5.4,0 8.8,-3.5 8.8,-7.8 0,-4.6 -3.2,-8.2 -9,-8.2 h -7.1 z"
   id="path5291"
   inkscape:connector-curvature="0"
   style="fill:#c670d0" />
		<g
   id="g5305">
			<path
   class="st11"
   d="m 372,324.6 h -17.1 l -9,-14.1 h -6.4 v 14.1 h -14.7 v -19.2 c 7.7,1.2 14.9,2.5 21.4,3.8 v 0 c 6.9,1.4 13,3 18.4,4.6 v 0 z"
   id="path5293"
   inkscape:connector-curvature="0"
   style="fill:#a75cbc" />
			<path
   class="st1"
   d="m 60.5,307.3 c 0,11.4 -7.9,18 -21.5,18 -8.9,0 -16.3,-2.5 -22.2,-6.8 l 1.2,-2.1 c 4.3,-1.6 9.4,-3.2 15.2,-4.7 2,0.5 4.2,0.8 6.8,0.8 3.5,0 5.5,-1.3 5.6,-3.6 4.6,-1 9.6,-1.8 14.9,-2.7 0,0.4 0,0.7 0,1.1 z"
   id="path5295"
   inkscape:connector-curvature="0"
   style="fill:#fdda39" />
			<path
   class="st1"
   d="m 119.7,299.6 v 0.3 c 0,16.8 -10.2,25.4 -25.6,25.4 -13.6,0 -23.2,-6.9 -25,-20.5 4.7,-0.7 9.7,-1.3 14.8,-1.9 0.6,4.6 3.4,9 10.2,9 7.9,0 10.6,-5.8 10.6,-10.9 v -0.3 c 4.9,-0.4 9.9,-0.8 15,-1.1 z"
   id="path5297"
   inkscape:connector-curvature="0"
   style="fill:#fdda39" />
			<path
   class="st1"
   d="m 191.9,324.6 h -14.7 l -0.2,-25.7 -11.8,21.3 h -9.1 l -11.6,-21 -0.1,25.3 h -14.7 l 0.6,-25.7 c 4.6,-0.3 9.3,-0.5 14.1,-0.7 4.3,-0.2 8.7,-0.4 13.2,-0.5 l 3.3,5.6 3.5,-5.8 c 4.1,-0.1 8.3,-0.2 12.5,-0.3 4.7,-0.1 9.4,-0.1 14.1,-0.1 z"
   id="path5299"
   inkscape:connector-curvature="0"
   style="fill:#fdda39" />
			<path
   class="st11"
   d="m 264.2,324.6 h -14.7 l -0.2,-25.7 -11.8,21.3 h -9.1 l -11.6,-21 -0.1,25.3 H 202 l 0.7,-27.6 c 4.8,0 9.5,0.1 14.1,0.2 v 0 c 4.4,0.1 8.7,0.2 13,0.3 l 3.4,5.7 3.3,-5.5 c 4.3,0.1 8.6,0.3 12.8,0.5 v 0 c 4.8,0.2 9.5,0.5 14.1,0.8 z"
   id="path5301"
   inkscape:connector-curvature="0"
   style="fill:#a75cbc" />
			<path
   class="st11"
   d="m 314.9,311.7 v 12.9 h -40 v -24.7 c 11.6,0.9 22.6,2 32.8,3.2 h -18 v 8.6 z"
   id="path5303"
   inkscape:connector-curvature="0"
   style="fill:#a75cbc" />
		</g>
	</g>
</g>
<path
   class="st10"
   d="m 233.16454,242.55 c 0.5,0 1,-0.2 1.3,-0.5 0.3,-0.3 0.5,-0.8 0.5,-1.3 0,-0.5 -0.2,-1 -0.5,-1.3 -0.3,-0.3 -0.7,-0.5 -1.3,-0.5 -0.5,0 -1,0.2 -1.3,0.5 -0.3,0.3 -0.5,0.8 -0.5,1.3 0,0.6 0.2,1 0.5,1.3 0.3,0.4 0.8,0.5 1.3,0.5 z m 1.5,3 c -0.4,-0.4 -0.9,-0.6 -1.5,-0.6 -0.7,0 -1.2,0.2 -1.5,0.7 -0.3,0.5 -0.5,1 -0.5,1.6 0,0.8 0.2,1.4 0.6,1.9 0.4,0.4 0.9,0.7 1.5,0.7 0.6,0 1.1,-0.2 1.4,-0.7 0.3,-0.5 0.6,-1 0.6,-1.9 0,-0.7 -0.2,-1.3 -0.6,-1.7 z m -1.5,-15.6 c -8,0 -14.4,6.5 -14.4,14.4 0,8 6.5,14.4 14.4,14.4 8,0 14.4,-6.5 14.4,-14.4 0.1,-8 -6.4,-14.4 -14.4,-14.4 z m 3.6,20.8 c -0.9,0.9 -2,1.3 -3.4,1.3 -1.3,0 -2.4,-0.4 -3.3,-1.1 -1,-0.8 -1.6,-2 -1.6,-3.5 0,-0.8 0.2,-1.6 0.6,-2.3 0.4,-0.7 1,-1.2 1.8,-1.6 -0.7,-0.3 -1.2,-0.8 -1.6,-1.3 -0.3,-0.6 -0.5,-1.2 -0.5,-1.8 0,-1.1 0.4,-2 1.1,-2.8 0.8,-0.7 1.9,-1.1 3.3,-1.1 1.4,0 2.5,0.4 3.2,1.1 0.8,0.7 1.2,1.7 1.2,2.8 0,0.7 -0.2,1.3 -0.5,1.9 -0.3,0.5 -0.8,1 -1.5,1.2 0.8,0.3 1.4,0.8 1.9,1.5 0.4,0.6 0.6,1.4 0.6,2.2 -0.1,1.5 -0.5,2.6 -1.3,3.5 z m -3.6,-8.2 c 0.5,0 1,-0.2 1.3,-0.5 0.3,-0.3 0.5,-0.8 0.5,-1.3 0,-0.5 -0.2,-1 -0.5,-1.3 -0.3,-0.3 -0.7,-0.5 -1.3,-0.5 -0.5,0 -1,0.2 -1.3,0.5 -0.3,0.3 -0.5,0.8 -0.5,1.3 0,0.6 0.2,1 0.5,1.3 0.3,0.4 0.8,0.5 1.3,0.5 z m 0,2.3 c -0.7,0 -1.2,0.2 -1.5,0.7 -0.3,0.5 -0.5,1 -0.5,1.6 0,0.8 0.2,1.4 0.6,1.9 0.4,0.4 0.9,0.7 1.5,0.7 0.6,0 1.1,-0.2 1.4,-0.7 0.3,-0.5 0.6,-1 0.6,-1.9 0,-0.7 -0.2,-1.3 -0.6,-1.7 -0.4,-0.3 -0.9,-0.6 -1.5,-0.6 z m 1.5,0.7 c -0.4,-0.4 -0.9,-0.6 -1.5,-0.6 -0.7,0 -1.2,0.2 -1.5,0.7 -0.3,0.5 -0.5,1 -0.5,1.6 0,0.8 0.2,1.4 0.6,1.9 0.4,0.4 0.9,0.7 1.5,0.7 0.6,0 1.1,-0.2 1.4,-0.7 0.3,-0.5 0.6,-1 0.6,-1.9 0,-0.7 -0.2,-1.3 -0.6,-1.7 z m -0.2,-6.1 c -0.3,-0.3 -0.7,-0.5 -1.3,-0.5 -0.5,0 -1,0.2 -1.3,0.5 -0.3,0.3 -0.5,0.8 -0.5,1.3 0,0.6 0.2,1 0.5,1.3 0.3,0.3 0.7,0.5 1.3,0.5 0.5,0 1,-0.2 1.3,-0.5 0.3,-0.3 0.5,-0.8 0.5,-1.3 -0.1,-0.5 -0.2,-1 -0.5,-1.3 z m 0.2,6.1 c -0.4,-0.4 -0.9,-0.6 -1.5,-0.6 -0.7,0 -1.2,0.2 -1.5,0.7 -0.3,0.5 -0.5,1 -0.5,1.6 0,0.8 0.2,1.4 0.6,1.9 0.4,0.4 0.9,0.7 1.5,0.7 0.6,0 1.1,-0.2 1.4,-0.7 0.3,-0.5 0.6,-1 0.6,-1.9 0,-0.7 -0.2,-1.3 -0.6,-1.7 z m -0.2,-6.1 c -0.3,-0.3 -0.7,-0.5 -1.3,-0.5 -0.5,0 -1,0.2 -1.3,0.5 -0.3,0.3 -0.5,0.8 -0.5,1.3 0,0.6 0.2,1 0.5,1.3 0.3,0.3 0.7,0.5 1.3,0.5 0.5,0 1,-0.2 1.3,-0.5 0.3,-0.3 0.5,-0.8 0.5,-1.3 -0.1,-0.5 -0.2,-1 -0.5,-1.3 z m 0.2,6.1 c -0.4,-0.4 -0.9,-0.6 -1.5,-0.6 -0.7,0 -1.2,0.2 -1.5,0.7 -0.3,0.5 -0.5,1 -0.5,1.6 0,0.8 0.2,1.4 0.6,1.9 0.4,0.4 0.9,0.7 1.5,0.7 0.6,0 1.1,-0.2 1.4,-0.7 0.3,-0.5 0.6,-1 0.6,-1.9 0,-0.7 -0.2,-1.3 -0.6,-1.7 z m -0.2,-6.1 c -0.3,-0.3 -0.7,-0.5 -1.3,-0.5 -0.5,0 -1,0.2 -1.3,0.5 -0.3,0.3 -0.5,0.8 -0.5,1.3 0,0.6 0.2,1 0.5,1.3 0.3,0.3 0.7,0.5 1.3,0.5 0.5,0 1,-0.2 1.3,-0.5 0.3,-0.3 0.5,-0.8 0.5,-1.3 -0.1,-0.5 -0.2,-1 -0.5,-1.3 z m 0,0 c -0.3,-0.3 -0.7,-0.5 -1.3,-0.5 -0.5,0 -1,0.2 -1.3,0.5 -0.3,0.3 -0.5,0.8 -0.5,1.3 0,0.6 0.2,1 0.5,1.3 0.3,0.3 0.7,0.5 1.3,0.5 0.5,0 1,-0.2 1.3,-0.5 0.3,-0.3 0.5,-0.8 0.5,-1.3 -0.1,-0.5 -0.2,-1 -0.5,-1.3 z m 0.2,6.1 c -0.4,-0.4 -0.9,-0.6 -1.5,-0.6 -0.7,0 -1.2,0.2 -1.5,0.7 -0.3,0.5 -0.5,1 -0.5,1.6 0,0.8 0.2,1.4 0.6,1.9 0.4,0.4 0.9,0.7 1.5,0.7 0.6,0 1.1,-0.2 1.4,-0.7 0.3,-0.5 0.6,-1 0.6,-1.9 0,-0.7 -0.2,-1.3 -0.6,-1.7 z m 0,0 c -0.4,-0.4 -0.9,-0.6 -1.5,-0.6 -0.7,0 -1.2,0.2 -1.5,0.7 -0.3,0.5 -0.5,1 -0.5,1.6 0,0.8 0.2,1.4 0.6,1.9 0.4,0.4 0.9,0.7 1.5,0.7 0.6,0 1.1,-0.2 1.4,-0.7 0.3,-0.5 0.6,-1 0.6,-1.9 0,-0.7 -0.2,-1.3 -0.6,-1.7 z m -0.2,-6.1 c -0.3,-0.3 -0.7,-0.5 -1.3,-0.5 -0.5,0 -1,0.2 -1.3,0.5 -0.3,0.3 -0.5,0.8 -0.5,1.3 0,0.6 0.2,1 0.5,1.3 0.3,0.3 0.7,0.5 1.3,0.5 0.5,0 1,-0.2 1.3,-0.5 0.3,-0.3 0.5,-0.8 0.5,-1.3 -0.1,-0.5 -0.2,-1 -0.5,-1.3 z m 0,0 c -0.3,-0.3 -0.7,-0.5 -1.3,-0.5 -0.5,0 -1,0.2 -1.3,0.5 -0.3,0.3 -0.5,0.8 -0.5,1.3 0,0.6 0.2,1 0.5,1.3 0.3,0.3 0.7,0.5 1.3,0.5 0.5,0 1,-0.2 1.3,-0.5 0.3,-0.3 0.5,-0.8 0.5,-1.3 -0.1,-0.5 -0.2,-1 -0.5,-1.3 z m 0.2,6.1 c -0.4,-0.4 -0.9,-0.6 -1.5,-0.6 -0.7,0 -1.2,0.2 -1.5,0.7 -0.3,0.5 -0.5,1 -0.5,1.6 0,0.8 0.2,1.4 0.6,1.9 0.4,0.4 0.9,0.7 1.5,0.7 0.6,0 1.1,-0.2 1.4,-0.7 0.3,-0.5 0.6,-1 0.6,-1.9 0,-0.7 -0.2,-1.3 -0.6,-1.7 z m 0,0 c -0.4,-0.4 -0.9,-0.6 -1.5,-0.6 -0.7,0 -1.2,0.2 -1.5,0.7 -0.3,0.5 -0.5,1 -0.5,1.6 0,0.8 0.2,1.4 0.6,1.9 0.4,0.4 0.9,0.7 1.5,0.7 0.6,0 1.1,-0.2 1.4,-0.7 0.3,-0.5 0.6,-1 0.6,-1.9 0,-0.7 -0.2,-1.3 -0.6,-1.7 z m -0.2,-6.1 c -0.3,-0.3 -0.7,-0.5 -1.3,-0.5 -0.5,0 -1,0.2 -1.3,0.5 -0.3,0.3 -0.5,0.8 -0.5,1.3 0,0.6 0.2,1 0.5,1.3 0.3,0.3 0.7,0.5 1.3,0.5 0.5,0 1,-0.2 1.3,-0.5 0.3,-0.3 0.5,-0.8 0.5,-1.3 -0.1,-0.5 -0.2,-1 -0.5,-1.3 z"
   id="path5311"
   inkscape:connector-curvature="0"
   style="fill:#562e6d" />
<path
   class="st15"
   d="m 237.36454,245.15 c -0.4,-0.6 -1,-1.1 -1.9,-1.5 0.7,-0.3 1.1,-0.7 1.5,-1.2 0.4,-0.5 0.5,-1.2 0.5,-1.9 0,-1.1 -0.4,-2 -1.2,-2.8 -0.8,-0.7 -1.8,-1.1 -3.2,-1.1 -1.4,0 -2.5,0.4 -3.3,1.1 -0.8,0.7 -1.1,1.7 -1.1,2.8 0,0.6 0.2,1.3 0.5,1.8 0.3,0.5 0.9,1 1.6,1.3 -0.8,0.4 -1.5,0.9 -1.8,1.6 -0.4,0.7 -0.6,1.4 -0.6,2.3 0,1.5 0.5,2.6 1.6,3.5 0.9,0.7 2,1.1 3.3,1.1 1.4,0 2.6,-0.4 3.4,-1.3 0.9,-0.9 1.3,-2 1.3,-3.4 0,-0.9 -0.2,-1.7 -0.6,-2.3 z m -5.5,-5.7 c 0.3,-0.3 0.8,-0.5 1.3,-0.5 0.5,0 0.9,0.2 1.3,0.5 0.3,0.3 0.5,0.8 0.5,1.3 0,0.6 -0.2,1 -0.5,1.3 -0.3,0.3 -0.7,0.5 -1.3,0.5 -0.5,0 -0.9,-0.2 -1.3,-0.5 -0.3,-0.3 -0.5,-0.8 -0.5,-1.3 0,-0.5 0.2,-1 0.5,-1.3 z m 2.8,9.6 c -0.4,0.4 -0.9,0.7 -1.4,0.7 -0.6,0 -1.1,-0.2 -1.5,-0.7 -0.4,-0.4 -0.6,-1.1 -0.6,-1.9 0,-0.6 0.2,-1.1 0.5,-1.6 0.3,-0.5 0.8,-0.7 1.5,-0.7 0.6,0 1.1,0.2 1.5,0.6 0.4,0.4 0.6,1 0.6,1.7 0,0.9 -0.2,1.5 -0.6,1.9 z"
   id="path5313"
   inkscape:connector-curvature="0"
   style="fill:#ffffff" />
<path
   class="st10"
   d="m 202.36454,229.95 c -8,0 -14.4,6.5 -14.4,14.4 0,8 6.5,14.4 14.4,14.4 8,0 14.4,-6.5 14.4,-14.4 0.1,-8 -6.4,-14.4 -14.4,-14.4 z m 2.9,22.1 h -2.9 v -11.1 c -1.1,1 -2.4,1.7 -3.8,2.2 v -2.7 c 0.8,-0.3 1.6,-0.7 2.5,-1.4 0.9,-0.7 1.5,-1.5 1.8,-2.5 h 2.4 z"
   id="path5315"
   inkscape:connector-curvature="0"
   style="fill:#562e6d" />
<path
   class="st15"
   d="m 205.26454,236.65 v 15.4 h -2.9 v -11.1 c -1.1,1 -2.4,1.7 -3.8,2.2 v -2.7 c 0.8,-0.3 1.6,-0.7 2.5,-1.4 0.9,-0.7 1.5,-1.5 1.8,-2.5 h 2.4 z"
   id="path5317"
   inkscape:connector-curvature="0"
   style="fill:#ffffff" />
<path
   class="st10"
   d="m 173.16454,240.75 c -0.2,-0.7 -0.4,-1.1 -0.7,-1.3 -0.3,-0.2 -0.6,-0.3 -0.9,-0.3 -0.4,0 -0.7,0.1 -0.9,0.3 -0.3,0.2 -0.5,0.6 -0.6,1.2 -0.2,0.8 -0.3,2 -0.3,3.8 0,1.8 0.1,3 0.3,3.6 0.2,0.7 0.4,1.1 0.7,1.3 0.3,0.2 0.6,0.3 0.9,0.3 0.3,0 0.6,-0.1 0.9,-0.3 0.3,-0.2 0.5,-0.6 0.6,-1.2 0.2,-0.7 0.3,-2 0.3,-3.8 0,-1.7 -0.1,-3 -0.3,-3.6 z m 0,0 c -0.2,-0.7 -0.4,-1.1 -0.7,-1.3 -0.3,-0.2 -0.6,-0.3 -0.9,-0.3 -0.4,0 -0.7,0.1 -0.9,0.3 -0.3,0.2 -0.5,0.6 -0.6,1.2 -0.2,0.8 -0.3,2 -0.3,3.8 0,1.8 0.1,3 0.3,3.6 0.2,0.7 0.4,1.1 0.7,1.3 0.3,0.2 0.6,0.3 0.9,0.3 0.3,0 0.6,-0.1 0.9,-0.3 0.3,-0.2 0.5,-0.6 0.6,-1.2 0.2,-0.7 0.3,-2 0.3,-3.8 0,-1.7 -0.1,-3 -0.3,-3.6 z m -1.6,-10.8 c -8,0 -14.4,6.5 -14.4,14.4 0,8 6.5,14.4 14.4,14.4 8,0 14.4,-6.5 14.4,-14.4 0.1,-8 -6.4,-14.4 -14.4,-14.4 z m 3.4,20.6 c -0.8,1 -1.9,1.5 -3.3,1.5 -1.5,0 -2.6,-0.6 -3.5,-1.7 -0.9,-1.1 -1.3,-3.1 -1.3,-6 0,-2.8 0.5,-4.9 1.5,-6.1 0.8,-1 1.9,-1.5 3.4,-1.5 1.4,0 2.6,0.5 3.4,1.6 1,1.2 1.5,3.3 1.5,6.1 -0.2,2.8 -0.7,4.8 -1.7,6.1 z m -2.5,-11.1 c -0.3,-0.2 -0.6,-0.3 -0.9,-0.3 -0.4,0 -0.7,0.1 -0.9,0.3 -0.3,0.2 -0.5,0.6 -0.6,1.2 -0.2,0.8 -0.3,2 -0.3,3.8 0,1.8 0.1,3 0.3,3.6 0.2,0.7 0.4,1.1 0.7,1.3 0.3,0.2 0.6,0.3 0.9,0.3 0.3,0 0.6,-0.1 0.9,-0.3 0.3,-0.2 0.5,-0.6 0.6,-1.2 0.2,-0.7 0.3,-2 0.3,-3.8 0,-1.8 -0.1,-3 -0.3,-3.6 -0.2,-0.7 -0.4,-1.1 -0.7,-1.3 z"
   id="path5319"
   inkscape:connector-curvature="0"
   style="fill:#562e6d" />
<path
   class="st15"
   d="m 174.96454,238.25 c -0.8,-1 -1.9,-1.6 -3.4,-1.6 -1.4,0 -2.6,0.5 -3.4,1.5 -1,1.3 -1.5,3.3 -1.5,6.1 0,2.9 0.5,4.9 1.3,6 0.9,1.1 2,1.7 3.5,1.7 1.4,0 2.5,-0.5 3.3,-1.5 1,-1.3 1.5,-3.3 1.5,-6.2 0.2,-2.7 -0.3,-4.8 -1.3,-6 z m -1.8,9.9 c -0.1,0.6 -0.4,1 -0.6,1.2 -0.3,0.2 -0.6,0.3 -0.9,0.3 -0.4,0 -0.7,-0.1 -0.9,-0.3 -0.3,-0.2 -0.5,-0.7 -0.7,-1.3 -0.2,-0.7 -0.3,-1.9 -0.3,-3.6 0,-1.8 0.1,-3 0.3,-3.8 0.1,-0.6 0.4,-1 0.6,-1.2 0.3,-0.2 0.6,-0.3 0.9,-0.3 0.3,0 0.6,0.1 0.9,0.3 0.3,0.2 0.5,0.7 0.7,1.3 0.2,0.7 0.3,1.9 0.3,3.6 0,1.8 -0.1,3 -0.3,3.8 z"
   id="path5321"
   inkscape:connector-curvature="0"
   style="fill:#ffffff" />
<path
   class="st10"
   d="m 140.76454,229.95 c -8,0 -14.4,6.5 -14.4,14.4 0,8 6.5,14.4 14.4,14.4 8,0 14.4,-6.5 14.4,-14.4 0.1,-8 -6.4,-14.4 -14.4,-14.4 z m 4.9,19.4 v 2.7 h -9.7 c 0.1,-1 0.4,-2 0.9,-2.9 0.5,-0.9 1.6,-2.2 3.1,-3.7 1.2,-1.2 2,-2.1 2.3,-2.5 0.4,-0.6 0.6,-1.2 0.6,-1.8 0,-0.7 -0.2,-1.2 -0.5,-1.5 -0.3,-0.4 -0.8,-0.5 -1.4,-0.5 -0.6,0 -1,0.2 -1.4,0.5 -0.3,0.4 -0.5,1 -0.6,1.8 l -2.7,-0.3 c 0.2,-1.6 0.7,-2.8 1.5,-3.5 0.9,-0.7 1.9,-1.1 3.2,-1.1 1.4,0 2.5,0.4 3.3,1.2 0.8,0.8 1.2,1.8 1.2,3 0,0.7 -0.1,1.3 -0.4,2 -0.2,0.6 -0.6,1.3 -1.1,2 -0.3,0.5 -0.9,1.1 -1.8,2 -0.9,0.9 -1.4,1.4 -1.6,1.7 -0.2,0.3 -0.4,0.6 -0.6,0.8 h 5.7 z"
   id="path5323"
   inkscape:connector-curvature="0"
   style="fill:#562e6d" />
<path
   class="st15"
   d="m 140.16454,249.35 h 5.5 v 2.7 h -9.7 c 0.1,-1 0.4,-2 0.9,-2.9 0.5,-0.9 1.6,-2.2 3.1,-3.7 1.2,-1.2 2,-2.1 2.3,-2.5 0.4,-0.6 0.6,-1.2 0.6,-1.8 0,-0.7 -0.2,-1.2 -0.5,-1.5 -0.3,-0.4 -0.8,-0.5 -1.4,-0.5 -0.6,0 -1,0.2 -1.4,0.5 -0.3,0.4 -0.5,1 -0.6,1.8 l -2.7,-0.3 c 0.2,-1.6 0.7,-2.8 1.5,-3.5 0.9,-0.7 1.9,-1.1 3.2,-1.1 1.4,0 2.5,0.4 3.3,1.2 0.8,0.8 1.2,1.8 1.2,3 0,0.7 -0.1,1.3 -0.4,2 -0.2,0.6 -0.6,1.3 -1.1,2 -0.3,0.5 -0.9,1.1 -1.8,2 -0.9,0.9 -1.4,1.4 -1.6,1.7 -0.1,0.3 -0.3,0.6 -0.4,0.9 z"
   id="path5325"
   inkscape:connector-curvature="0"
   style="fill:#ffffff" />
<polyline
   class="st16"
   points="139.2,268.6 194,245.9 248.7,268.6 "
   id="polyline5327"
   style="fill:none"
   transform="translate(-8.0354559,-111.75)" />
<line
   class="st16"
   x1="232.16454"
   y1="141.35001"
   x2="239.76454"
   y2="144.45001"
   id="line5329"
   style="fill:none" />
<line
   class="st16"
   x1="278.26453"
   y1="126.85001"
   x2="284.06454"
   y2="129.25"
   id="line5331"
   style="fill:none" />
<line
   class="st16"
   x1="128.66454"
   y1="104.05"
   x2="124.96455"
   y2="105.64999"
   id="line5333"
   style="fill:none" />
</svg>