<svg width="500" height="349" viewBox="0 0 500 349" xmlns="http://www.w3.org/2000/svg"><title>Shape</title><path d="M215.4 0C96.4 0 0 72.1 0 161.1c0 53.1 34.5 100.3 87.6 129.6-5.2 18.1-17.3 40.6-45.3 56.4 0 0 52.9 13.5 97.9-35.1 23.4 6.5 48.8 10.1 75.3 10.1 119 0 215.4-72.1 215.4-161S334.4 0 215.4 0zm-99.1 126.9c18.9 0 34.1 15.3 34.1 34.1 0 18.9-15.3 34.1-34.1 34.1-18.9 0-34.1-15.3-34.1-34.1-.1-18.8 15.2-34.1 34.1-34.1zm99.1 68.3c-18.9 0-34.1-15.3-34.1-34.1 0-18.9 15.3-34.1 34.1-34.1s34.1 15.3 34.1 34.1c.1 18.8-15.2 34.1-34.1 34.1zm99.2 0c-18.9 0-34.1-15.3-34.1-34.1 0-18.9 15.3-34.1 34.1-34.1 18.9 0 34.1 15.3 34.1 34.1s-15.3 34.1-34.1 34.1zm134.4 111c3 10.5 10 23.7 26.3 32.8 0 0-30.8 7.9-57-20.4-13.7 3.8-28.5 5.9-43.9 5.9-20.9 0-40.7-3.9-58.1-10.7 20.8-7.9 40.1-18.3 57.2-31.1 43.2-32.2 67-75.4 67-121.6 0-3.5-.1-6.9-.4-10.4 35.9 16.5 59.9 46.2 59.9 80 0 30.9-20 58.4-51 75.5z" fill="#9045A0"/></svg>