<?xml version="1.0" encoding="UTF-8"?>
<svg width="500px" height="349px" viewBox="0 0 500 349" version="1.1" xmlns="http://www.w3.org/2000/svg" xmlns:xlink="http://www.w3.org/1999/xlink">
    <!-- Generator: Sketch 47.1 (45422) - http://www.bohemiancoding.com/sketch -->
    <title>Shape</title>
    <desc>Created with Sketch.</desc>
    <defs></defs>
    <g id="Page-1" stroke="none" stroke-width="1" fill="none" fill-rule="evenodd">
        <g id="HOME-Copy-2" transform="translate(-290.000000, -899.000000)" fill-rule="nonzero" fill="#9045A0">
            <path d="M505.4,899 C386.4,899 290,971.1 290,1060.1 C290,1113.2 324.5,1160.4 377.6,1189.7 C372.4,1207.8 360.3,1230.3 332.3,1246.1 C332.3,1246.1 385.2,1259.6 430.2,1211 C453.6,1217.5 479,1221.1 505.5,1221.1 C624.5,1221.1 720.9,1149 720.9,1060.1 C720.9,971.2 624.4,899 505.4,899 Z M406.3,1025.9 C425.2,1025.9 440.4,1041.2 440.4,1060 C440.4,1078.9 425.1,1094.1 406.3,1094.1 C387.4,1094.1 372.2,1078.8 372.2,1060 C372.1,1041.2 387.4,1025.9 406.3,1025.9 Z M505.4,1094.2 C486.5,1094.2 471.3,1078.9 471.3,1060.1 C471.3,1041.2 486.6,1026 505.4,1026 C524.2,1026 539.5,1041.3 539.5,1060.1 C539.6,1078.9 524.3,1094.2 505.4,1094.2 Z M604.6,1094.2 C585.7,1094.2 570.5,1078.9 570.5,1060.1 C570.5,1041.2 585.8,1026 604.6,1026 C623.5,1026 638.7,1041.3 638.7,1060.1 C638.7,1078.9 623.4,1094.2 604.6,1094.2 Z M739,1205.2 C742,1215.7 749,1228.9 765.3,1238 C765.3,1238 734.5,1245.9 708.3,1217.6 C694.6,1221.4 679.8,1223.5 664.4,1223.5 C643.5,1223.5 623.7,1219.6 606.3,1212.8 C627.1,1204.9 646.4,1194.5 663.5,1181.7 C706.7,1149.5 730.5,1106.3 730.5,1060.1 C730.5,1056.6 730.4,1053.2 730.1,1049.7 C766,1066.2 790,1095.9 790,1129.7 C790,1160.6 770,1188.1 739,1205.2 Z" id="Shape"></path>
        </g>
    </g>
</svg>