<?xml version="1.0" encoding="UTF-8"?>
<svg width="96px" height="110px" viewBox="0 0 96 110" version="1.1" xmlns="http://www.w3.org/2000/svg" xmlns:xlink="http://www.w3.org/1999/xlink">
    <!-- Generator: Sketch 47.1 (45422) - http://www.bohemiancoding.com/sketch -->
    <title>ico-twitch</title>
    <desc>Created with Sketch.</desc>
    <defs></defs>
    <g id="Page-1" stroke="none" stroke-width="1" fill="none" fill-rule="evenodd">
        <g id="ico-twitch" transform="translate(0.000000, -1.000000)" fill="#6441A5">
            <g id="g2993" transform="translate(48.500000, 55.500000) scale(-1, 1) rotate(-180.000000) translate(-48.500000, -55.500000) ">
                <g id="g2995" transform="translate(0.113896, 0.033012)">
                    <path d="M86.8265896,51.5914751 L71.2442947,35.9409145 L46.7671254,35.9409145 L33.4139707,22.5305704 L33.4139707,35.9409145 L13.3848093,35.9409145 L13.3848093,100.767323 L86.8265896,100.767323 L86.8265896,51.5914751 Z M4.47966242,109.708699 L0.0293717745,91.8248004 L0.0293717745,11.353564 L20.060816,11.353564 L20.060816,0.174264538 L31.1848305,0.174264538 L42.3156934,11.353564 L60.116856,11.353564 L95.7237468,47.1144816 L95.7237468,109.708699 L4.47966242,109.708699 Z" id="path2997"></path>
                </g>
                <path d="M37.9781459,56.0914994 L46.8798649,56.0914994 L46.8798649,82.920214 L37.9781459,82.920214 L37.9781459,56.0914994 Z M62.4564594,56.0914994 L71.3581796,56.0914994 L71.3581796,82.920214 L62.4564594,82.920214 L62.4564594,56.0914994 Z" id="path2999"></path>
            </g>
        </g>
    </g>
</svg>