<svg width="250" height="204" viewBox="0 0 250 204" xmlns="http://www.w3.org/2000/svg"><title>Shape</title><path d="M78.62 203.59c94.34 0 145.94-78.16 145.94-145.94 0-2.22 0-4.43-.15-6.63 10.038-7.26 18.704-16.25 25.59-26.55-9.36 4.148-19.292 6.868-29.46 8.07 10.707-6.41 18.72-16.492 22.55-28.37-10.068 5.975-21.084 10.185-32.57 12.45-15.9-16.906-41.163-21.044-61.625-10.093-20.46 10.95-31.032 34.266-25.785 56.873C81.87 61.332 43.445 41.853 17.4 9.81 3.786 33.246 10.74 63.23 33.28 78.28c-8.163-.242-16.147-2.444-23.28-6.42v.65c.007 24.416 17.218 45.445 41.15 50.28-7.55 2.06-15.474 2.36-23.16.88 6.72 20.894 25.976 35.208 47.92 35.62-18.163 14.274-40.6 22.023-63.7 22-4.08-.008-8.158-.255-12.21-.74 23.456 15.053 50.75 23.037 78.62 23" fill="#1DA1F2"/></svg>