<?xml version="1.0" encoding="UTF-8"?>
<svg width="11px" height="18px" viewBox="0 0 11 18" version="1.1" xmlns="http://www.w3.org/2000/svg" xmlns:xlink="http://www.w3.org/1999/xlink">
    <!-- Generator: Sketch 47.1 (45422) - http://www.bohemiancoding.com/sketch -->
    <title>Oval 2 Copy</title>
    <desc>Created with Sketch.</desc>
    <defs></defs>
    <g id="Page-1" stroke="none" stroke-width="1" fill="none" fill-rule="evenodd">
        <path d="M2.35928018,18 L8.85382601,18 C8.79551737,17.7111965 8.45295778,15.9056006 8.31422918,14.0100183 C8.22338316,12.7687019 8.18383457,10.9950417 8.4714056,10.9870665 C8.70642939,10.9805486 8.76841662,11.5949632 9.05964749,12.5964611 C9.28501529,13.3714662 9.7268298,15.1726458 10.385091,18 L11,18 C11,13.770162 9.80628523,10.0979381 8.0558643,8.25734544 C7.29854112,8.57373345 6.45687501,8.75 5.57029698,8.75 C4.6446499,8.75 3.76796023,8.55785599 2.98510494,8.21470517 C1.21236744,10.0408131 0,13.737243 0,18 L0.83004239,18 C1.48077986,15.2062869 1.91805338,13.424607 2.14186295,12.6549605 C2.43309382,11.6534626 2.49508104,11.0390479 2.73010483,11.0455659 C3.01767587,11.0535411 2.97812727,12.8272013 2.88728126,14.0685177 C2.75590631,15.8636199 2.4417368,17.5780228 2.35928018,18 Z M5.5,7 C3.56700338,7 2,5.43299662 2,3.5 C2,1.56700338 3.56700338,0 5.5,0 C7.43299662,0 9,1.56700338 9,3.5 C9,5.43299662 7.43299662,7 5.5,7 Z" id="Oval-2-Copy" fill="#FFFFFF"></path>
    </g>
</svg>