<svg width="11" height="18" viewBox="0 0 11 18" xmlns="http://www.w3.org/2000/svg"><title>Oval 2 Copy</title><path d="M2.36 18h6.494c-.058-.29-.4-2.094-.54-3.99-.09-1.24-.13-3.015.157-3.023.24-.006.3.608.59 1.61.23.774.67 2.576 1.33 5.403H11c0-4.23-1.194-7.902-2.944-9.743-.757.317-1.6.493-2.486.493-.925 0-1.802-.192-2.585-.535C1.212 10.04 0 13.737 0 18h.83c.65-2.794 1.088-4.575 1.312-5.345.29-1.002.353-1.616.588-1.61.288.01.248 1.782.157 3.024-.13 1.79-.445 3.503-.528 3.93zM5.5 7C3.567 7 2 5.433 2 3.5S3.567 0 5.5 0 9 1.567 9 3.5 7.433 7 5.5 7z" fill="#FFF" fill-rule="evenodd"/></svg>