<svg width="447" height="202" viewBox="0 0 447 202" xmlns="http://www.w3.org/2000/svg" xmlns:xlink="http://www.w3.org/1999/xlink"><title>EUROPEAN SPEEDRUNNER</title><defs><path d="M133 442.192h-30.336v-60.384H133v12.336h-18v11.664h18v12.336h-18v11.664h18v12.384zm11.664 0v-6.048h-6v-54.336H151v48h11.664v-48H175v54.336h-6v6.048h-24.336zm-6-6.048h6v6.048h-6v-6.048zm30.336 0h6V442h-6v-5.856zm24-42v11.664h11.664v-11.664H193zm0 48.048h-12.336v-60.384H211v6h6v24.336h-6v5.664h6v24.384h-12.336v-24.048H193v24.048zm18-60.384h6v6h-6v-6zm24 48h11.664v-35.664H235v35.664zm-6.336 12.384v-6.048h-6v-48.336h6v-6H253v6h6v48.336h-6v6.048h-24.336zM223 382h5.664v5.808H223V382zm30-.192h6v6h-6v-6zm0 54.336h6V442h-6v-5.856zm-30.336 0h6v6.048h-6v-6.048zm54.336-42v11.664h11.664v-11.664H277zm0 48.048h-12.336v-60.384H295v6h6v24.336h-6v6h-18v24.048zm18-60.384h6v6h-6v-6zm0 30.336h6V418h-6v-5.856zm42 30.048h-30.336v-60.384H337v12.336h-18v11.664h18v12.336h-18v11.664h18v12.384zm18-48.048v11.664h11.664v-11.664H355zm0 48.048h-12.336v-60.384H379v60.384h-12.336v-24.048H355v24.048zm42 0h-12.336v-60.384H421v60.384h-12.336v-48.048H397v48.048zm-324 66H42.664v-12.384h24v-11.664h-18v-6h-6v-24.336h6v-6H79v12.336H55v11.664h18v6h6v24.336h-6v6.048zM43 448h5.664v5.808H43V448zm-.336 30.144h6v6h-6v-6zM73 471.808h6v6h-6v-6zm0 30.336h6V508h-6v-5.856zm24-42v11.664h11.664v-11.664H97zm0 48.048H84.664v-60.384H115v6h6v24.336h-6v6H97v24.048zm18-60.384h6v6h-6v-6zm0 30.336h6V484h-6v-5.856zm42 30.048h-30.336v-60.384H157v12.336h-18v11.664h18v12.336h-18v11.664h18v12.384zm36 0h-30.336v-60.384H193v12.336h-18v11.664h18v12.336h-18v11.664h18v12.384zm18-12.384h11.664v-35.664H211v35.664zm-12.336 12.384v-60.384H229v6h6v48.336h-6v6.048h-30.336zM253 460.144v11.664h11.664v-11.664H253zm0 48.048h-12.336v-60.384H271v6h6v24.336h-6v5.664h6v24.384h-12.336v-24.048H253v24.048zm18-60.384h6v6h-6v-6zm17.664 60.384v-6.048h-6v-54.336H295v48h11.664v-48H319v54.336h-6v6.048h-24.336zm-6-6.048h6v6.048h-6v-6.048zm30.336 0h6V508h-6v-5.856zm24 6.048h-12.336v-60.384H361v60.384h-12.336v-48.048H337v48.048zm42 0h-12.336v-60.384H403v60.384h-12.336v-48.048H379v48.048zm60 0h-30.336v-60.384H439v12.336h-18v11.664h18v12.336h-18v11.664h18v12.384zm18-48.048v11.664h11.664v-11.664H457zm0 48.048h-12.336v-60.384H475v6h6v24.336h-6v5.664h6v24.384h-12.336v-24.048H457v24.048zm18-60.384h6v6h-6v-6zm-372 78.336v11.664h11.664v-11.664H103zm0 48.048H90.664v-60.384H127v60.384h-12.336v-24.048H103v24.048zm60 0h-30.336v-12.384h24v-11.664h-18v-6h-6v-24.336h6v-6H169v12.336h-24v11.664h18v6h6v24.336h-6v6.048zM133 514h5.664v5.808H133V514zm-.336 30.144h6v6h-6v-6zM163 537.808h6v6h-6v-6zm0 30.336h6V574h-6v-5.856zm42 6.048h-30.336v-12.384h24v-11.664h-18v-6h-6v-24.336h6v-6H211v12.336h-24v11.664h18v6h6v24.336h-6v6.048zM175 514h5.664v5.808H175V514zm-.336 30.144h6v6h-6v-6zM205 537.808h6v6h-6v-6zm0 30.336h6V574h-6v-5.856zm42 6.048h-30.336v-60.384H247v12.336h-18v11.664h18v12.336h-18v11.664h18v12.384zm18 0h-12.336v-60.384H313v60.384h-12.336v-48.048H289v48.048h-12.336v-48.048H265v48.048zm66-48.048v11.664h5.664v-11.664H331zm0 35.664h11.664v-11.664H331v11.664zm-12.336 12.384v-60.384H349v30h6v30.384h-36.336zm42 0v-60.384H373v48h18v12.384h-30.336zm60.336 0h-12.336v-24.048h-12v-36.336H409v24h11.664v-24H433v36.336h-12v24.048z" id="b"/><filter x="-5.2%" y="-6.8%" width="110.5%" height="123.9%" filterUnits="objectBoundingBox" id="a"><feOffset dy="2" in="SourceAlpha" result="shadowOffsetOuter1"/><feGaussianBlur stdDeviation="2" in="shadowOffsetOuter1" result="shadowBlurOuter1"/><feColorMatrix values="0 0 0 0 0 0 0 0 0 0 0 0 0 0 0 0 0 0 1 0" in="shadowBlurOuter1" result="shadowMatrixOuter1"/><feOffset dy="2" in="SourceAlpha" result="shadowOffsetOuter2"/><feGaussianBlur stdDeviation="2" in="shadowOffsetOuter2" result="shadowBlurOuter2"/><feColorMatrix values="0 0 0 0 0 0 0 0 0 0 0 0 0 0 0 0 0 0 1 0" in="shadowBlurOuter2" result="shadowMatrixOuter2"/><feOffset dy="2" in="SourceAlpha" result="shadowOffsetOuter3"/><feGaussianBlur stdDeviation="2" in="shadowOffsetOuter3" result="shadowBlurOuter3"/><feColorMatrix values="0 0 0 0 0 0 0 0 0 0 0 0 0 0 0 0 0 0 1 0" in="shadowBlurOuter3" result="shadowMatrixOuter3"/><feOffset dy="2" in="SourceAlpha" result="shadowOffsetOuter4"/><feGaussianBlur stdDeviation="2" in="shadowOffsetOuter4" result="shadowBlurOuter4"/><feColorMatrix values="0 0 0 0 0 0 0 0 0 0 0 0 0 0 0 0 0 0 1 0" in="shadowBlurOuter4" result="shadowMatrixOuter4"/><feOffset dy="2" in="SourceAlpha" result="shadowOffsetOuter5"/><feGaussianBlur stdDeviation="2" in="shadowOffsetOuter5" result="shadowBlurOuter5"/><feColorMatrix values="0 0 0 0 0 0 0 0 0 0 0 0 0 0 0 0 0 0 1 0" in="shadowBlurOuter5" result="shadowMatrixOuter5"/><feMerge><feMergeNode in="shadowMatrixOuter1"/><feMergeNode in="shadowMatrixOuter2"/><feMergeNode in="shadowMatrixOuter3"/><feMergeNode in="shadowMatrixOuter4"/><feMergeNode in="shadowMatrixOuter5"/></feMerge></filter></defs><g transform="translate(-38 -379)" fill="none" fill-rule="evenodd"><use fill="#000" filter="url(#a)" xlink:href="#b"/><use fill="#FFF" xlink:href="#b"/></g></svg>