<svg xmlns="http://www.w3.org/2000/svg" xmlns:xlink="http://www.w3.org/1999/xlink" viewBox="0 0 390 384.08"><defs><style>.cls-1{fill:#fdda39;}.cls-2{fill:#c670d0;}.cls-3{fill:#fff;}.cls-4{fill:#fdd93a;}.cls-5{fill:#fcd93b;}.cls-6{fill:#fcd83c;}.cls-7{fill:#fcd73d;}.cls-8{fill:#fbd63e;}.cls-9{fill:#fbd63f;}.cls-10{fill:#fad540;}.cls-11{fill:#fad441;}.cls-12{fill:#fad442;}.cls-13{fill:#f9d343;}.cls-14{fill:#f9d244;}.cls-15{fill:#f9d245;}.cls-16{fill:#f8d146;}.cls-17{fill:#f8d047;}.cls-18{fill:#f8cf48;}.cls-19{fill:#f7cf49;}.cls-20{fill:#f7ce4a;}.cls-21{fill:#f6cd4b;}.cls-22{fill:#f6cd4c;}.cls-23{fill:#f6cc4d;}.cls-24{fill:#f5cb4e;}.cls-25{fill:#f5cb4f;}.cls-26{fill:#f5ca50;}.cls-27{fill:#f4c951;}.cls-28{fill:#f4c852;}.cls-29{fill:#f4c853;}.cls-30{fill:#f3c754;}.cls-31{fill:#f3c655;}.cls-32{fill:#f2c656;}.cls-33{fill:#f2c557;}.cls-34{fill:#f2c458;}.cls-35{fill:#f1c459;}.cls-36{fill:#f1c35a;}.cls-37{fill:#f1c25b;}.cls-38{fill:#f0c15c;}.cls-39{fill:#f0c15d;}.cls-40{fill:#f0c05e;}.cls-41{fill:#efbf5f;}.cls-42{fill:#efbf60;}.cls-43{fill:#eebe61;}.cls-44{fill:#eebd62;}.cls-45{fill:#eebd63;}.cls-46{fill:#edbc64;}.cls-47{fill:#edbb65;}.cls-48{fill:#edba66;}.cls-49{fill:#ecba67;}.cls-50{fill:#ecb968;}.cls-51{fill:#ecb869;}.cls-52{fill:#ebb86a;}.cls-53{fill:#ebb76b;}.cls-54{fill:#eab66c;}.cls-55{fill:#eab56d;}.cls-56{fill:#eab56e;}.cls-57{fill:#e9b46f;}.cls-58{fill:#e9b370;}.cls-59{fill:#e9b371;}.cls-60{fill:#e8b272;}.cls-61{fill:#e8b173;}.cls-62{fill:#e8b174;}.cls-63{fill:#e7b075;}.cls-64{fill:#e7af76;}.cls-65{fill:#e6ae77;}.cls-66{fill:#e6ae78;}.cls-67{fill:#e6ad79;}.cls-68{fill:#e5ac7a;}.cls-69{fill:#e5ac7b;}.cls-70{fill:#e5ab7c;}.cls-71{fill:#e4aa7d;}.cls-72{fill:#e4aa7e;}.cls-73{fill:#e4a97f;}.cls-74{fill:#e3a880;}.cls-75{fill:#e3a781;}.cls-76{fill:#e2a782;}.cls-77{fill:#e2a683;}.cls-78{fill:#e2a584;}.cls-79{fill:#e1a585;}.cls-80{fill:#e1a486;}.cls-81{fill:#e1a387;}.cls-82{fill:#e0a388;}.cls-83{fill:#e0a289;}.cls-84{fill:#dfa18a;}.cls-85{fill:#dfa08b;}.cls-86{fill:#dfa08c;}.cls-87{fill:#de9f8d;}.cls-88{fill:#de9e8e;}.cls-89{fill:#de9e8f;}.cls-90{fill:#dd9d90;}.cls-91{fill:#dd9c91;}.cls-92{fill:#dd9c92;}.cls-93{fill:#dc9b93;}.cls-94{fill:#dc9a94;}.cls-95{fill:#db9995;}.cls-96{fill:#db9996;}.cls-97{fill:#db9897;}.cls-98{fill:#da9798;}.cls-99{fill:#da9799;}.cls-100{fill:#da969a;}.cls-101{fill:#d9959b;}.cls-102{fill:#d9959c;}.cls-103{fill:#d9949d;}.cls-104{fill:#d8939e;}.cls-105{fill:#d8929f;}.cls-106{fill:#d792a0;}.cls-107{fill:#d791a1;}.cls-108{fill:#d790a2;}.cls-109{fill:#d690a3;}.cls-110{fill:#d68fa4;}.cls-111{fill:#d68ea5;}.cls-112{fill:#d58da6;}.cls-113{fill:#d58da7;}.cls-114{fill:#d58ca8;}.cls-115{fill:#d48ba9;}.cls-116{fill:#d48baa;}.cls-117{fill:#d38aab;}.cls-118{fill:#d389ac;}.cls-119{fill:#d389ad;}.cls-120{fill:#d288ae;}.cls-121{fill:#d287af;}.cls-122{fill:#d286b0;}.cls-123{fill:#d186b1;}.cls-124{fill:#d185b2;}.cls-125{fill:#d184b3;}.cls-126{fill:#d084b4;}.cls-127{fill:#d083b5;}.cls-128{fill:#cf82b6;}.cls-129{fill:#cf82b7;}.cls-130{fill:#cf81b8;}.cls-131{fill:#ce80b9;}.cls-132{fill:#ce7fba;}.cls-133{fill:#ce7fbb;}.cls-134{fill:#cd7ebc;}.cls-135{fill:#cd7dbd;}.cls-136{fill:#cd7dbe;}.cls-137{fill:#cc7cbf;}.cls-138{fill:#cc7bc0;}.cls-139{fill:#cb7bc1;}.cls-140{fill:#cb7ac2;}.cls-141{fill:#cb79c3;}.cls-142{fill:#ca78c4;}.cls-143{fill:#ca78c5;}.cls-144{fill:#ca77c6;}.cls-145{fill:#c976c7;}.cls-146{fill:#c976c8;}.cls-147{fill:#c975c9;}.cls-148{fill:#c874ca;}.cls-149{fill:#c874cb;}.cls-150{fill:#c773cc;}.cls-151{fill:#c772cd;}.cls-152{fill:#c771ce;}.cls-153{fill:#c671cf;}.cls-154{fill:#562e6d;}.cls-155{fill:#a75cbc;}.cls-156{fill:#7a4683;}.cls-157{fill:#fff073;}.cls-158{fill:#fffb66;}.cls-159{fill:url(#Dégradé_sans_nom_28);}.cls-160{fill:url(#Dégradé_sans_nom_28-2);}.cls-161{fill:url(#Dégradé_sans_nom_28-3);}.cls-162{fill:url(#Dégradé_sans_nom_28-4);}.cls-163{fill:url(#Dégradé_sans_nom_28-5);}.cls-164{fill:url(#Dégradé_sans_nom_28-6);}.cls-165{fill:url(#Dégradé_sans_nom_28-7);}.cls-166{fill:url(#Dégradé_sans_nom_28-8);}.cls-167{fill:url(#Dégradé_sans_nom_28-9);}.cls-168{fill:url(#Dégradé_sans_nom_28-10);}.cls-169{fill:url(#Dégradé_sans_nom_28-11);}.cls-170{fill:url(#Dégradé_sans_nom_28-12);}.cls-171{fill:url(#Dégradé_sans_nom_28-13);}.cls-172{fill:url(#Dégradé_sans_nom_28-14);}.cls-173{fill:url(#Dégradé_sans_nom_28-15);}</style><linearGradient id="Dégradé_sans_nom_28" x1="348.38" y1="293.93" x2="348.38" y2="274.73" gradientUnits="userSpaceOnUse"><stop offset="0" stop-color="#fdda39"/><stop offset="0" stop-color="#fd9f3b"/><stop offset="0.28" stop-color="#fec34c"/><stop offset="0.57" stop-color="#fee25a"/><stop offset="0.82" stop-color="#fff463"/><stop offset="1" stop-color="#fffb66"/></linearGradient><linearGradient id="Dégradé_sans_nom_28-2" x1="38.6" y1="294.64" x2="38.6" y2="275.51" xlink:href="#Dégradé_sans_nom_28"/><linearGradient id="Dégradé_sans_nom_28-3" x1="94.4" y1="294.64" x2="94.4" y2="268.9" xlink:href="#Dégradé_sans_nom_28"/><linearGradient id="Dégradé_sans_nom_28-4" x1="160.87" y1="293.93" x2="160.87" y2="266.36" xlink:href="#Dégradé_sans_nom_28"/><linearGradient id="Dégradé_sans_nom_28-5" x1="233.14" y1="293.93" x2="233.14" y2="266.38" xlink:href="#Dégradé_sans_nom_28"/><linearGradient id="Dégradé_sans_nom_28-6" x1="294.93" y1="293.93" x2="294.93" y2="269.24" xlink:href="#Dégradé_sans_nom_28"/><linearGradient id="Dégradé_sans_nom_28-7" x1="127.74" y1="330.49" x2="127.74" y2="312.92" xlink:href="#Dégradé_sans_nom_28"/><linearGradient id="Dégradé_sans_nom_28-8" x1="141.75" y1="330.97" x2="141.75" y2="312.7" xlink:href="#Dégradé_sans_nom_28"/><linearGradient id="Dégradé_sans_nom_28-9" x1="159.75" y1="326.12" x2="159.75" y2="322.7" xlink:href="#Dégradé_sans_nom_28"/><linearGradient id="Dégradé_sans_nom_28-10" x1="177.21" y1="330.49" x2="177.21" y2="312.7" xlink:href="#Dégradé_sans_nom_28"/><linearGradient id="Dégradé_sans_nom_28-11" x1="192.57" y1="330.69" x2="192.57" y2="312.7" xlink:href="#Dégradé_sans_nom_28"/><linearGradient id="Dégradé_sans_nom_28-12" x1="210.52" y1="330.72" x2="210.52" y2="312.92" xlink:href="#Dégradé_sans_nom_28"/><linearGradient id="Dégradé_sans_nom_28-13" x1="227.45" y1="330.72" x2="227.45" y2="312.92" xlink:href="#Dégradé_sans_nom_28"/><linearGradient id="Dégradé_sans_nom_28-14" x1="245.26" y1="330.49" x2="245.26" y2="312.92" xlink:href="#Dégradé_sans_nom_28"/><linearGradient id="Dégradé_sans_nom_28-15" x1="258.16" y1="330.49" x2="258.16" y2="312.92" xlink:href="#Dégradé_sans_nom_28"/></defs><title>SummerBSG</title><g id="Calque_13" data-name="Calque 13"><path class="cls-1" d="M14.5,222.65l0,0h0l51-24a129.37,129.37,0,0,0,4.31,26.73Z"/><path class="cls-1" d="M72.62,148a128.4,128.4,0,0,0-6.39,27.24L14.5,150.84h0Z"/><path class="cls-1" d="M98.32,104.7l-.37.41a129.77,129.77,0,0,0-16.35,23L42,84.5h0l0,0,55.6,20Z"/><path class="cls-1" d="M137.89,74.7l-1.21.6A130.29,130.29,0,0,0,113.88,90l-.74.6-.44-1.23-20-55.61,0,0,0,0L136.5,73.43Z"/><path class="cls-1" d="M185.35,61.85l-1.74.13a129.51,129.51,0,0,0-26,5l-1.5.46.1-2.16,2.85-59v0l25.21,53.43Z"/><path class="cls-1" d="M233.86,67.41l-1.5-.46a129.51,129.51,0,0,0-26-5l-1.74-.13,1-2.18L230.89,6.24v0l2.85,59Z"/><path class="cls-1" d="M297.25,33.72,277.3,89.33l-.44,1.23-.74-.6a130.29,130.29,0,0,0-22.8-14.66l-1.21-.6,1.39-1.27,43.74-39.72,0,0Z"/><path class="cls-1" d="M348,84.5,308.4,128.14a129.77,129.77,0,0,0-16.35-23l-.37-.41.73-.26,55.6-20,0,0Z"/><path class="cls-1" d="M375.46,222.63l0,0-55.27,2.67a129.37,129.37,0,0,0,4.31-26.73l51,24Z"/><path class="cls-1" d="M375.46,150.84h0l-51.73,24.42A128.4,128.4,0,0,0,317.38,148l58.12,2.81Z"/><polygon class="cls-2" points="120.62 262.08 118.94 261.38 121.16 260.58 120.62 262.08"/><path class="cls-2" d="M65.25,191.24q0,2.74.12,5.46l-35.56-10,36.26-10.16A131.35,131.35,0,0,0,65.25,191.24Z"/><path class="cls-2" d="M77.23,245.77,42.39,250,70.5,227.88A128,128,0,0,0,77.23,245.77Z"/><path class="cls-2" d="M81.56,128.22a128.24,128.24,0,0,0-8.73,19.22L42.39,123.52Z"/><path class="cls-2" d="M113.88,90l-.74.6A131.16,131.16,0,0,0,98.32,104.7l-.37.41-.36-.67L78.2,69.93l34.5,19.4Z"/><path class="cls-2" d="M157.64,67l-1.5.46a128.57,128.57,0,0,0-18.25,7.29l-1.21.6-.18-1.87-4.71-39.31,24.45,31.13Z"/><path class="cls-2" d="M206.39,62l-1.74-.13q-4.77-.36-9.65-.36t-9.65.36l-1.74.13.71-2.31L195,21.55l10.68,38.12Z"/><path class="cls-2" d="M258.21,34.12,253.5,73.43l-.18,1.87-1.21-.6a128.57,128.57,0,0,0-18.25-7.29l-1.5-.46,1.4-1.7Z"/><path class="cls-2" d="M311.8,69.93l-19.39,34.51-.36.67-.37-.41a131.16,131.16,0,0,0-14.82-14.14l-.74-.6,1.18-.63Z"/><path class="cls-2" d="M347.61,123.52l-30.44,23.92a128.24,128.24,0,0,0-8.73-19.22Z"/><path class="cls-2" d="M347.61,250l-34.84-4.18a128,128,0,0,0,6.73-17.89Z"/><path class="cls-2" d="M324.63,196.7q.12-2.72.12-5.46a131.35,131.35,0,0,0-.82-14.66l36.26,10.16Z"/><polygon class="cls-1" points="114.75 259.64 118.94 261.38 97.59 269.04 102.59 259.64 114.75 259.64"/><polygon class="cls-1" points="118.94 261.38 121.16 260.58 120.62 262.08 118.94 261.38"/><path class="cls-1" d="M292.41,269l-21.35-7.66-1.68.7-1.41.58a5.66,5.66,0,0,1-4.35,0l-7.27-3h31.06Z"/><path class="cls-3" d="M317.38,148l-.9,0,.69-.54Z"/><path class="cls-1" d="M317.17,191.24c0,67.48-54.7,100.18-122.17,100.18S72.83,258.72,72.83,191.24a122.17,122.17,0,0,1,244.34,0Z"/><path class="cls-4" d="M316.88,191.24c0,67.32-54.57,100-121.88,100s-121.88-32.72-121.88-100a121.88,121.88,0,0,1,243.76,0Z"/><path class="cls-5" d="M316.59,191.24c0,67.16-54.44,99.89-121.59,99.89S73.41,258.4,73.41,191.24a121.59,121.59,0,0,1,243.18,0Z"/><path class="cls-6" d="M316.3,191.24C316.3,258.24,262,291,195,291S73.7,258.24,73.7,191.24a121.3,121.3,0,0,1,242.6,0Z"/><path class="cls-7" d="M316,191.24c0,66.84-54.18,99.61-121,99.61S74,258.08,74,191.24a121,121,0,0,1,242,0Z"/><path class="cls-8" d="M315.72,191.24c0,66.68-54.05,99.47-120.72,99.47S74.28,257.92,74.28,191.24a120.72,120.72,0,0,1,241.44,0Z"/><path class="cls-9" d="M315.43,191.24c0,66.52-53.92,99.32-120.43,99.32S74.57,257.76,74.57,191.24a120.43,120.43,0,0,1,240.86,0Z"/><path class="cls-10" d="M315.15,191.24c0,66.36-53.8,99.18-120.15,99.18S74.85,257.6,74.85,191.24a120.15,120.15,0,0,1,240.3,0Z"/><path class="cls-11" d="M314.86,191.24c0,66.2-53.66,99-119.86,99s-119.86-32.84-119.86-99a119.86,119.86,0,0,1,239.72,0Z"/><path class="cls-12" d="M314.57,191.24c0,66-53.53,98.89-119.57,98.89S75.43,257.28,75.43,191.24a119.57,119.57,0,0,1,239.14,0Z"/><path class="cls-13" d="M314.28,191.24c0,65.88-53.4,98.75-119.28,98.75S75.72,257.12,75.72,191.24a119.28,119.28,0,1,1,238.56,0Z"/><path class="cls-14" d="M314,191.24c0,65.72-53.27,98.61-119,98.61S76,257,76,191.24a119,119,0,0,1,238,0Z"/><path class="cls-15" d="M313.7,191.24c0,65.56-53.14,98.46-118.7,98.46S76.3,256.8,76.3,191.24a118.7,118.7,0,0,1,237.4,0Z"/><path class="cls-16" d="M313.41,191.24c0,65.4-53,98.32-118.41,98.32S76.59,256.64,76.59,191.24a118.41,118.41,0,0,1,236.82,0Z"/><path class="cls-17" d="M313.13,191.24c0,65.24-52.89,98.18-118.13,98.18S76.87,256.48,76.87,191.24a118.13,118.13,0,0,1,236.26,0Z"/><path class="cls-18" d="M312.84,191.24c0,65.08-52.76,98-117.84,98s-117.84-32.95-117.84-98a117.84,117.84,0,0,1,235.68,0Z"/><path class="cls-19" d="M312.55,191.24c0,64.92-52.63,97.89-117.55,97.89s-117.55-33-117.55-97.89a117.55,117.55,0,0,1,235.1,0Z"/><path class="cls-20" d="M312.26,191.24C312.26,256,259.76,289,195,289S77.74,256,77.74,191.24a117.26,117.26,0,0,1,234.52,0Z"/><path class="cls-21" d="M312,191.24c0,64.61-52.37,97.61-117,97.61s-117-33-117-97.61a117,117,0,0,1,233.94,0Z"/><path class="cls-22" d="M311.68,191.24c0,64.45-52.24,97.46-116.68,97.46s-116.68-33-116.68-97.46a116.68,116.68,0,0,1,233.36,0Z"/><path class="cls-23" d="M311.39,191.24c0,64.29-52.11,97.32-116.39,97.32s-116.39-33-116.39-97.32a116.39,116.39,0,0,1,232.78,0Z"/><path class="cls-24" d="M311.1,191.24c0,64.13-52,97.18-116.1,97.18S78.9,255.37,78.9,191.24a116.1,116.1,0,0,1,232.2,0Z"/><path class="cls-25" d="M310.82,191.24c0,64-51.86,97-115.82,97s-115.82-33.06-115.82-97a115.82,115.82,0,0,1,231.64,0Z"/><path class="cls-26" d="M310.53,191.24c0,63.81-51.73,96.89-115.53,96.89S79.47,255.05,79.47,191.24a115.53,115.53,0,0,1,231.06,0Z"/><path class="cls-27" d="M310.24,191.24c0,63.65-51.6,96.75-115.24,96.75S79.76,254.89,79.76,191.24a115.24,115.24,0,0,1,230.48,0Z"/><path class="cls-28" d="M310,191.24c0,63.49-51.46,96.6-114.95,96.6S80.05,254.73,80.05,191.24a115,115,0,0,1,229.9,0Z"/><path class="cls-29" d="M309.66,191.24c0,63.33-51.33,96.46-114.66,96.46S80.34,254.57,80.34,191.24a114.66,114.66,0,0,1,229.32,0Z"/><path class="cls-30" d="M309.37,191.24c0,63.17-51.2,96.32-114.37,96.32S80.63,254.41,80.63,191.24a114.37,114.37,0,0,1,228.74,0Z"/><path class="cls-31" d="M309.08,191.24c0,63-51.07,96.18-114.08,96.18S80.92,254.25,80.92,191.24a114.08,114.08,0,1,1,228.16,0Z"/><path class="cls-32" d="M308.8,191.24c0,62.85-50.95,96-113.8,96s-113.8-33.18-113.8-96a113.8,113.8,0,0,1,227.6,0Z"/><path class="cls-33" d="M308.51,191.24c0,62.69-50.82,95.89-113.51,95.89S81.49,253.93,81.49,191.24a113.51,113.51,0,0,1,227,0Z"/><path class="cls-34" d="M308.22,191.24C308.22,253.77,257.53,287,195,287S81.78,253.77,81.78,191.24a113.22,113.22,0,0,1,226.44,0Z"/><path class="cls-35" d="M307.93,191.24c0,62.37-50.56,95.6-112.93,95.6S82.07,253.61,82.07,191.24a112.93,112.93,0,0,1,225.86,0Z"/><path class="cls-36" d="M307.64,191.24c0,62.21-50.43,95.46-112.64,95.46S82.36,253.45,82.36,191.24a112.64,112.64,0,0,1,225.28,0Z"/><path class="cls-37" d="M307.35,191.24c0,62.06-50.3,95.32-112.35,95.32S82.65,253.3,82.65,191.24a112.35,112.35,0,0,1,224.7,0Z"/><path class="cls-38" d="M307.06,191.24c0,61.9-50.17,95.17-112.06,95.17S82.94,253.14,82.94,191.24a112.06,112.06,0,0,1,224.12,0Z"/><path class="cls-39" d="M306.77,191.24c0,61.74-50,95-111.77,95S83.23,253,83.23,191.24a111.77,111.77,0,0,1,223.54,0Z"/><path class="cls-40" d="M306.49,191.24c0,61.58-49.92,94.89-111.49,94.89S83.51,252.82,83.51,191.24a111.49,111.49,0,0,1,223,0Z"/><path class="cls-41" d="M306.2,191.24C306.2,252.66,256.41,286,195,286S83.8,252.66,83.8,191.24a111.2,111.2,0,0,1,222.4,0Z"/><path class="cls-42" d="M305.91,191.24c0,61.26-49.66,94.6-110.91,94.6S84.09,252.5,84.09,191.24a110.91,110.91,0,0,1,221.82,0Z"/><path class="cls-43" d="M305.62,191.24c0,61.1-49.53,94.46-110.62,94.46S84.38,252.34,84.38,191.24a110.62,110.62,0,0,1,221.24,0Z"/><path class="cls-44" d="M305.33,191.24c0,60.94-49.4,94.32-110.33,94.32S84.67,252.18,84.67,191.24a110.33,110.33,0,1,1,220.66,0Z"/><path class="cls-45" d="M305,191.24c0,60.78-49.27,94.17-110,94.17S85,252,85,191.24a110,110,0,0,1,220.08,0Z"/><path class="cls-46" d="M304.75,191.24c0,60.62-49.13,94-109.75,94s-109.75-33.41-109.75-94a109.75,109.75,0,0,1,219.5,0Z"/><path class="cls-47" d="M304.47,191.24c0,60.46-49,93.89-109.47,93.89S85.53,251.7,85.53,191.24a109.47,109.47,0,0,1,218.94,0Z"/><path class="cls-48" d="M304.18,191.24C304.18,251.54,255.3,285,195,285S85.82,251.54,85.82,191.24a109.18,109.18,0,0,1,218.36,0Z"/><path class="cls-49" d="M303.89,191.24c0,60.14-48.75,93.6-108.89,93.6S86.11,251.38,86.11,191.24a108.89,108.89,0,0,1,217.78,0Z"/><path class="cls-50" d="M303.6,191.24c0,60-48.62,93.46-108.6,93.46S86.4,251.22,86.4,191.24a108.6,108.6,0,0,1,217.2,0Z"/><path class="cls-51" d="M303.31,191.24c0,59.82-48.49,93.32-108.31,93.32S86.69,251.06,86.69,191.24a108.31,108.31,0,0,1,216.62,0Z"/><path class="cls-52" d="M303,191.24c0,59.66-48.36,93.17-108,93.17S87,250.9,87,191.24a108,108,0,0,1,216,0Z"/><path class="cls-53" d="M302.73,191.24c0,59.5-48.23,93-107.73,93s-107.73-33.53-107.73-93a107.73,107.73,0,0,1,215.46,0Z"/><path class="cls-54" d="M302.44,191.24c0,59.35-48.1,92.89-107.44,92.89S87.56,250.59,87.56,191.24a107.44,107.44,0,0,1,214.88,0Z"/><path class="cls-55" d="M302.16,191.24c0,59.19-48,92.74-107.16,92.74S87.84,250.43,87.84,191.24a107.16,107.16,0,0,1,214.32,0Z"/><path class="cls-56" d="M301.87,191.24c0,59-47.85,92.6-106.87,92.6S88.13,250.27,88.13,191.24a106.87,106.87,0,0,1,213.74,0Z"/><path class="cls-57" d="M301.58,191.24c0,58.87-47.72,92.46-106.58,92.46S88.42,250.11,88.42,191.24a106.58,106.58,0,0,1,213.16,0Z"/><path class="cls-58" d="M301.29,191.24c0,58.71-47.59,92.31-106.29,92.31S88.71,250,88.71,191.24a106.29,106.29,0,0,1,212.58,0Z"/><path class="cls-59" d="M301,191.24c0,58.55-47.46,92.17-106,92.17S89,249.79,89,191.24a106,106,0,0,1,212,0Z"/><path class="cls-60" d="M300.71,191.24c0,58.39-47.33,92-105.71,92s-105.71-33.64-105.71-92a105.71,105.71,0,1,1,211.42,0Z"/><path class="cls-61" d="M300.42,191.24c0,58.23-47.2,91.88-105.42,91.88S89.58,249.47,89.58,191.24a105.42,105.42,0,0,1,210.84,0Z"/><path class="cls-62" d="M300.14,191.24C300.14,249.31,253.06,283,195,283S89.86,249.31,89.86,191.24a105.14,105.14,0,0,1,210.28,0Z"/><path class="cls-63" d="M299.85,191.24c0,57.91-46.94,91.6-104.85,91.6S90.15,249.15,90.15,191.24a104.85,104.85,0,0,1,209.7,0Z"/><path class="cls-64" d="M299.56,191.24c0,57.75-46.81,91.46-104.56,91.46S90.44,249,90.44,191.24a104.56,104.56,0,0,1,209.12,0Z"/><path class="cls-65" d="M299.27,191.24c0,57.59-46.68,91.31-104.27,91.31S90.73,248.83,90.73,191.24a104.27,104.27,0,0,1,208.54,0Z"/><path class="cls-66" d="M299,191.24c0,57.43-46.55,91.17-104,91.17S91,248.67,91,191.24a104,104,0,0,1,208,0Z"/><path class="cls-67" d="M298.69,191.24c0,57.27-46.42,91-103.69,91s-103.69-33.76-103.69-91a103.69,103.69,0,0,1,207.38,0Z"/><path class="cls-68" d="M298.4,191.24c0,57.11-46.29,90.88-103.4,90.88S91.6,248.35,91.6,191.24a103.4,103.4,0,1,1,206.8,0Z"/><path class="cls-69" d="M298.11,191.24C298.11,248.19,252,282,195,282S91.89,248.19,91.89,191.24a103.11,103.11,0,0,1,206.22,0Z"/><path class="cls-70" d="M297.83,191.24c0,56.79-46,90.6-102.83,90.6S92.17,248,92.17,191.24a102.83,102.83,0,0,1,205.66,0Z"/><path class="cls-71" d="M297.54,191.24c0,56.63-45.91,90.45-102.54,90.45S92.46,247.87,92.46,191.24a102.54,102.54,0,0,1,205.08,0Z"/><path class="cls-72" d="M297.25,191.24c0,56.48-45.78,90.31-102.25,90.31S92.75,247.72,92.75,191.24a102.25,102.25,0,0,1,204.5,0Z"/><path class="cls-73" d="M297,191.24c0,56.32-45.65,90.17-102,90.17S93,247.56,93,191.24a102,102,0,1,1,203.92,0Z"/><path class="cls-74" d="M296.67,191.24c0,56.16-45.52,90-101.67,90s-101.67-33.87-101.67-90a101.67,101.67,0,0,1,203.34,0Z"/><path class="cls-75" d="M296.38,191.24c0,56-45.39,89.88-101.38,89.88S93.62,247.24,93.62,191.24a101.38,101.38,0,0,1,202.76,0Z"/><path class="cls-76" d="M296.09,191.24C296.09,247.08,250.83,281,195,281S93.91,247.08,93.91,191.24a101.09,101.09,0,1,1,202.18,0Z"/><path class="cls-77" d="M295.81,191.24c0,55.68-45.14,89.6-100.81,89.6S94.19,246.92,94.19,191.24a100.81,100.81,0,0,1,201.62,0Z"/><path class="cls-78" d="M295.52,191.24c0,55.52-45,89.45-100.52,89.45S94.48,246.76,94.48,191.24a100.52,100.52,0,0,1,201,0Z"/><path class="cls-79" d="M295.23,191.24c0,55.36-44.88,89.31-100.23,89.31s-100.23-34-100.23-89.31a100.23,100.23,0,0,1,200.46,0Z"/><path class="cls-80" d="M294.94,191.24c0,55.2-44.74,89.17-99.94,89.17s-99.94-34-99.94-89.17a99.94,99.94,0,0,1,199.88,0Z"/><path class="cls-81" d="M294.65,191.24c0,55-44.61,89-99.65,89s-99.65-34-99.65-89a99.65,99.65,0,1,1,199.3,0Z"/><path class="cls-82" d="M294.36,191.24c0,54.88-44.48,88.88-99.36,88.88s-99.36-34-99.36-88.88a99.36,99.36,0,0,1,198.72,0Z"/><path class="cls-83" d="M294.07,191.24C294.07,246,249.72,280,195,280s-99.07-34-99.07-88.74a99.07,99.07,0,0,1,198.14,0Z"/><path class="cls-84" d="M293.78,191.24c0,54.56-44.22,88.6-98.78,88.6s-98.78-34-98.78-88.6a98.78,98.78,0,1,1,197.56,0Z"/><path class="cls-85" d="M293.5,191.24c0,54.4-44.1,88.45-98.5,88.45s-98.5-34.05-98.5-88.45a98.5,98.5,0,0,1,197,0Z"/><path class="cls-86" d="M293.21,191.24c0,54.24-44,88.31-98.21,88.31s-98.21-34.07-98.21-88.31a98.21,98.21,0,0,1,196.42,0Z"/><path class="cls-87" d="M292.92,191.24c0,54.08-43.84,88.17-97.92,88.17s-97.92-34.09-97.92-88.17a97.92,97.92,0,0,1,195.84,0Z"/><path class="cls-88" d="M292.63,191.24c0,53.92-43.71,88-97.63,88s-97.63-34.1-97.63-88a97.63,97.63,0,0,1,195.26,0Z"/><path class="cls-89" d="M292.34,191.24c0,53.77-43.58,87.88-97.34,87.88S97.66,245,97.66,191.24a97.34,97.34,0,1,1,194.68,0Z"/><path class="cls-90" d="M292.05,191.24C292.05,244.85,248.6,279,195,279s-97-34.13-97-87.74a97.05,97.05,0,0,1,194.1,0Z"/><path class="cls-91" d="M291.76,191.24c0,53.45-43.32,87.59-96.76,87.59s-96.76-34.14-96.76-87.59a96.76,96.76,0,0,1,193.52,0Z"/><path class="cls-92" d="M291.48,191.24c0,53.29-43.2,87.45-96.48,87.45s-96.48-34.16-96.48-87.45a96.48,96.48,0,0,1,193,0Z"/><path class="cls-93" d="M291.19,191.24c0,53.13-43.07,87.31-96.19,87.31s-96.19-34.18-96.19-87.31a96.19,96.19,0,0,1,192.38,0Z"/><path class="cls-94" d="M290.9,191.24c0,53-42.94,87.16-95.9,87.16s-95.9-34.19-95.9-87.16a95.9,95.9,0,0,1,191.8,0Z"/><path class="cls-95" d="M290.61,191.24c0,52.81-42.81,87-95.61,87s-95.61-34.21-95.61-87a95.61,95.61,0,0,1,191.22,0Z"/><path class="cls-96" d="M290.32,191.24c0,52.65-42.68,86.88-95.32,86.88s-95.32-34.23-95.32-86.88a95.32,95.32,0,0,1,190.64,0Z"/><path class="cls-97" d="M290,191.24c0,52.49-42.55,86.74-95,86.74s-95-34.25-95-86.74a95,95,0,1,1,190.06,0Z"/><path class="cls-98" d="M289.74,191.24c0,52.33-42.41,86.59-94.74,86.59s-94.74-34.26-94.74-86.59a94.74,94.74,0,0,1,189.48,0Z"/><path class="cls-99" d="M289.45,191.24c0,52.17-42.28,86.45-94.45,86.45s-94.45-34.28-94.45-86.45a94.45,94.45,0,0,1,188.9,0Z"/><path class="cls-100" d="M289.17,191.24c0,52-42.16,86.31-94.17,86.31s-94.17-34.3-94.17-86.31a94.17,94.17,0,0,1,188.34,0Z"/><path class="cls-101" d="M288.88,191.24c0,51.85-42,86.16-93.88,86.16s-93.88-34.31-93.88-86.16a93.88,93.88,0,0,1,187.76,0Z"/><path class="cls-102" d="M288.59,191.24c0,51.69-41.9,86-93.59,86s-93.59-34.33-93.59-86a93.59,93.59,0,0,1,187.18,0Z"/><path class="cls-103" d="M288.3,191.24c0,51.53-41.77,85.88-93.3,85.88s-93.3-34.35-93.3-85.88a93.3,93.3,0,0,1,186.6,0Z"/><path class="cls-104" d="M288,191.24c0,51.37-41.64,85.73-93,85.73s-93-34.36-93-85.73a93,93,0,0,1,186,0Z"/><path class="cls-105" d="M287.72,191.24c0,51.21-41.51,85.59-92.72,85.59s-92.72-34.38-92.72-85.59a92.72,92.72,0,0,1,185.44,0Z"/><path class="cls-106" d="M287.43,191.24c0,51-41.38,85.45-92.43,85.45s-92.43-34.4-92.43-85.45a92.43,92.43,0,0,1,184.86,0Z"/><path class="cls-107" d="M287.15,191.24c0,50.9-41.26,85.31-92.15,85.31s-92.15-34.41-92.15-85.31a92.15,92.15,0,0,1,184.3,0Z"/><path class="cls-108" d="M286.86,191.24c0,50.74-41.13,85.16-91.86,85.16S103.14,242,103.14,191.24a91.86,91.86,0,0,1,183.72,0Z"/><path class="cls-109" d="M286.57,191.24c0,50.58-41,85-91.57,85s-91.57-34.44-91.57-85a91.57,91.57,0,0,1,183.14,0Z"/><path class="cls-110" d="M286.28,191.24c0,50.42-40.87,84.88-91.28,84.88s-91.28-34.46-91.28-84.88a91.28,91.28,0,0,1,182.56,0Z"/><path class="cls-111" d="M286,191.24C286,241.5,245.25,276,195,276s-91-34.47-91-84.73a91,91,0,0,1,182,0Z"/><path class="cls-112" d="M285.7,191.24c0,50.1-40.61,84.59-90.7,84.59s-90.7-34.49-90.7-84.59a90.7,90.7,0,0,1,181.4,0Z"/><path class="cls-113" d="M285.41,191.24c0,49.94-40.48,84.45-90.41,84.45s-90.41-34.51-90.41-84.45a90.41,90.41,0,0,1,180.82,0Z"/><path class="cls-114" d="M285.12,191.24c0,49.78-40.35,84.3-90.12,84.3s-90.12-34.52-90.12-84.3a90.12,90.12,0,0,1,180.24,0Z"/><path class="cls-115" d="M284.84,191.24c0,49.62-40.22,84.16-89.84,84.16s-89.84-34.54-89.84-84.16a89.84,89.84,0,0,1,179.68,0Z"/><path class="cls-116" d="M284.55,191.24c0,49.46-40.09,84-89.55,84s-89.55-34.56-89.55-84a89.55,89.55,0,0,1,179.1,0Z"/><path class="cls-117" d="M284.26,191.24c0,49.3-40,83.88-89.26,83.88s-89.26-34.58-89.26-83.88a89.26,89.26,0,0,1,178.52,0Z"/><path class="cls-118" d="M284,191.24c0,49.14-39.83,83.73-89,83.73s-89-34.59-89-83.73a89,89,0,0,1,177.94,0Z"/><path class="cls-119" d="M283.68,191.24c0,49-39.7,83.59-88.68,83.59s-88.68-34.61-88.68-83.59a88.68,88.68,0,0,1,177.36,0Z"/><path class="cls-120" d="M283.39,191.24c0,48.82-39.57,83.45-88.39,83.45s-88.39-34.63-88.39-83.45a88.39,88.39,0,1,1,176.78,0Z"/><path class="cls-121" d="M283.1,191.24c0,48.66-39.44,83.3-88.1,83.3s-88.1-34.64-88.1-83.3a88.1,88.1,0,0,1,176.2,0Z"/><path class="cls-122" d="M282.82,191.24c0,48.5-39.32,83.16-87.82,83.16s-87.82-34.66-87.82-83.16a87.82,87.82,0,0,1,175.64,0Z"/><path class="cls-123" d="M282.53,191.24c0,48.34-39.19,83-87.53,83s-87.53-34.68-87.53-83a87.53,87.53,0,0,1,175.06,0Z"/><path class="cls-124" d="M282.24,191.24c0,48.19-39.06,82.87-87.24,82.87s-87.24-34.68-87.24-82.87a87.24,87.24,0,0,1,174.48,0Z"/><path class="cls-125" d="M282,191.24C282,239.27,243,274,195,274s-86.95-34.7-86.95-82.73a87,87,0,0,1,173.9,0Z"/><path class="cls-126" d="M281.66,191.24c0,47.87-38.8,82.59-86.66,82.59s-86.66-34.72-86.66-82.59a86.66,86.66,0,0,1,173.32,0Z"/><path class="cls-127" d="M281.37,191.24c0,47.71-38.67,82.45-86.37,82.45S108.63,239,108.63,191.24a86.37,86.37,0,0,1,172.74,0Z"/><path class="cls-128" d="M281.08,191.24c0,47.55-38.54,82.3-86.08,82.3s-86.08-34.75-86.08-82.3a86.08,86.08,0,1,1,172.16,0Z"/><path class="cls-129" d="M280.79,191.24c0,47.39-38.41,82.16-85.79,82.16s-85.79-34.77-85.79-82.16a85.79,85.79,0,0,1,171.58,0Z"/><path class="cls-130" d="M280.51,191.24c0,47.23-38.29,82-85.51,82s-85.51-34.79-85.51-82a85.51,85.51,0,0,1,171,0Z"/><path class="cls-131" d="M280.22,191.24c0,47.07-38.16,81.87-85.22,81.87s-85.22-34.8-85.22-81.87a85.22,85.22,0,0,1,170.44,0Z"/><path class="cls-132" d="M279.93,191.24c0,46.91-38,81.73-84.93,81.73s-84.93-34.82-84.93-81.73a84.93,84.93,0,0,1,169.86,0Z"/><path class="cls-133" d="M279.64,191.24c0,46.75-37.89,81.59-84.64,81.59S110.36,238,110.36,191.24a84.64,84.64,0,1,1,169.28,0Z"/><path class="cls-134" d="M279.35,191.24c0,46.59-37.76,81.44-84.35,81.44s-84.35-34.85-84.35-81.44a84.35,84.35,0,0,1,168.7,0Z"/><path class="cls-135" d="M279.06,191.24c0,46.43-37.63,81.3-84.06,81.3s-84.06-34.87-84.06-81.3a84.06,84.06,0,0,1,168.12,0Z"/><path class="cls-136" d="M278.77,191.24c0,46.27-37.5,81.16-83.77,81.16s-83.77-34.89-83.77-81.16a83.77,83.77,0,1,1,167.54,0Z"/><path class="cls-137" d="M278.49,191.24c0,46.11-37.38,81-83.49,81s-83.49-34.9-83.49-81a83.49,83.49,0,0,1,167,0Z"/><path class="cls-138" d="M278.2,191.24c0,45.95-37.25,80.87-83.2,80.87s-83.2-34.92-83.2-80.87a83.2,83.2,0,0,1,166.4,0Z"/><path class="cls-139" d="M277.91,191.24C277.91,237,240.79,272,195,272S112.09,237,112.09,191.24a82.91,82.91,0,0,1,165.82,0Z"/><path class="cls-140" d="M277.62,191.24c0,45.63-37,80.59-82.62,80.59s-82.62-35-82.62-80.59a82.62,82.62,0,0,1,165.24,0Z"/><path class="cls-141" d="M277.33,191.24c0,45.48-36.86,80.44-82.33,80.44s-82.33-35-82.33-80.44a82.33,82.33,0,1,1,164.66,0Z"/><path class="cls-142" d="M277,191.24c0,45.32-36.73,80.3-82,80.3s-82-35-82-80.3a82,82,0,0,1,164.08,0Z"/><path class="cls-143" d="M276.75,191.24c0,45.16-36.6,80.16-81.75,80.16s-81.75-35-81.75-80.16a81.75,81.75,0,0,1,163.5,0Z"/><path class="cls-144" d="M276.47,191.24c0,45-36.48,80-81.47,80s-81.47-35-81.47-80a81.47,81.47,0,0,1,162.94,0Z"/><path class="cls-145" d="M276.18,191.24c0,44.84-36.35,79.87-81.18,79.87s-81.18-35-81.18-79.87a81.18,81.18,0,0,1,162.36,0Z"/><path class="cls-146" d="M275.89,191.24c0,44.68-36.22,79.73-80.89,79.73s-80.89-35.05-80.89-79.73a80.89,80.89,0,0,1,161.78,0Z"/><path class="cls-147" d="M275.6,191.24c0,44.52-36.09,79.58-80.6,79.58s-80.6-35.06-80.6-79.58a80.6,80.6,0,0,1,161.2,0Z"/><path class="cls-148" d="M275.31,191.24c0,44.36-36,79.44-80.31,79.44s-80.31-35.08-80.31-79.44a80.31,80.31,0,0,1,160.62,0Z"/><path class="cls-149" d="M275,191.24c0,44.2-35.83,79.3-80,79.3s-80-35.1-80-79.3a80,80,0,1,1,160,0Z"/><path class="cls-150" d="M274.73,191.24c0,44-35.69,79.16-79.73,79.16s-79.73-35.12-79.73-79.16a79.73,79.73,0,0,1,159.46,0Z"/><path class="cls-151" d="M274.44,191.24A79.44,79.44,0,1,1,195,111.8,79.07,79.07,0,0,1,274.44,191.24Z"/><path class="cls-152" d="M274.16,191.24A79.16,79.16,0,1,1,195,112.09,78.91,78.91,0,0,1,274.16,191.24Z"/><path class="cls-153" d="M273.87,191.24A78.87,78.87,0,1,1,195,112.38,78.75,78.75,0,0,1,273.87,191.24Z"/><circle class="cls-2" cx="195" cy="191.24" r="78.58"/><path class="cls-154" d="M289.48,119.66l-4.23-1.75-14.08-5.84-1.77-.74L265,109.5a5.64,5.64,0,0,0-4.29,0,5.64,5.64,0,0,0-3-3l-7-2.93h0l-20-8.33a5.79,5.79,0,0,0-4.31,0,5.66,5.66,0,0,0-3-3l-8.67-3.6-.05,0-17.32-7.2a5.85,5.85,0,0,0-1.53-.4,5.65,5.65,0,0,0-1.3,0,5.78,5.78,0,0,0-1.52.4l-17.33,7.2-.05,0-36,15h0l-18.8,7.8-1.77.74-14.07,5.84-4.23,1.76A5.68,5.68,0,0,0,97,124.9v79.84a5.58,5.58,0,0,0,.18,1.42,5.68,5.68,0,0,0,3.31,3.81l.64.26-.63.27a5.65,5.65,0,0,0-3.5,5.23V248.5a5.65,5.65,0,0,0,3.5,5.23l4.27,1.77,10,4.14h29.56l-34.17-14.19-1.78-.74V219.52l1.73-.72,8-3.33a5.62,5.62,0,0,0,3.06-3.07,5.42,5.42,0,0,0,.44-2.16,5.68,5.68,0,0,0-3.5-5.24L108.36,201V128.68l1.72-.71h0L195,92.7l18.64,7.75,1.73.72v2.31a5.47,5.47,0,0,0,.44,2.17h0a5.67,5.67,0,0,0,7.4,3.06l5.19-2.15,19.69,8.18,1.71.71v2.32a5.64,5.64,0,0,0,.43,2.17h0a5.66,5.66,0,0,0,7.41,3.06l5.16-2.15L279.9,128h0l1.72.71v116l-1.78.74-14.06,5.84-17.44-7.24V224.39a5.54,5.54,0,0,0-.44-2.17,5.64,5.64,0,0,0-7.41-3.06l-26,10.8A5.67,5.67,0,0,0,211,235.2v24.44h11.34V239L237,232.89v14.94a5.68,5.68,0,0,0,3.5,5.24l15.83,6.57,7.27,3a5.66,5.66,0,0,0,4.35,0l1.41-.58,1.68-.7,4.18-1.74,10-4.14,4.27-1.77a5.65,5.65,0,0,0,3.5-5.23V124.9A5.68,5.68,0,0,0,289.48,119.66ZM120.62,262.08l.54-1.5-2.22.8Z"/><path class="cls-2" d="M287.31,124.9,195,163.23,102.69,124.9,195,86.57l26,10.82-70.27,29.18,7.34,3.05,70.28-29.18h0l27.08,11.24-70.28,29.19,7.35,3,70.28-29.19Z"/><path class="cls-1" d="M221,103.49l-62.93,26.13-7.34-3.05L221,97.39Z"/><path class="cls-1" d="M255.47,117.78l-62.93,26.14-7.35-3,70.28-29.19Z"/><path class="cls-155" d="M172.72,233.82v11l-70-29.08,13.24-5.49Z"/><path class="cls-1" d="M124.6,168.38v11L195,208.61v51H129.52l-22.06-9.16-4.77-2V215.73l7.4,3.07,62.63,26v-11L121.16,212.4l-5.23-2.17-13.24-5.49V124.9l7.39,3.07h0L195,163.23v34.39l-.69-.29-.24-.1-2.83-1.17-.73-.3-4.09-1.7-.75-.31-.27-.11-1.27-.53-7.76-3.23-2.71-1.13L163,184.33l-2.07-.87-1.45-.6-2.51-1-9.63-4-2.48-1L142,175.61l-4.19-1.74-.1,0-3.18-1.32L131,171.06l-3.12-1.3Z"/><path class="cls-156" d="M137.83,173.88l-13.23,5.49v-11Z"/><path class="cls-155" d="M195,197.62v11l-70.4-29.23h0l13.23-5.49Z"/><path class="cls-157" d="M279.92,128h0L195,163.23v96.41h21.68V235.19l26-10.8,5.23-2.17,17.88-7.43v42.64l16.74-7,4.77-2V124.9ZM216.68,199.6V188.74c1-.4,1.94-.81,2.94-1.21l2.81-1.18,12.41-5.15,3.2-1.33,4.83-2,9.62-4,4.56-1.89,1.52-.63,7.23-3V179.2Z"/><path class="cls-156" d="M265.8,168.35v10.86l-13.31-5.33Z"/><path class="cls-155" d="M265.8,179.21l-49.12,20.4V188.75l35.81-14.87Z"/><path class="cls-155" d="M265.8,214.8v42.63l-23.11-9.6V224.4Z"/><path class="cls-154" d="M379,293.3l-7.3-10.48A27.13,27.13,0,0,0,379,263.87c0-17.3-12.79-29.38-31.11-29.38H324.75a8.43,8.43,0,0,0-5,1.62,8.43,8.43,0,0,0-5-1.62H274.92a8.49,8.49,0,0,0-6.08,2.56,8.45,8.45,0,0,0-6.07-2.56h-9.34a8.51,8.51,0,0,0-7.32,4.16l-12.78,21.51-12.78-21.51a8.5,8.5,0,0,0-7.31-4.16h-9.81a8.49,8.49,0,0,0-6.47,3,8.47,8.47,0,0,0-6.47-3h-9.34a8.5,8.5,0,0,0-7.31,4.16l-12.78,21.51-12.78-21.51a8.5,8.5,0,0,0-7.31-4.16h-9.81a8.48,8.48,0,0,0-5.73,2.22,8.44,8.44,0,0,0-5.72-2.22h-15a8.5,8.5,0,0,0-8.51,8.5v31.63c0,2.4-.78,2.4-2.09,2.4s-1.85,0-1.85-2.4V243a8.5,8.5,0,0,0-8.51-8.5h-15a8.49,8.49,0,0,0-7.35,4.24,42.6,42.6,0,0,0-20.58-4.95c-17.76,0-30.17,10.63-30.17,25.85,0,7.08,2.43,12.12,6.06,15.81-.11.16-.21.32-.31.49l-7,11.77a8.51,8.51,0,0,0,2.33,11.23A45.38,45.38,0,0,0,39,307.37c12.74,0,22.32-5.08,26.94-13.63,5.75,8.62,15.62,13.63,28.22,13.63,11.89,0,21.35-4.39,27.27-12l-.07,2.62a8.52,8.52,0,0,0,8.51,8.71H144.5a8.51,8.51,0,0,0,7.88-5.3,8.55,8.55,0,0,0,3.81.9h9.11a8.6,8.6,0,0,0,4-1,8.51,8.51,0,0,0,7.92,5.4H191.9A8.53,8.53,0,0,0,197,305a8.55,8.55,0,0,0,5.1,1.71h14.68a8.49,8.49,0,0,0,7.87-5.3,8.59,8.59,0,0,0,3.82.9h9.1a8.57,8.57,0,0,0,4-1,8.51,8.51,0,0,0,7.92,5.4h14.68a8.5,8.5,0,0,0,5.37-1.92,8.43,8.43,0,0,0,5.37,1.92h40a8.49,8.49,0,0,0,4.9-1.57,8.46,8.46,0,0,0,4.9,1.57h14.68a8.5,8.5,0,0,0,7.69-4.87l.6.94a8.52,8.52,0,0,0,7.17,3.93H372a8.5,8.5,0,0,0,7-13.37ZM142.46,264.58a8.42,8.42,0,0,0-3.36,1.73l.23-9.43,4.43,7.47A8.66,8.66,0,0,0,142.46,264.58Zm36.71-.4-.63-.14,3.82-6.43.21,8.32A8.61,8.61,0,0,0,179.17,264.18Zm35.57.4a8.29,8.29,0,0,0-3.36,1.73l.22-9.43,4.44,7.47A8.23,8.23,0,0,0,214.74,264.58Zm36.7-.4-.63-.14,3.82-6.43.22,8.32A8.65,8.65,0,0,0,251.44,264.18Zm32,6.8v-1.43a8,8,0,0,0,.72.71A9.78,9.78,0,0,0,283.43,271Zm49.83,7.21v-.78l.39.39A3.59,3.59,0,0,0,333.26,278.19Z"/><path class="cls-158" d="M16.74,287.81l7-11.77c5.18,4,9.5,5.81,16.25,5.81,3.61,0,5.57-1.41,5.57-3.85,0-2.82-2-3.92-9.81-6.2-11.93-3.53-16.56-8.08-16.56-16.4,0-10.52,8.55-17.34,21.66-17.34a33.77,33.77,0,0,1,20,6l-6.28,11.22a26.13,26.13,0,0,0-14-4.47c-4.08,0-6.2,1.1-6.2,3.37,0,2.12,1.5,3.07,9.58,5.5,11.61,3.45,16.56,8.55,16.56,16.95,0,11.38-7.85,18-21.5,18A37,37,0,0,1,16.74,287.81Z"/><path class="cls-158" d="M68.77,269.21V238.76h15v31.63c0,5.1,2.59,10.91,10.36,10.91s10.6-5.81,10.6-10.91V238.76h15v30.45c0,16.8-10.21,25.43-25.59,25.43C79,294.64,68.77,286,68.77,269.21Z"/><path class="cls-158" d="M177.23,293.94l-.16-25.75L165.3,289.54h-9.11l-11.61-21-.08,25.35H129.83l1.33-55.18H141l20.09,33.83,20.09-33.83h9.34l1.41,55.18Z"/><path class="cls-158" d="M249.5,293.94l-.15-25.75-11.78,21.35h-9.1l-11.62-21-.07,25.35H202.1l1.33-55.18h9.81l20.09,33.83,20.1-33.83h9.34l1.41,55.18Z"/><path class="cls-158" d="M315,281v12.95h-40V238.76h39.87v13h-25v7.85h22v12.79h-22V281Z"/><path class="cls-158" d="M345.86,279.81h-6.43v14.13H324.75V238.76H347.9c14.21,0,22.61,9,22.61,20.88a18.83,18.83,0,0,1-10.44,17.19L372,293.94H354.89Zm-6.43-12.48h7.3c5.41,0,8.79-3.45,8.79-7.85,0-4.63-3.22-8.24-9-8.24h-7.06Z"/><path class="cls-159" d="M372,293.93H354.88l-9-14.12h-6.43v14.12H324.75v-19.2c7.72,1.19,14.86,2.46,21.36,3.83h0c6.87,1.44,13,3,18.37,4.61h0Z"/><path class="cls-160" d="M60.46,276.67c0,11.38-7.85,18-21.5,18a36.92,36.92,0,0,1-22.22-6.83L18,285.75a144.11,144.11,0,0,1,15.2-4.7,26.24,26.24,0,0,0,6.8.79c3.5,0,5.46-1.32,5.57-3.62,4.65-1,9.62-1.85,14.88-2.71C60.45,275.89,60.46,276.28,60.46,276.67Z"/><path class="cls-161" d="M119.7,268.9v.32c0,16.79-10.19,25.42-25.58,25.42-13.57,0-23.18-6.93-25-20.47,4.74-.67,9.66-1.32,14.77-1.92.59,4.55,3.42,9.05,10.25,9.05,7.85,0,10.6-5.81,10.6-10.91v-.28C109.59,269.66,114.6,269.27,119.7,268.9Z"/><path class="cls-162" d="M191.91,293.93H177.23l-.16-25.74L165.3,289.54h-9.1l-11.62-21-.08,25.35H129.82l.63-25.73c4.61-.27,9.32-.51,14.08-.74q6.5-.3,13.18-.5l3.35,5.63,3.46-5.83c4.13-.12,8.32-.21,12.53-.28q7-.11,14.15-.12Z"/><path class="cls-163" d="M264.18,293.93H249.5l-.16-25.74-11.77,21.35h-9.1l-11.62-21-.07,25.35H202.1l.67-27.55q7.13,0,14.12.18h0c4.39.07,8.74.19,13,.31l3.4,5.72,3.25-5.48c4.32.14,8.57.33,12.77.53h0q7.2.36,14.15.81Z"/><path class="cls-164" d="M315,281v12.94h-40V269.24c11.59.89,22.57,1.95,32.8,3.19h-18V281Z"/><path class="cls-154" d="M210.43,340.34a14.43,14.43,0,1,0,14.44,14.43A14.42,14.42,0,0,0,210.43,340.34Zm2.89,22.13h-2.93V351.39a10.39,10.39,0,0,1-3.81,2.23V351a8.18,8.18,0,0,0,2.51-1.43,5.42,5.42,0,0,0,1.85-2.45h2.38Z"/><path class="cls-3" d="M213.32,347.07v15.4h-2.93V351.39a10.39,10.39,0,0,1-3.81,2.23V351a8.18,8.18,0,0,0,2.51-1.43,5.42,5.42,0,0,0,1.85-2.45Z"/><path class="cls-154" d="M181.22,351.13a2.67,2.67,0,0,0-.67-1.32,1.34,1.34,0,0,0-.91-.34,1.41,1.41,0,0,0-.93.34,2.27,2.27,0,0,0-.62,1.19,17.06,17.06,0,0,0-.3,3.77,16.85,16.85,0,0,0,.27,3.65,2.71,2.71,0,0,0,.66,1.33,1.46,1.46,0,0,0,.92.33,1.43,1.43,0,0,0,.92-.34,2.28,2.28,0,0,0,.62-1.2,16.87,16.87,0,0,0,.3-3.77A17.77,17.77,0,0,0,181.22,351.13Zm0,0a2.67,2.67,0,0,0-.67-1.32,1.34,1.34,0,0,0-.91-.34,1.41,1.41,0,0,0-.93.34,2.27,2.27,0,0,0-.62,1.19,17.06,17.06,0,0,0-.3,3.77,16.85,16.85,0,0,0,.27,3.65,2.71,2.71,0,0,0,.66,1.33,1.46,1.46,0,0,0,.92.33,1.43,1.43,0,0,0,.92-.34,2.28,2.28,0,0,0,.62-1.2,16.87,16.87,0,0,0,.3-3.77A17.77,17.77,0,0,0,181.22,351.13Zm-1.58-10.79a14.43,14.43,0,1,0,14.43,14.43A14.43,14.43,0,0,0,179.64,340.34ZM183,360.93a4,4,0,0,1-3.35,1.54,4.24,4.24,0,0,1-3.5-1.7c-.87-1.12-1.32-3.14-1.32-6s.49-4.88,1.46-6.13a4.42,4.42,0,0,1,6.72,0c1,1.24,1.45,3.29,1.45,6.14S184,359.67,183,360.93Zm-2.44-11.12a1.34,1.34,0,0,0-.91-.34,1.41,1.41,0,0,0-.93.34,2.27,2.27,0,0,0-.62,1.19,17.06,17.06,0,0,0-.3,3.77,16.85,16.85,0,0,0,.27,3.65,2.71,2.71,0,0,0,.66,1.33,1.46,1.46,0,0,0,.92.33,1.43,1.43,0,0,0,.92-.34,2.28,2.28,0,0,0,.62-1.2,16.87,16.87,0,0,0,.3-3.77,17.77,17.77,0,0,0-.26-3.64A2.67,2.67,0,0,0,180.55,349.81Z"/><path class="cls-3" d="M183,348.63a4.42,4.42,0,0,0-6.72,0c-1,1.25-1.46,3.3-1.46,6.13s.45,4.91,1.32,6a4.24,4.24,0,0,0,3.5,1.7,4,4,0,0,0,3.35-1.54q1.45-1.89,1.46-6.16C184.45,351.92,184,349.87,183,348.63Zm-1.82,9.91a2.28,2.28,0,0,1-.62,1.2,1.43,1.43,0,0,1-.92.34,1.46,1.46,0,0,1-.92-.33,2.71,2.71,0,0,1-.66-1.33,16.85,16.85,0,0,1-.27-3.65,17.06,17.06,0,0,1,.3-3.77,2.27,2.27,0,0,1,.62-1.19,1.41,1.41,0,0,1,.93-.34,1.34,1.34,0,0,1,.91.34,2.67,2.67,0,0,1,.67,1.32,17.77,17.77,0,0,1,.26,3.64A16.87,16.87,0,0,1,181.18,358.54Z"/><path class="cls-154" d="M148.84,340.34a14.43,14.43,0,1,0,14.44,14.43A14.43,14.43,0,0,0,148.84,340.34Zm4.81,19.4v2.73H144a7.69,7.69,0,0,1,.94-2.93,19,19,0,0,1,3.09-3.68,19.65,19.65,0,0,0,2.28-2.52,3.41,3.41,0,0,0,.56-1.79,2.16,2.16,0,0,0-.48-1.51,2,2,0,0,0-2.74,0,3,3,0,0,0-.58,1.84l-2.74-.29a5,5,0,0,1,1.53-3.48,4.91,4.91,0,0,1,3.23-1.06,4.54,4.54,0,0,1,3.34,1.22,4.19,4.19,0,0,1,1.2,3,5.68,5.68,0,0,1-.35,2,7.68,7.68,0,0,1-1.1,2,17.84,17.84,0,0,1-1.79,2c-.87.86-1.42,1.42-1.65,1.7a5.44,5.44,0,0,0-.56.82Z"/><path class="cls-3" d="M148.2,359.74h5.45v2.73H144a7.69,7.69,0,0,1,.94-2.93,19,19,0,0,1,3.09-3.68,19.65,19.65,0,0,0,2.28-2.52,3.41,3.41,0,0,0,.56-1.79,2.16,2.16,0,0,0-.48-1.51,2,2,0,0,0-2.74,0,3,3,0,0,0-.58,1.84l-2.74-.29a5,5,0,0,1,1.53-3.48,4.91,4.91,0,0,1,3.23-1.06,4.54,4.54,0,0,1,3.34,1.22,4.19,4.19,0,0,1,1.2,3,5.68,5.68,0,0,1-.35,2,7.68,7.68,0,0,1-1.1,2,17.84,17.84,0,0,1-1.79,2c-.87.86-1.42,1.42-1.65,1.7A5.44,5.44,0,0,0,148.2,359.74Z"/><path class="cls-154" d="M243,352.41a3,3,0,0,1-.55,1.93,1.68,1.68,0,0,1-1.34.66,1.7,1.7,0,0,1-1.38-.69,3.43,3.43,0,0,1-.55-2.14,3.31,3.31,0,0,1,.51-2.07,1.57,1.57,0,0,1,1.27-.63,1.79,1.79,0,0,1,1.42.77A3.38,3.38,0,0,1,243,352.41Z"/><path class="cls-154" d="M241.24,340.34a14.43,14.43,0,1,0,14.43,14.43A14.43,14.43,0,0,0,241.24,340.34Zm3.35,20.3a4.67,4.67,0,0,1-3.82,1.83,4,4,0,0,1-2.73-.94,4.62,4.62,0,0,1-1.33-2.81l2.67-.31a2,2,0,0,0,.51,1.26,1.45,1.45,0,0,0,1.09.41,1.75,1.75,0,0,0,1.45-.82,7.21,7.21,0,0,0,.77-3.41,3.23,3.23,0,0,1-2.6,1.26,3.83,3.83,0,0,1-2.94-1.37,5.84,5.84,0,0,1,.07-7.26,4.33,4.33,0,0,1,3.32-1.41,4.41,4.41,0,0,1,3.6,1.78q1.4,1.77,1.4,5.83T244.59,360.64Z"/><path class="cls-3" d="M244.65,348.85a4.41,4.41,0,0,0-3.6-1.78,4.33,4.33,0,0,0-3.32,1.41,5.84,5.84,0,0,0-.07,7.26,3.83,3.83,0,0,0,2.94,1.37,3.23,3.23,0,0,0,2.6-1.26,7.21,7.21,0,0,1-.77,3.41,1.75,1.75,0,0,1-1.45.82,1.45,1.45,0,0,1-1.09-.41,2,2,0,0,1-.51-1.26l-2.67.31a4.62,4.62,0,0,0,1.33,2.81,4,4,0,0,0,2.73.94,4.67,4.67,0,0,0,3.82-1.83q1.46-1.83,1.46-6T244.65,348.85Zm-2.24,5.49a1.68,1.68,0,0,1-1.34.66,1.7,1.7,0,0,1-1.38-.69,3.43,3.43,0,0,1-.55-2.14,3.31,3.31,0,0,1,.51-2.07,1.57,1.57,0,0,1,1.27-.63,1.79,1.79,0,0,1,1.42.77,3.38,3.38,0,0,1,.62,2.17A3,3,0,0,1,242.41,354.34Z"/></g><g id="Calque_27" data-name="Calque 27"><path class="cls-154" d="M127.79,334.49a2,2,0,0,1-2-2v-9.6l-.59.21a2,2,0,0,1-.69.12,2,2,0,0,1-1.86-1.28l-1.45-3.78a2,2,0,0,1,1.14-2.58l6.55-2.52a2,2,0,0,1,.72-.14h2.8a2,2,0,0,1,2,2v17.57a2,2,0,0,1-2,2Z"/><path class="cls-154" d="M132.41,314.92v17.57h-4.62V320l-3.28,1.2-1.45-3.77,6.55-2.53h2.8m0-4h-2.8a4,4,0,0,0-1.44.27l-6.55,2.53a4,4,0,0,0-2.29,5.16l1.45,3.78a4,4,0,0,0,3,2.5v7.33a4,4,0,0,0,4,4h4.62a4,4,0,0,0,4-4V314.92a4,4,0,0,0-4-4Z"/><path class="cls-154" d="M139,335a2,2,0,0,1-1.73-1l-1.85-3.18a2,2,0,0,1,1-2.86l.46-.18a7.42,7.42,0,0,1-3.9-6.84c0-4.76,3.63-8.22,8.62-8.22,5.38,0,8.87,3.38,8.9,8.61,0,6.09-3.9,11-10.79,13.54A2,2,0,0,1,139,335Zm2.65-14.55c-.45,0-.45.1-.45.33s0,.32.45.32.52-.08.54-.11a.47.47,0,0,0,0-.21.49.49,0,0,0,0-.22A1,1,0,0,0,141.69,320.42Z"/><path class="cls-154" d="M141.61,314.7c4.28,0,6.88,2.55,6.9,6.62,0,4.95-3,9.27-9.47,11.65l-1.85-3.18c3.25-1.32,5-2.39,6-3.74a4.55,4.55,0,0,1-2.35.62,5.45,5.45,0,0,1-5.82-5.75c0-3.65,2.77-6.22,6.62-6.22m.08,8.37a2.34,2.34,0,1,0,0-4.65,2.33,2.33,0,1,0,0,4.65m-.08-12.37c-6.05,0-10.62,4.39-10.62,10.22a9.65,9.65,0,0,0,2.71,6.92,4,4,0,0,0,0,4l1.85,3.17a4,4,0,0,0,3.46,2,4.08,4.08,0,0,0,1.37-.24c7.72-2.83,12.14-8.45,12.1-15.43,0-6.34-4.42-10.6-10.9-10.6Z"/><rect class="cls-154" x="154.09" y="322.7" width="11.32" height="7.42" rx="2" ry="2"/><path class="cls-154" d="M163.41,324.7v3.42h-7.32V324.7h7.32m0-4h-7.32a4,4,0,0,0-4,4v3.42a4,4,0,0,0,4,4h7.32a4,4,0,0,0,4-4V324.7a4,4,0,0,0-4-4Z"/><path class="cls-154" d="M171.29,334.49a2,2,0,0,1-2-2v-2.55a2,2,0,0,1,.88-1.65,34.72,34.72,0,0,0,5.26-4.39,3.82,3.82,0,0,0,1.08-2.31c0-.36,0-.79-1.12-.79a4.12,4.12,0,0,0-2.2.52,2,2,0,0,1-1.05.3,2.05,2.05,0,0,1-.65-.1,2,2,0,0,1-1.22-1.19l-1.38-3.65a2,2,0,0,1,.75-2.36,12.6,12.6,0,0,1,6.52-1.62c5.5,0,9.05,3.19,9.05,8.12a11,11,0,0,1-1.57,5.63h0a2,2,0,0,1,2,2v4a2,2,0,0,1-2,2Z"/><path class="cls-154" d="M176.16,314.7c4.25,0,7.05,2.22,7.05,6.12a9,9,0,0,1-3.3,6.92,7.14,7.14,0,0,1-1.07.71h4.82v4H171.29v-2.55a35.17,35.17,0,0,0,5.62-4.69,5.68,5.68,0,0,0,1.6-3.7c0-1.58-1-2.75-3.12-2.75a6,6,0,0,0-3.25.82L170.76,316a11,11,0,0,1,5.4-1.27m0-4a14.68,14.68,0,0,0-7.64,2,4,4,0,0,0-1.5,4.72l1.37,3.65a4,4,0,0,0,3.75,2.59,4,4,0,0,0,.84-.09,36.89,36.89,0,0,1-3.93,3.1,4,4,0,0,0-1.76,3.31v2.55a4,4,0,0,0,4,4h12.37a4,4,0,0,0,4-4v-4a4,4,0,0,0-1.33-3,12.89,12.89,0,0,0,.88-4.65c0-6.05-4.44-10.12-11.05-10.12Z"/><path class="cls-154" d="M192.61,334.69c-6.49,0-8.8-3.68-8.8-7.12a6.81,6.81,0,0,1,1.54-4.45,6.27,6.27,0,0,1-1-3.47c0-4.09,3.39-6.95,8.25-6.95s8.3,2.86,8.3,6.95a6.34,6.34,0,0,1-1,3.49,6.67,6.67,0,0,1,1.42,4.28C201.33,331.77,197.83,334.69,192.61,334.69Z"/><path class="cls-154" d="M192.61,314.7c3.85,0,6.3,2.05,6.3,4.95a4.11,4.11,0,0,1-1.93,3.62,4.44,4.44,0,0,1,2.35,4.15c0,3.17-2.62,5.27-6.72,5.27-4.42,0-6.8-1.9-6.8-5.12a4.65,4.65,0,0,1,2.48-4.3,4.11,4.11,0,0,1-1.93-3.62c0-2.9,2.45-4.95,6.25-4.95m0,7a1.81,1.81,0,1,0,0-3.6,1.8,1.8,0,1,0,0,3.6m0,7.37c1.38,0,2.27-.77,2.27-1.89s-.89-1.88-2.27-1.88-2.35.78-2.35,1.88.9,1.89,2.35,1.89m0-18.34c-5.94,0-10.25,3.76-10.25,8.95A8.72,8.72,0,0,0,183,323a9,9,0,0,0-1.2,4.58c0,4.21,2.83,9.12,10.8,9.12,6.31,0,10.72-3.81,10.72-9.27a9,9,0,0,0-1.09-4.39,8.57,8.57,0,0,0,.67-3.38c0-5.19-4.33-8.95-10.3-8.95Z"/><path class="cls-154" d="M209.39,334.72c-3.32,0-5.26-1.05-5.83-1.6a2,2,0,0,1-.44-2.21l1.83-4.3a2,2,0,0,1,1.26-1.13,1.93,1.93,0,0,1,.58-.08,2,2,0,0,1,1.11.33,1.55,1.55,0,0,0,1,.26.89.89,0,0,0,.49-.09l0-11a2,2,0,0,1,2-2h4.77a2,2,0,0,1,2,2V326.1A8.37,8.37,0,0,1,209.39,334.72Z"/><path class="cls-154" d="M216.08,314.92V326.1a6.34,6.34,0,0,1-6.69,6.62c-3.08,0-4.4-1-4.43-1l1.83-4.29a3.58,3.58,0,0,0,2.07.59c1.6,0,2.45-.92,2.45-2V314.92h4.77m0-4h-4.77a4,4,0,0,0-4,4v8.51a4.53,4.53,0,0,0-.52,0,4.09,4.09,0,0,0-1.15.16,4,4,0,0,0-2.53,2.27l-1.83,4.3a4,4,0,0,0,.88,4.42c1,1,3.53,2.17,7.23,2.17a10.3,10.3,0,0,0,10.69-10.62V314.92a4,4,0,0,0-4-4Z"/><path class="cls-154" d="M227.41,334.72c-6.21,0-10.07-3.87-10.07-10.1v-9.7a2,2,0,0,1,2-2h4.77a2,2,0,0,1,2,2V325c0,1.47.85,1.47,1.3,1.47s1.37,0,1.37-1.47V314.92a2,2,0,0,1,2-2h4.78a2,2,0,0,1,2,2v9.7C237.56,330.85,233.67,334.72,227.41,334.72Z"/><path class="cls-154" d="M235.56,314.92v9.7c0,5.35-3.25,8.1-8.15,8.1s-8.07-2.75-8.07-8.1v-9.7h4.77V325a3.16,3.16,0,0,0,3.3,3.47,3.2,3.2,0,0,0,3.37-3.47V314.92h4.78m0-4h-4.78a4,4,0,0,0-3.33,1.8,4,4,0,0,0-3.34-1.8h-4.77a4,4,0,0,0-4,4v9.7c0,7.35,4.74,12.1,12.07,12.1s12.15-4.75,12.15-12.1v-9.7a4,4,0,0,0-4-4Z"/><path class="cls-154" d="M239,334.49a2,2,0,0,1-2-2V314.92a2,2,0,0,1,2-2h4.8a2,2,0,0,1,2,2v11.4h5.8a2,2,0,0,1,2,2v4.17a2,2,0,0,1-2,2Z"/><path class="cls-154" d="M243.76,314.92v13.4h7.8v4.17H239V314.92h4.8m0-4H239a4,4,0,0,0-4,4v17.57a4,4,0,0,0,4,4h12.6a4,4,0,0,0,4-4v-4.17a4,4,0,0,0-4-4h-3.8v-9.4a4,4,0,0,0-4-4Z"/><path class="cls-154" d="M255.71,334.49a2,2,0,0,1-2-2v-6.27l-6.05-10.28a2,2,0,0,1,1.73-3h5.77a2,2,0,0,1,1.78,1.09l1.36,2.65,1.39-2.66a2,2,0,0,1,1.77-1.08h5.47a2,2,0,0,1,1.72,3l-6.12,10.25v6.29a2,2,0,0,1-2,2Z"/><path class="cls-154" d="M266.93,314.92l-6.4,10.73v6.84h-4.82v-6.82l-6.32-10.75h5.77l3.13,6.1,3.17-6.1h5.47m0-4h-5.47a4,4,0,0,0-3.15,1.54,4,4,0,0,0-3.15-1.54h-5.77a4,4,0,0,0-3.45,6l5.77,9.81v5.73a4,4,0,0,0,4,4h4.82a4,4,0,0,0,4-4v-5.74l5.84-9.78a4,4,0,0,0-3.44-6.05Zm0,8h0Z"/><path class="cls-165" d="M132.41,312.92v17.57h-4.62V318l-3.28,1.2-1.45-3.77,6.55-2.53Z"/><path class="cls-166" d="M148.51,319.32c0,4.95-3,9.27-9.47,11.65l-1.85-3.18c3.25-1.32,5-2.39,6-3.74a4.55,4.55,0,0,1-2.35.62,5.45,5.45,0,0,1-5.82-5.75c0-3.65,2.77-6.22,6.62-6.22C145.89,312.7,148.49,315.25,148.51,319.32Zm-4.25-.57a2.28,2.28,0,0,0-2.57-2.33,2.33,2.33,0,1,0,0,4.65A2.27,2.27,0,0,0,144.26,318.75Z"/><path class="cls-167" d="M156.09,322.7h7.32v3.42h-7.32Z"/><path class="cls-168" d="M171.29,327.94a35.17,35.17,0,0,0,5.62-4.69,5.68,5.68,0,0,0,1.6-3.7c0-1.58-1-2.75-3.12-2.75a6,6,0,0,0-3.25.82L170.76,314a11,11,0,0,1,5.4-1.27c4.25,0,7.05,2.22,7.05,6.12a9,9,0,0,1-3.3,6.92,7.14,7.14,0,0,1-1.07.71h4.82v4H171.29Z"/><path class="cls-169" d="M185.81,325.57a4.65,4.65,0,0,1,2.48-4.3,4.11,4.11,0,0,1-1.93-3.62c0-2.9,2.45-4.95,6.25-4.95s6.3,2.05,6.3,4.95a4.11,4.11,0,0,1-1.93,3.62,4.44,4.44,0,0,1,2.35,4.15c0,3.17-2.62,5.27-6.72,5.27C188.19,330.69,185.81,328.79,185.81,325.57Zm9.07-.42c0-1.1-.89-1.88-2.27-1.88s-2.35.78-2.35,1.88.9,1.89,2.35,1.89S194.88,326.27,194.88,325.15Zm-.32-7.28a1.83,1.83,0,0,0-1.95-1.8,1.8,1.8,0,1,0,0,3.6A1.83,1.83,0,0,0,194.56,317.87Z"/><path class="cls-170" d="M216.08,312.92V324.1a6.34,6.34,0,0,1-6.69,6.62c-3.08,0-4.4-1-4.43-1l1.83-4.29a3.58,3.58,0,0,0,2.07.59c1.6,0,2.45-.92,2.45-2V312.92Z"/><path class="cls-171" d="M219.34,322.62v-9.7h4.77V323a3.16,3.16,0,0,0,3.3,3.47,3.2,3.2,0,0,0,3.37-3.47V312.92h4.78v9.7c0,5.35-3.25,8.1-8.15,8.1S219.34,328,219.34,322.62Z"/><path class="cls-172" d="M251.56,326.32v4.17H239V312.92h4.8v13.4Z"/><path class="cls-173" d="M260.53,323.65v6.84h-4.82v-6.82l-6.32-10.75h5.77l3.13,6.1,3.17-6.1h5.47Z"/></g></svg>