<svg xmlns="http://www.w3.org/2000/svg" xmlns:xlink="http://www.w3.org/1999/xlink" viewBox="0 0 390 452"><defs><style>.cls-1{fill:#99e1f7;}.cls-2{fill:#6596d1;}.cls-3{fill:#5273ba;}.cls-4{fill:#1c2175;}.cls-5{fill:#6da2d7;}.cls-6{fill:#93dff6;}.cls-7{fill:url(#Dégradé_sans_nom_4);}.cls-8{fill:url(#Dégradé_sans_nom_4-2);}.cls-9{fill:url(#Dégradé_sans_nom_23);}.cls-10{fill:#fff;}.cls-11{fill:url(#Dégradé_sans_nom_4-3);}.cls-12{fill:url(#Dégradé_sans_nom_4-4);}.cls-13{fill:url(#Dégradé_sans_nom_4-5);}.cls-14{fill:url(#Dégradé_sans_nom_4-6);}.cls-15{fill:url(#Dégradé_sans_nom_4-7);}.cls-16{fill:url(#Dégradé_sans_nom_4-8);}.cls-17{fill:url(#Dégradé_sans_nom_4-9);}.cls-18{fill:url(#Dégradé_sans_nom_41);}.cls-19{fill:url(#Dégradé_sans_nom_41-2);}.cls-20{fill:url(#Dégradé_sans_nom_41-3);}.cls-21{fill:url(#Dégradé_sans_nom_41-4);}.cls-22{fill:url(#Dégradé_sans_nom_41-5);}.cls-23{fill:url(#Dégradé_sans_nom_41-6);}.cls-24{fill:url(#Dégradé_sans_nom_41-7);}.cls-25{fill:url(#Dégradé_sans_nom_41-8);}.cls-26{fill:url(#Dégradé_sans_nom_41-9);}.cls-27{fill:url(#Dégradé_sans_nom_41-10);}.cls-28{fill:url(#Dégradé_sans_nom_41-11);}.cls-29{fill:url(#Dégradé_sans_nom_41-12);}.cls-30{fill:url(#Dégradé_sans_nom_41-13);}</style><linearGradient id="Dégradé_sans_nom_4" x1="102.69" y1="236.53" x2="195" y2="236.53" gradientUnits="userSpaceOnUse"><stop offset="0" stop-color="#94e0f7"/><stop offset="1" stop-color="#fff"/></linearGradient><linearGradient id="Dégradé_sans_nom_4-2" x1="195" y1="236.53" x2="287.31" y2="236.53" xlink:href="#Dégradé_sans_nom_4"/><linearGradient id="Dégradé_sans_nom_23" x1="195" y1="231.17" x2="270.93" y2="231.17" gradientUnits="userSpaceOnUse"><stop offset="0" stop-color="#94e0f7"/><stop offset="0.01" stop-color="#99e1f7"/><stop offset="0.12" stop-color="#b8eafa"/><stop offset="0.24" stop-color="#d2f2fc"/><stop offset="0.37" stop-color="#e6f8fd"/><stop offset="0.52" stop-color="#f4fcfe"/><stop offset="0.7" stop-color="#fdfeff"/><stop offset="1" stop-color="#fff"/></linearGradient><linearGradient id="Dégradé_sans_nom_4-3" x1="58.52" y1="324.6" x2="58.52" y2="305.04" xlink:href="#Dégradé_sans_nom_4"/><linearGradient id="Dégradé_sans_nom_4-4" x1="89.77" y1="324.6" x2="89.77" y2="297.95" xlink:href="#Dégradé_sans_nom_4"/><linearGradient id="Dégradé_sans_nom_4-5" x1="126.18" y1="324.6" x2="126.18" y2="294.04" xlink:href="#Dégradé_sans_nom_4"/><linearGradient id="Dégradé_sans_nom_4-6" x1="170.56" y1="325.15" x2="170.56" y2="291.08" xlink:href="#Dégradé_sans_nom_4"/><linearGradient id="Dégradé_sans_nom_4-7" x1="227.68" y1="324.6" x2="227.68" y2="291.51" xlink:href="#Dégradé_sans_nom_4"/><linearGradient id="Dégradé_sans_nom_4-8" x1="279.43" y1="324.6" x2="279.43" y2="294.15" xlink:href="#Dégradé_sans_nom_4"/><linearGradient id="Dégradé_sans_nom_4-9" x1="332.86" y1="324.6" x2="332.86" y2="301.8" xlink:href="#Dégradé_sans_nom_4"/><linearGradient id="Dégradé_sans_nom_41" x1="99.11" y1="360.96" x2="99.11" y2="344.93" gradientUnits="userSpaceOnUse"><stop offset="0" stop-color="#94e0f7"/><stop offset="0.03" stop-color="#a0e4f8"/><stop offset="0.12" stop-color="#beecfa"/><stop offset="0.22" stop-color="#d6f3fc"/><stop offset="0.34" stop-color="#e8f8fd"/><stop offset="0.47" stop-color="#f5fcfe"/><stop offset="0.64" stop-color="#fdfeff"/><stop offset="1" stop-color="#fff"/></linearGradient><linearGradient id="Dégradé_sans_nom_41-2" x1="111.94" y1="361.16" x2="111.94" y2="344.5" xlink:href="#Dégradé_sans_nom_41"/><linearGradient id="Dégradé_sans_nom_41-3" x1="128.32" y1="356.97" x2="128.32" y2="353.84" xlink:href="#Dégradé_sans_nom_41"/><linearGradient id="Dégradé_sans_nom_41-4" x1="144.25" y1="360.96" x2="144.25" y2="344.72" xlink:href="#Dégradé_sans_nom_41"/><linearGradient id="Dégradé_sans_nom_41-5" x1="158.09" y1="360.96" x2="158.09" y2="344.72" xlink:href="#Dégradé_sans_nom_41"/><linearGradient id="Dégradé_sans_nom_41-6" x1="177.6" y1="360.96" x2="177.6" y2="344.93" xlink:href="#Dégradé_sans_nom_41"/><linearGradient id="Dégradé_sans_nom_41-7" x1="191.56" y1="360.96" x2="191.56" y2="344.93" xlink:href="#Dégradé_sans_nom_41"/><linearGradient id="Dégradé_sans_nom_41-8" x1="206.88" y1="360.96" x2="206.88" y2="344.93" xlink:href="#Dégradé_sans_nom_41"/><linearGradient id="Dégradé_sans_nom_41-9" x1="222.88" y1="360.96" x2="222.88" y2="344.93" xlink:href="#Dégradé_sans_nom_41"/><linearGradient id="Dégradé_sans_nom_41-10" x1="239.17" y1="361.16" x2="239.17" y2="344.93" xlink:href="#Dégradé_sans_nom_41"/><linearGradient id="Dégradé_sans_nom_41-11" x1="255.68" y1="360.96" x2="255.68" y2="344.93" xlink:href="#Dégradé_sans_nom_41"/><linearGradient id="Dégradé_sans_nom_41-12" x1="272.47" y1="360.96" x2="272.47" y2="344.93" xlink:href="#Dégradé_sans_nom_41"/><linearGradient id="Dégradé_sans_nom_41-13" x1="287.16" y1="360.96" x2="287.16" y2="344.93" xlink:href="#Dégradé_sans_nom_41"/></defs><title>WinterBSG</title><g id="Calque_1" data-name="Calque 1"><path class="cls-1" d="M378.91,215.58h-23l17.65-17.65-12.5-12.5-30.15,30.15h-13l15.27-15.27-12.5-12.5-27.77,27.77H278.93l54.48-51L258.82,167l9.86-9.86H308V139.5h-21.6l9.22-9.22h42.64V112.6h-25l16.26-16.26-8.95-9-16.26,16.26v-25H286.63v42.64l-9.22,9.22V109H259.73v39.27l-9.86,9.86,2.46-74.59-51,54.48V124L229.1,96.27l-12.5-12.5L201.33,99V86l30.15-30.15L219,43.35,201.33,61V38H188.67V61L171,43.35l-12.5,12.5L188.67,86V99L173.4,83.77l-12.5,12.5L188.67,124V138l-51-54.48,2.46,74.59-9.86-9.86V109H112.59v21.59l-9.22-9.22V78.69H85.69v25L69.43,87.39l-9,9L76.74,112.6h-25v17.68H94.42l9.22,9.22H82v17.68h39.28l9.86,9.86-74.59-2.46,54.48,51H97.13L69.36,187.81l-12.5,12.5,15.27,15.27h-13L28.94,185.43l-12.5,12.5,17.65,17.65h-23v12.66h23L16.44,245.89l12.5,12.5,30.15-30.15h13L56.86,243.51,69.36,256l27.77-27.77h13.94l-54.48,51,74.59-2.46-9.86,9.86H82v9.87c2.91.52,5.82,1.21,8.68,2l3.44,1c9.44-1.57,19.39-2.52,28.67,0a34,34,0,0,1,7.44,3.11v-7l9.86-9.86-.53,16.15c3.43-.6,6.88-1,10.28-1.34,8.74-.81,17.46-1.74,26.24-1.64A52.35,52.35,0,0,1,199.76,295a48.2,48.2,0,0,1,21.45-2.53,41,41,0,0,1,14-2.08,43.89,43.89,0,0,1,4.68.4A50.05,50.05,0,0,1,250,288.23l-.08-2.5,2.25,2.25a41.46,41.46,0,0,1,29.29,7.81c1.26.37,2.51.79,3.74,1.24a69.15,69.15,0,0,1,11.83-.76,39.34,39.34,0,0,1,8.1-2c1-.13,1.92-.21,2.88-.27v-7.36H268.68l-9.86-9.86,74.59,2.46-54.48-51h13.94L320.64,256l12.5-12.5-15.27-15.27h13l30.15,30.15,12.5-12.5-17.65-17.65h23Z"/><path class="cls-2" d="M41.49,242.53l10.75,10.74,25.92-25.92H89.37L76.24,240.48,87,251.23l23.87-23.88h12L76,271.2l64.12-2.11-8.47,8.47H97.89v15.2h18.57l-5.2,5.2a47.51,47.51,0,0,1,11.57,1.51,35.62,35.62,0,0,1,9.14,4.09c2.42-.66,4.9-1.19,7.38-1.64V285.25l8.48-8.47-.8,24.05c.95-.11,1.9-.2,2.85-.29,8.74-.81,17.46-1.74,26.24-1.64a52,52,0,0,1,12.1-3.4l1.34-1.44v1.25a52.7,52.7,0,0,1,10.2-.33l.68-.23v-.69l.49.52a48.64,48.64,0,0,1,14.46-2.41,47.73,47.73,0,0,1,5.82.28,41,41,0,0,1,14-2.08,43.89,43.89,0,0,1,4.68.4c.9-.33,1.81-.63,2.72-.91l-.43-13.08,8.48,8.47v2.88a42.54,42.54,0,0,1,26.08,4.63h15.38v-15.2H258.34l-8.47-8.47L314,271.2l-46.84-43.85h12L303,251.23l10.75-10.75-13.13-13.13h11.21l25.92,25.92,10.75-10.74-15.17-15.18h19.77V216.47H333.34l15.17-15.17-10.75-10.75-25.92,25.92H300.63l13.13-13.13L303,192.59l-23.87,23.88h-12L314,172.62l-64.12,2.12,8.47-8.48h33.77v-15.2H273.54l7.93-7.92h36.66v-15.2H296.67l14-14-7.7-7.69-14,14V98.79h-15.2v36.65l-7.92,7.93V124.8h-15.2v33.77L242.17,167l2.12-64.12-43.85,46.84v-12l23.88-23.87-10.75-10.75-13.13,13.13V105.07l25.92-25.92L215.61,68.4,200.44,83.57V63.8H189.56V83.57L174.39,68.4,163.64,79.15l25.92,25.92v11.21l-13.13-13.13L165.68,113.9l23.88,23.87v12l-43.85-46.84L147.83,167l-8.48-8.47V124.8h-15.2v18.57l-7.92-7.93V98.79H101v21.45l-14-14L79.35,114l14,14H71.87v15.2h36.66l7.93,7.92H97.89v15.2h33.77l8.47,8.48L76,172.62l46.84,43.85h-12L87,192.59,76.24,203.34l13.13,13.13H78.16L52.24,190.55,41.49,201.3l15.17,15.17H36.89v10.88H56.66Z"/><path class="cls-3" d="M277,331.27c2.1-1.49,4.13-2.91,6.28-4.17l-6-.8A35.76,35.76,0,0,1,277,331.27Z"/><rect class="cls-4" x="218.06" y="258.19" width="19.9" height="19.9"/><path class="cls-3" d="M204.93,293.58l.51-.09c-3.6,0-4.1.34-3.41.42l.56-.05C203.36,293.8,204.14,293.67,204.93,293.58Z"/><path class="cls-4" d="M195,323.16a5.6,5.6,0,0,1-2.17-.43L100.52,284.4a5.65,5.65,0,0,1-3.5-5.23V246.4a5.65,5.65,0,0,1,3.5-5.23l.63-.27-.64-.26A5.67,5.67,0,0,1,97,235.41V155.57a5.68,5.68,0,0,1,3.5-5.24L192.83,112a5.65,5.65,0,0,1,4.35,0l26,10.82a5.66,5.66,0,0,1,3,3,5.79,5.79,0,0,1,4.31,0l27.08,11.26a5.64,5.64,0,0,1,3,3,5.64,5.64,0,0,1,4.29,0l24.5,10.16a5.68,5.68,0,0,1,3.5,5.24v123.6a5.65,5.65,0,0,1-3.5,5.23L268,293.33a5.66,5.66,0,0,1-4.35,0l-23.1-9.59a5.68,5.68,0,0,1-3.5-5.24V263.56l-14.67,6.09v38.84a5.68,5.68,0,0,1-3.5,5.24l-21.68,9A5.6,5.6,0,0,1,195,323.16Zm-86.64-47.78,86.64,36,16-6.65V265.87a5.67,5.67,0,0,1,3.49-5.24l26-10.8a5.66,5.66,0,0,1,7.85,5.23v19.66L265.8,282l15.84-6.58v-116l-18.83-7.81-5.16,2.15a5.67,5.67,0,0,1-7.85-5.24v-2.32l-21.4-8.89-5.19,2.15a5.68,5.68,0,0,1-7.84-5.24v-2.31L195,123.37l-86.64,36v72.27l9.74,4a5.67,5.67,0,0,1,0,10.47l-9.74,4.05Z"/><path class="cls-5" d="M287.31,155.57,195,193.9l-92.31-38.33L195,117.24l26,10.81-70.27,29.19,7.34,3c20-8.3,55-22.85,70.28-29.19h0l27.08,11.25-70.28,29.18,7.35,3.05,70.28-29.18Z"/><path class="cls-6" d="M221,134.15l-62.93,26.14-7.34-3L221,128.05Z"/><path class="cls-6" d="M255.47,148.45l-62.93,26.13-7.35-3.05,70.28-29.18Z"/><path class="cls-3" d="M172.72,264.49v11l-70-29.08,13.24-5.5Z"/><path class="cls-7" d="M124.6,199.05v11L195,239.28V317.5l-92.31-38.33V246.4l70,29.08v-11L115.93,240.9l-13.24-5.49V155.57L195,193.9v34.39Z"/><path class="cls-4" d="M137.83,204.54,124.6,210v-11Z"/><path class="cls-3" d="M195,228.29v11L124.6,210h0l13.23-5.5Z"/><path class="cls-8" d="M195,193.9V317.5l21.68-9V265.86l26-10.8,23.11-9.6V288.1l21.51-8.93V155.57Zm70.8,16-49.12,20.4V219.41L265.8,199Z"/><path class="cls-9" d="M247,172.32l-24.7,44.76,23.95-9.93,24.71-44.78Zm-9,3.74-14.47,6L195,233.7v20.22l19.65-35.62Zm-21.29,54.21v-3L195,266.5V300l19.49-35.32,24-43.43Z"/><path class="cls-4" d="M265.8,199v10.86l-13.31-5.33Z"/><path class="cls-3" d="M265.8,209.87l-49.12,20.4V219.41l35.81-14.87Z"/><path class="cls-3" d="M265.8,245.46V288.1l-23.11-9.6V255.06Z"/><path class="cls-4" d="M364,333.53a8.51,8.51,0,0,1-7.54,4.57H339.37a8.5,8.5,0,0,1-7.16-3.92l-.61-.95a8.5,8.5,0,0,1-7.69,4.87H309.24a8.46,8.46,0,0,1-4.9-1.56,8.46,8.46,0,0,1-4.9,1.56h-40a8.5,8.5,0,0,1-8.5-8.5V296.12h-7.25V329.6a8.5,8.5,0,0,1-8.5,8.5h-15a8.5,8.5,0,0,1-8.5-8.5V296.12h-7.17v34a8.5,8.5,0,0,1-8.5,8.5h-8.24a8.51,8.51,0,0,1-6.27-2.77l-13.24-14.5v8.22a8.51,8.51,0,0,1-8.5,8.5H145.1a8.4,8.4,0,0,1-5.69-2.19,8.47,8.47,0,0,1-5.69,2.19H118.65a8.51,8.51,0,0,1-8.5-8.5V309.24l-7.67,23a8.49,8.49,0,0,1-8.06,5.82H83.35a8.52,8.52,0,0,1-8.07-5.82l-2.07-6.23-1.92,6.1a8.5,8.5,0,0,1-8.11,6H51.88a8.48,8.48,0,0,1-8.06-5.82L25.46,277.12a8.5,8.5,0,0,1,8.06-11.19H49.69a8.52,8.52,0,0,1,8.21,6.3l1,3.7L60.06,272a8.51,8.51,0,0,1,8.15-6.07h9.73a8.5,8.5,0,0,1,8.13,6l1.7,5.62,1.52-5.44a8.5,8.5,0,0,1,8.18-6.22h15.31a8.31,8.31,0,0,1,2.93.53,8.16,8.16,0,0,1,2.94-.53h15.07a8.5,8.5,0,0,1,5.35,1.89,8.47,8.47,0,0,1,6-2.51h8.31a8.52,8.52,0,0,1,6.22,2.7l13.22,14.18v-7.76a8.51,8.51,0,0,1,8.5-8.5H196a8.39,8.39,0,0,1,3.26.65,8.38,8.38,0,0,1,3.25-.65h50.54a8.37,8.37,0,0,1,3.17.62,8.42,8.42,0,0,1,3.18-.62h39.86a8.43,8.43,0,0,1,5,1.62,8.43,8.43,0,0,1,5-1.62h23.15c18.31,0,31.1,12.08,31.1,29.38a27.13,27.13,0,0,1-7.34,18.95l7.3,10.48A8.51,8.51,0,0,1,364,333.53Z"/><path class="cls-10" d="M112.78,269.43,94.41,324.6H83.35L73,293.45,63.18,324.6H51.88L33.52,269.43H49.69L56,293.13l2.51,9.1,2.59-9.18,7.07-23.62h9.73l7,23.07L88,303.18,91,292.5l6.43-23.07Z"/><path class="cls-10" d="M118.65,269.43h15.07V324.6H118.65Z"/><path class="cls-10" d="M196,269.43v55.72h-8.24l-28-30.68V324.6H145.1V268.81h8.31l27.94,30V269.43Z"/><path class="cls-10" d="M253.07,282.62h-17.9v42h-15v-42H202.53V269.43h50.54Z"/><path class="cls-10" d="M299.44,311.65v13h-40V269.43h39.86v13h-25v7.85h22V303.1h-22v8.55Z"/><path class="cls-10" d="M330.35,310.47h-6.44V324.6H309.24V269.43h23.15c14.2,0,22.6,8.95,22.6,20.88a18.8,18.8,0,0,1-10.44,17.18l11.93,17.11H339.37ZM323.91,298h7.3c5.42,0,8.79-3.46,8.79-7.85,0-4.63-3.22-8.24-9-8.24h-7.07Z"/><path class="cls-11" d="M47.7,312.05a200.19,200.19,0,0,1,21.64-7L63.18,324.6H51.88Z"/><path class="cls-12" d="M88.73,300.56c4.67-.93,9.53-1.81,14.55-2.61L94.41,324.6H83.35l-7.09-21.31q5.34-1.28,11-2.44Z"/><path class="cls-13" d="M118.65,295.73q7.35-.93,15.07-1.69V324.6H118.65Z"/><path class="cls-14" d="M196,291.08v34.07h-8.24l-28-30.68V324.6H145.1V293c9.49-.75,19.31-1.29,29.39-1.61l6.86,7.36v-7.54q7.25-.17,14.65-.16Z"/><path class="cls-15" d="M220.19,291.51q7.59.27,15,.71V324.6h-15Z"/><path class="cls-16" d="M274.25,311.65h25.19v13h-40V294.15c13.08,1.31,25.41,3,36.8,5.08v3.87h-22Z"/><path class="cls-17" d="M356.48,324.6H339.37l-9-14.13h-6.44V324.6H309.24V301.8c15.83,3.45,29.37,7.61,39.91,12.29Z"/><path class="cls-4" d="M99.15,365a2,2,0,0,1-2-2v-8.52l-.3.11a1.82,1.82,0,0,1-.68.13,2,2,0,0,1-1.87-1.29L93,350a2,2,0,0,1,1.14-2.58l6-2.31a2,2,0,0,1,.72-.13h2.55a2,2,0,0,1,2,2v16a2,2,0,0,1-2,2Z"/><path class="cls-4" d="M103.37,346.93v16H99.15V351.58l-3,1.09-1.33-3.44,6-2.3h2.55m0-4h-2.55a3.92,3.92,0,0,0-1.44.27l-6,2.3a4,4,0,0,0-2.29,5.17l1.32,3.44a4,4,0,0,0,2.72,2.43V363a4,4,0,0,0,4,4h4.22a4,4,0,0,0,4-4v-16a4,4,0,0,0-4-4Z"/><path class="cls-4" d="M112,365.16c-5,0-8.31-3.24-8.31-8.24,0-5.68,3.79-10.29,10.14-12.33a2.2,2.2,0,0,1,.61-.09,2,2,0,0,1,1.8,1.12l1.48,3a2,2,0,0,1,0,1.66,2.08,2.08,0,0,1-.82.94,7,7,0,0,1,3.32,6.24C120.23,361.93,116.76,365.16,112,365.16Zm-.45-7.6a.83.83,0,0,0,.48.09,1,1,0,0,0,.48-.09,1.13,1.13,0,0,0-.48-.08,1,1,0,0,0-.48.08Z"/><path class="cls-4" d="M114.4,346.5l1.49,3c-2.79.91-4.36,2.05-5.25,3.35a4.33,4.33,0,0,1,2.3-.66,5,5,0,0,1,5.29,5.27c0,3.39-2.66,5.67-6.27,5.67-4,0-6.31-2.46-6.31-6.25,0-4.3,2.71-8.48,8.75-10.41M112,359.65c1.46,0,2.44-.8,2.44-2.07s-1-2.1-2.44-2.1-2.44.8-2.44,2.1,1,2.07,2.44,2.07m2.41-17.15a4,4,0,0,0-1.22.19c-7.22,2.31-11.53,7.63-11.53,14.22,0,6.13,4.14,10.25,10.31,10.25,5.86,0,10.27-4.16,10.27-9.67a9.25,9.25,0,0,0-2.58-6.61,4,4,0,0,0-.17-3.11l-1.48-3a4,4,0,0,0-3.6-2.24Z"/><rect class="cls-4" x="122.98" y="353.84" width="10.68" height="7.12" rx="2" ry="2"/><path class="cls-4" d="M131.66,355.84V359H125v-3.13h6.68m0-4H125a4,4,0,0,0-4,4V359a4,4,0,0,0,4,4h6.68a4,4,0,0,0,4-4v-3.13a4,4,0,0,0-4-4Z"/><path class="cls-4" d="M138.85,365a2,2,0,0,1-2-2v-2.33a2,2,0,0,1,.88-1.66,30.78,30.78,0,0,0,4.77-4,3.22,3.22,0,0,0,.93-2c0-.32,0-.56-.85-.56a3.47,3.47,0,0,0-1.9.46,2.12,2.12,0,0,1-1.06.3,2,2,0,0,1-1.87-1.3l-1.25-3.33a2,2,0,0,1,.75-2.36,11.66,11.66,0,0,1,6-1.51c5.12,0,8.43,3,8.43,7.59a10.22,10.22,0,0,1-1.31,5,2,2,0,0,1,1.72,2V363a2,2,0,0,1-2,2Z"/><path class="cls-4" d="M143.29,346.72c3.88,0,6.43,2,6.43,5.59a8.23,8.23,0,0,1-3,6.31,6.66,6.66,0,0,1-1,.64h4.4V363H138.85v-2.33a32,32,0,0,0,5.13-4.29,5.13,5.13,0,0,0,1.45-3.37c0-1.44-1-2.51-2.85-2.51a5.45,5.45,0,0,0-3,.76l-1.25-3.33a9.85,9.85,0,0,1,4.92-1.17m0-4a13.77,13.77,0,0,0-7.16,1.85,4,4,0,0,0-1.51,4.73l1.26,3.33a4,4,0,0,0,2.45,2.37,3.77,3.77,0,0,0,1,.21c-1,.87-2.12,1.66-2.77,2.1a4,4,0,0,0-1.76,3.32V363a4,4,0,0,0,4,4h11.28a4,4,0,0,0,4-4v-3.7a4,4,0,0,0-1.15-2.8,12.18,12.18,0,0,0,.74-4.15c0-5.73-4.19-9.59-10.43-9.59Z"/><path class="cls-4" d="M159.18,365a2,2,0,0,1-2-2V362h-5.57a2,2,0,0,1-2-2v-2.65a2,2,0,0,1,.11-.64l3.58-10.64a2,2,0,0,1,1-1.16,1.93,1.93,0,0,1,.88-.21,2.06,2.06,0,0,1,.65.11l3.6,1.23a2,2,0,0,1,1.26,2.5l-.24.77h2.71a2,2,0,0,1,2,2v3.25a2,2,0,0,1,1.39,1.9V360a2,2,0,0,1-1.39,1.9v1a2,2,0,0,1-2,2Z"/><path class="cls-4" d="M155.19,346.72l3.6,1.24-2.69,8.52h3.08v-5.15h4v5.15h1.39V360h-1.39V363h-4V360h-7.57v-2.65l3.58-10.65m0-4a3.94,3.94,0,0,0-1.77.42,4,4,0,0,0-2,2.31l-3.58,10.65a3.93,3.93,0,0,0-.21,1.27V360a4,4,0,0,0,4,4h3.71a4,4,0,0,0,3.86,2.94h4a12.26,12.26,0,0,0,5.39-6.94v-3.54a4,4,0,0,0-1.39-3v-2.12a4,4,0,0,0-4-4h-.42a4,4,0,0,0-2.66-3.16l-3.6-1.23a4.13,4.13,0,0,0-1.3-.22Z"/><path class="cls-4" d="M171.84,365a2,2,0,0,1-2-2v-16a2,2,0,0,1,2-2h11.53a2,2,0,0,1,2,2V351a2,2,0,0,0-1.09,3.17v4a2,2,0,0,1-2,2h-4.07V363a2,2,0,0,1-2,2Z"/><path class="cls-4" d="M183.37,346.93V351h-7.16v3.17h6.07v4h-6.07V363h-4.37v-16h11.53m0-4H171.84a4,4,0,0,0-4,4v16a4,4,0,0,0,4,4h4.37a4,4,0,0,0,4-4v-.75h2.07a4,4,0,0,0,4-4v-4c0-.14,0-.27,0-.4a4,4,0,0,0,1.11-2.77v-4.06a4,4,0,0,0-4-4Z"/><path class="cls-4" d="M185.74,365a2,2,0,0,1-2-2v-16a2,2,0,0,1,2-2h11.58a2,2,0,0,1,2,2v3.78a2,2,0,0,1-1,1.72,1.77,1.77,0,0,1,.09.56v3.72a1.87,1.87,0,0,1-.14.71,2,2,0,0,1,1.07,1.77V363a2,2,0,0,1-2,2Z"/><path class="cls-4" d="M197.32,346.93v3.78h-7.27V353h6.39v3.72h-6.39v2.48h7.32V363H185.74v-16h11.58m0-4H185.74a4,4,0,0,0-4,4v16a4,4,0,0,0,4,4h11.63a4,4,0,0,0,4-4v-3.77a4,4,0,0,0-.93-2.57v-3.39a4,4,0,0,0,.88-2.52v-3.78a4,4,0,0,0-4-4Z"/><path class="cls-4" d="M200.24,365a2,2,0,0,1-2-2v-16a2,2,0,0,1,2-2h6.59c7.48,0,8.07,4.85,8.07,6.33a5.28,5.28,0,0,1-.92,3,5.74,5.74,0,0,1,1.53,4.08c0,2.47-1.09,6.61-8.43,6.61Z"/><path class="cls-4" d="M206.83,346.93c4.31,0,6.07,1.8,6.07,4.33a3.39,3.39,0,0,1-2.53,3.26,3.66,3.66,0,0,1,3.14,3.83c0,2.85-1.82,4.61-6.43,4.61h-6.84v-16h6.59m-2.41,6.41h2.34c1.35,0,2-.57,2-1.58s-.7-1.55-2-1.55h-2.32v3.13m0,6.33h2.69c1.5,0,2.23-.64,2.23-1.64s-.68-1.59-2.23-1.59h-2.69v3.23m2.41-16.74h-6.59a4,4,0,0,0-4,4v16a4,4,0,0,0,4,4h6.84c9.68,0,10.43-6.59,10.43-8.61a8,8,0,0,0-1.17-4.29,7.25,7.25,0,0,0,.56-2.8c0-4-2.65-8.33-10.07-8.33Z"/><path class="cls-4" d="M224.78,365a2,2,0,0,1-1.69-.93l-.81-1.26V363a2,2,0,0,1-2,2H216a2,2,0,0,1-2-2v-16a2,2,0,0,1,2-2h6.73c5,0,8.56,3.32,8.56,8.06a7.44,7.44,0,0,1-2.27,5.46l2.35,3.36a2,2,0,0,1-1.64,3.15Zm-2.38-11.73c.37,0,.56-.1.56-.28s0-.4-.62-.4h-.06v.68Z"/><path class="cls-4" d="M222.75,346.93c4.12,0,6.56,2.6,6.56,6.06a5.48,5.48,0,0,1-3,5l3.47,5h-5l-2.63-4.11h-1.87V363H216v-16h6.73m-2.47,8.3h2.12A2.33,2.33,0,0,0,225,353a2.37,2.37,0,0,0-2.62-2.4h-2.06v4.68m2.47-12.3H216a4,4,0,0,0-4,4v16a4,4,0,0,0,4,4h4.26a4,4,0,0,0,2.25-.69,4,4,0,0,0,2.25.69h5a4,4,0,0,0,3.28-6.29l-1.46-2.09a9.49,9.49,0,0,0,1.74-5.59c0-5.83-4.44-10.06-10.56-10.06Z"/><path class="cls-4" d="M239.14,365.16c-5.78,0-9.36-3.6-9.36-9.38v-8.85a2,2,0,0,1,2-2h4.35a2,2,0,0,1,2,2v9.19c0,1.17.61,1.17,1,1.17s1.08,0,1.08-1.17v-9.19a2,2,0,0,1,2-2h4.35a2,2,0,0,1,2,2v8.85C248.57,361.56,245,365.16,239.14,365.16Z"/><path class="cls-4" d="M246.57,346.93v8.85c0,4.87-3,7.38-7.43,7.38s-7.36-2.51-7.36-7.38v-8.85h4.35v9.19a2.88,2.88,0,0,0,3,3.17,2.93,2.93,0,0,0,3.08-3.17v-9.19h4.35m0-4h-4.35a4,4,0,0,0-3.05,1.4,4,4,0,0,0-3-1.4h-4.35a4,4,0,0,0-4,4v8.85c0,6.81,4.56,11.38,11.36,11.38s11.43-4.47,11.43-11.38v-8.85a4,4,0,0,0-4-4Z"/><path class="cls-4" d="M259.64,365a2,2,0,0,1-1.86-1.25l-.58-1.44h-3.08l-.59,1.44a2,2,0,0,1-1.85,1.25h-4.47a2,2,0,0,1-1.68-.92,2,2,0,0,1-.14-1.9l7.2-16a2,2,0,0,1,1.83-1.18H257a2,2,0,0,1,1.83,1.19l7.11,16a2,2,0,0,1-1.83,2.82Z"/><path class="cls-4" d="M257,346.93l7.11,16h-4.51l-1.1-2.69h-5.77L251.68,363h-4.47l7.21-16H257M253.82,357h3.67l-1.82-4.35L253.82,357M257,342.93h-2.62a4,4,0,0,0-3.65,2.36l-7.21,16a4,4,0,0,0,3.65,5.64h4.47a4,4,0,0,0,3.71-2.5l.08-.19h.38l.08.19a4,4,0,0,0,3.71,2.5h4.51a4,4,0,0,0,3.66-5.63l-7.12-16a4,4,0,0,0-3.65-2.38Z"/><path class="cls-4" d="M274.36,365a2,2,0,0,1-1.68-.93l-.81-1.26V363a2,2,0,0,1-2,2h-4.26a2,2,0,0,1-2-2v-16a2,2,0,0,1,2-2h6.73c5,0,8.56,3.32,8.56,8.06a7.44,7.44,0,0,1-2.27,5.46l2.35,3.36a2,2,0,0,1-1.65,3.15ZM272,353.23c.37,0,.56-.1.56-.28s0-.4-.62-.4h-.06v.68Z"/><path class="cls-4" d="M272.34,346.93c4.12,0,6.56,2.6,6.56,6.06a5.48,5.48,0,0,1-3,5l3.46,5h-5l-2.62-4.11h-1.87V363h-4.26v-16h6.73m-2.47,8.3H272a2.33,2.33,0,0,0,2.56-2.28,2.37,2.37,0,0,0-2.62-2.4h-2.06v4.68m2.47-12.3h-6.73a4,4,0,0,0-4,4v16a4,4,0,0,0,4,4h4.26a4,4,0,0,0,2.25-.69,4,4,0,0,0,2.24.69h5a4,4,0,0,0,3.29-6.29l-1.46-2.09A9.49,9.49,0,0,0,282.9,353c0-5.83-4.44-10.06-10.56-10.06Z"/><path class="cls-4" d="M284.92,365a2,2,0,0,1-2-2v-5.68l-5.49-9.34a2,2,0,0,1,1.72-3h5.27A2,2,0,0,1,286.2,346l1.08,2.11,1.11-2.12a2,2,0,0,1,1.78-1.08h5a2,2,0,0,1,1.71,3l-5.55,9.31V363a2,2,0,0,1-2,2Z"/><path class="cls-4" d="M295.16,346.93l-5.84,9.78V363h-4.4v-6.23l-5.77-9.8h5.27l2.85,5.56,2.9-5.56h5m0-4h-5a4,4,0,0,0-2.88,1.22,4,4,0,0,0-2.87-1.22h-5.27a4,4,0,0,0-3.44,6l5.21,8.86V363a4,4,0,0,0,4,4h4.4a4,4,0,0,0,4-4v-5.15l5.27-8.83a4,4,0,0,0-3.43-6.05Zm0,8Z"/><path class="cls-18" d="M103.37,344.93v16H99.15V349.58l-3,1.09-1.33-3.44,6-2.3Z"/><path class="cls-19" d="M118.23,355.49c0,3.39-2.66,5.67-6.27,5.67-4,0-6.31-2.46-6.31-6.25,0-4.3,2.71-8.48,8.75-10.41l1.49,3c-2.79.91-4.36,2.05-5.25,3.35a4.33,4.33,0,0,1,2.3-.66A5,5,0,0,1,118.23,355.49Zm-3.8.09c0-1.3-1-2.1-2.44-2.1s-2.44.8-2.44,2.1,1,2.07,2.44,2.07S114.43,356.85,114.43,355.58Z"/><path class="cls-20" d="M125,353.84h6.68V357H125Z"/><path class="cls-21" d="M138.85,358.63a32,32,0,0,0,5.13-4.29,5.13,5.13,0,0,0,1.45-3.37c0-1.44-1-2.51-2.85-2.51a5.45,5.45,0,0,0-3,.76l-1.25-3.33a9.85,9.85,0,0,1,4.92-1.17c3.88,0,6.43,2,6.43,5.59a8.23,8.23,0,0,1-3,6.31,6.66,6.66,0,0,1-1,.64h4.4V361H138.85Z"/><path class="cls-22" d="M164.56,358h-1.39V361h-4V358h-7.57v-2.65l3.58-10.65,3.6,1.24-2.69,8.52h3.08v-5.15h4v5.15h1.39Z"/><path class="cls-23" d="M176.21,349v3.17h6.07v4h-6.07V361h-4.37v-16h11.53V349Z"/><path class="cls-24" d="M197.37,357.19V361H185.74v-16h11.58v3.78h-7.27V351h6.39v3.72h-6.39v2.48Z"/><path class="cls-25" d="M213.51,356.35c0,2.85-1.82,4.61-6.43,4.61h-6.84v-16h6.59c4.31,0,6.07,1.8,6.07,4.33a3.39,3.39,0,0,1-2.53,3.26A3.66,3.66,0,0,1,213.51,356.35Zm-6.77-8.14h-2.32v3.13h2.34c1.35,0,2-.57,2-1.58S208.09,348.21,206.74,348.21Zm2.6,7.82c0-1.07-.68-1.59-2.23-1.59h-2.69v3.23h2.69C208.61,357.67,209.34,357,209.34,356Z"/><path class="cls-26" d="M222.15,356.85h-1.87V361H216v-16h6.73c4.12,0,6.56,2.6,6.56,6.06a5.48,5.48,0,0,1-3,5l3.47,5h-5Zm-1.87-3.62h2.12A2.33,2.33,0,0,0,225,351a2.37,2.37,0,0,0-2.62-2.4h-2.06Z"/><path class="cls-27" d="M231.78,353.78v-8.85h4.35v9.19a2.88,2.88,0,0,0,3,3.17,2.93,2.93,0,0,0,3.08-3.17v-9.19h4.35v8.85c0,4.87-3,7.38-7.43,7.38S231.78,358.65,231.78,353.78Z"/><path class="cls-28" d="M258.54,358.27h-5.77L251.68,361h-4.47l7.21-16H257l7.11,16h-4.51ZM253.82,355h3.67l-1.82-4.35Z"/><path class="cls-29" d="M271.74,356.85h-1.87V361h-4.26v-16h6.73c4.12,0,6.56,2.6,6.56,6.06a5.48,5.48,0,0,1-3,5l3.46,5h-5Zm-1.87-3.62H272a2.33,2.33,0,0,0,2.56-2.28,2.37,2.37,0,0,0-2.62-2.4h-2.06Z"/><path class="cls-30" d="M289.32,354.71V361h-4.4v-6.23l-5.77-9.8h5.27l2.85,5.56,2.9-5.56h5Z"/><path class="cls-4" d="M210.43,371a14.43,14.43,0,1,0,14.44,14.43A14.42,14.42,0,0,0,210.43,371Zm2.89,22.13h-2.93V382.06a10.39,10.39,0,0,1-3.81,2.23v-2.67a8.18,8.18,0,0,0,2.51-1.43,5.42,5.42,0,0,0,1.85-2.45h2.38Z"/><path class="cls-10" d="M213.32,377.74v15.4h-2.93V382.06a10.39,10.39,0,0,1-3.81,2.23v-2.67a8.18,8.18,0,0,0,2.51-1.43,5.42,5.42,0,0,0,1.85-2.45Z"/><path class="cls-4" d="M181.22,381.8a2.67,2.67,0,0,0-.67-1.32,1.34,1.34,0,0,0-.91-.34,1.41,1.41,0,0,0-.93.34,2.27,2.27,0,0,0-.62,1.19,17.06,17.06,0,0,0-.3,3.77,16.85,16.85,0,0,0,.27,3.65,2.71,2.71,0,0,0,.66,1.33,1.46,1.46,0,0,0,.92.33,1.43,1.43,0,0,0,.92-.34,2.28,2.28,0,0,0,.62-1.2,16.87,16.87,0,0,0,.3-3.77A17.77,17.77,0,0,0,181.22,381.8Zm0,0a2.67,2.67,0,0,0-.67-1.32,1.34,1.34,0,0,0-.91-.34,1.41,1.41,0,0,0-.93.34,2.27,2.27,0,0,0-.62,1.19,17.06,17.06,0,0,0-.3,3.77,16.85,16.85,0,0,0,.27,3.65,2.71,2.71,0,0,0,.66,1.33,1.46,1.46,0,0,0,.92.33,1.43,1.43,0,0,0,.92-.34,2.28,2.28,0,0,0,.62-1.2,16.87,16.87,0,0,0,.3-3.77A17.77,17.77,0,0,0,181.22,381.8ZM179.64,371a14.43,14.43,0,1,0,14.43,14.43A14.43,14.43,0,0,0,179.64,371ZM183,391.6a4,4,0,0,1-3.35,1.54,4.24,4.24,0,0,1-3.5-1.7c-.87-1.12-1.32-3.14-1.32-6s.49-4.88,1.46-6.13a4.42,4.42,0,0,1,6.72,0c1,1.24,1.45,3.29,1.45,6.14S184,390.34,183,391.6Zm-2.44-11.12a1.34,1.34,0,0,0-.91-.34,1.41,1.41,0,0,0-.93.34,2.27,2.27,0,0,0-.62,1.19,17.06,17.06,0,0,0-.3,3.77,16.85,16.85,0,0,0,.27,3.65,2.71,2.71,0,0,0,.66,1.33,1.46,1.46,0,0,0,.92.33,1.43,1.43,0,0,0,.92-.34,2.28,2.28,0,0,0,.62-1.2,16.87,16.87,0,0,0,.3-3.77,17.77,17.77,0,0,0-.26-3.64A2.67,2.67,0,0,0,180.55,380.48Z"/><path class="cls-10" d="M183,379.3a4.42,4.42,0,0,0-6.72,0c-1,1.25-1.46,3.3-1.46,6.13s.45,4.91,1.32,6a4.24,4.24,0,0,0,3.5,1.7A4,4,0,0,0,183,391.6q1.45-1.89,1.46-6.16C184.45,382.59,184,380.54,183,379.3Zm-1.82,9.91a2.28,2.28,0,0,1-.62,1.2,1.43,1.43,0,0,1-.92.34,1.46,1.46,0,0,1-.92-.33,2.71,2.71,0,0,1-.66-1.33,16.85,16.85,0,0,1-.27-3.65,17.06,17.06,0,0,1,.3-3.77,2.27,2.27,0,0,1,.62-1.19,1.41,1.41,0,0,1,.93-.34,1.34,1.34,0,0,1,.91.34,2.67,2.67,0,0,1,.67,1.32,17.77,17.77,0,0,1,.26,3.64A16.87,16.87,0,0,1,181.18,389.21Z"/><path class="cls-4" d="M148.84,371a14.43,14.43,0,1,0,14.44,14.43A14.43,14.43,0,0,0,148.84,371Zm4.81,19.4v2.73H144a7.69,7.69,0,0,1,.94-2.93,19,19,0,0,1,3.09-3.68,19.65,19.65,0,0,0,2.28-2.52,3.41,3.41,0,0,0,.56-1.79,2.16,2.16,0,0,0-.48-1.51,2,2,0,0,0-2.74,0,3,3,0,0,0-.58,1.84l-2.74-.29a5,5,0,0,1,1.53-3.48,4.91,4.91,0,0,1,3.23-1.06,4.54,4.54,0,0,1,3.34,1.22,4.19,4.19,0,0,1,1.2,3.05,5.68,5.68,0,0,1-.35,2,7.68,7.68,0,0,1-1.1,2,17.84,17.84,0,0,1-1.79,1.95c-.87.86-1.42,1.42-1.65,1.7a5.44,5.44,0,0,0-.56.82Z"/><path class="cls-10" d="M148.2,390.41h5.45v2.73H144a7.69,7.69,0,0,1,.94-2.93,19,19,0,0,1,3.09-3.68,19.65,19.65,0,0,0,2.28-2.52,3.41,3.41,0,0,0,.56-1.79,2.16,2.16,0,0,0-.48-1.51,2,2,0,0,0-2.74,0,3,3,0,0,0-.58,1.84l-2.74-.29a5,5,0,0,1,1.53-3.48,4.91,4.91,0,0,1,3.23-1.06,4.54,4.54,0,0,1,3.34,1.22,4.19,4.19,0,0,1,1.2,3.05,5.68,5.68,0,0,1-.35,2,7.68,7.68,0,0,1-1.1,2,17.84,17.84,0,0,1-1.79,1.95c-.87.86-1.42,1.42-1.65,1.7A5.44,5.44,0,0,0,148.2,390.41Z"/><path class="cls-4" d="M243,383.08a3,3,0,0,1-.55,1.93,1.68,1.68,0,0,1-1.34.66,1.7,1.7,0,0,1-1.38-.69,3.43,3.43,0,0,1-.55-2.14,3.31,3.31,0,0,1,.51-2.07,1.57,1.57,0,0,1,1.27-.63,1.79,1.79,0,0,1,1.42.77A3.38,3.38,0,0,1,243,383.08Z"/><path class="cls-4" d="M241.24,371a14.43,14.43,0,1,0,14.43,14.43A14.43,14.43,0,0,0,241.24,371Zm3.35,20.3a4.67,4.67,0,0,1-3.82,1.83,4,4,0,0,1-2.73-.94,4.62,4.62,0,0,1-1.33-2.81l2.67-.31a2,2,0,0,0,.51,1.26,1.45,1.45,0,0,0,1.09.41,1.75,1.75,0,0,0,1.45-.82,7.21,7.21,0,0,0,.77-3.41,3.23,3.23,0,0,1-2.6,1.26,3.83,3.83,0,0,1-2.94-1.37,5.84,5.84,0,0,1,.07-7.26,4.33,4.33,0,0,1,3.32-1.41,4.41,4.41,0,0,1,3.6,1.78q1.4,1.77,1.4,5.83T244.59,391.31Z"/><path class="cls-10" d="M244.65,379.52a4.41,4.41,0,0,0-3.6-1.78,4.33,4.33,0,0,0-3.32,1.41,5.84,5.84,0,0,0-.07,7.26,3.83,3.83,0,0,0,2.94,1.37,3.23,3.23,0,0,0,2.6-1.26,7.21,7.21,0,0,1-.77,3.41,1.75,1.75,0,0,1-1.45.82,1.45,1.45,0,0,1-1.09-.41,2,2,0,0,1-.51-1.26l-2.67.31A4.62,4.62,0,0,0,238,392.2a4,4,0,0,0,2.73.94,4.67,4.67,0,0,0,3.82-1.83q1.46-1.83,1.46-6T244.65,379.52ZM242.41,385a1.68,1.68,0,0,1-1.34.66,1.7,1.7,0,0,1-1.38-.69,3.43,3.43,0,0,1-.55-2.14,3.31,3.31,0,0,1,.51-2.07,1.57,1.57,0,0,1,1.27-.63,1.79,1.79,0,0,1,1.42.77,3.38,3.38,0,0,1,.62,2.17A3,3,0,0,1,242.41,385Z"/></g></svg>