<?xml version="1.0" encoding="utf-8"?>
<!-- Generator: Adobe Illustrator 23.0.6, SVG Export Plug-In . SVG Version: 6.00 Build 0)  -->
<svg version="1.1" id="Layer_1" xmlns="http://www.w3.org/2000/svg" xmlns:xlink="http://www.w3.org/1999/xlink" x="0px" y="0px"
	 viewBox="0 0 390 452" style="enable-background:new 0 0 390 452;" xml:space="preserve">
<style type="text/css">
	.st0{fill:#FDDA39;}
	.st1{fill:#C670D0;}
	.st2{fill:#FFFFFF;}
	.st3{fill:#FDD93A;}
	.st4{fill:#FCD93B;}
	.st5{fill:#FCD83C;}
	.st6{fill:#FCD73D;}
	.st7{fill:#FBD63E;}
	.st8{fill:#FBD63F;}
	.st9{fill:#FAD540;}
	.st10{fill:#FAD441;}
	.st11{fill:#FAD442;}
	.st12{fill:#F9D343;}
	.st13{fill:#F9D244;}
	.st14{fill:#F9D245;}
	.st15{fill:#F8D146;}
	.st16{fill:#F8D047;}
	.st17{fill:#F8CF48;}
	.st18{fill:#F7CF49;}
	.st19{fill:#F7CE4A;}
	.st20{fill:#F6CD4B;}
	.st21{fill:#F6CD4C;}
	.st22{fill:#F6CC4D;}
	.st23{fill:#F5CB4E;}
	.st24{fill:#F5CB4F;}
	.st25{fill:#F5CA50;}
	.st26{fill:#F4C951;}
	.st27{fill:#F4C852;}
	.st28{fill:#F4C853;}
	.st29{fill:#F3C754;}
	.st30{fill:#F3C655;}
	.st31{fill:#F2C656;}
	.st32{fill:#F2C557;}
	.st33{fill:#F2C458;}
	.st34{fill:#F1C459;}
	.st35{fill:#F1C35A;}
	.st36{fill:#F1C25B;}
	.st37{fill:#F0C15C;}
	.st38{fill:#F0C15D;}
	.st39{fill:#F0C05E;}
	.st40{fill:#EFBF5F;}
	.st41{fill:#EFBF60;}
	.st42{fill:#EEBE61;}
	.st43{fill:#EEBD62;}
	.st44{fill:#EEBD63;}
	.st45{fill:#EDBC64;}
	.st46{fill:#EDBB65;}
	.st47{fill:#EDBA66;}
	.st48{fill:#ECBA67;}
	.st49{fill:#ECB968;}
	.st50{fill:#ECB869;}
	.st51{fill:#EBB86A;}
	.st52{fill:#EBB76B;}
	.st53{fill:#EAB66C;}
	.st54{fill:#EAB56D;}
	.st55{fill:#EAB56E;}
	.st56{fill:#E9B46F;}
	.st57{fill:#E9B370;}
	.st58{fill:#E9B371;}
	.st59{fill:#E8B272;}
	.st60{fill:#E8B173;}
	.st61{fill:#E8B174;}
	.st62{fill:#E7B075;}
	.st63{fill:#E7AF76;}
	.st64{fill:#E6AE77;}
	.st65{fill:#E6AE78;}
	.st66{fill:#E6AD79;}
	.st67{fill:#E5AC7A;}
	.st68{fill:#E5AC7B;}
	.st69{fill:#E5AB7C;}
	.st70{fill:#E4AA7D;}
	.st71{fill:#E4AA7E;}
	.st72{fill:#E4A97F;}
	.st73{fill:#E3A880;}
	.st74{fill:#E3A781;}
	.st75{fill:#E2A782;}
	.st76{fill:#E2A683;}
	.st77{fill:#E2A584;}
	.st78{fill:#E1A585;}
	.st79{fill:#E1A486;}
	.st80{fill:#E1A387;}
	.st81{fill:#E0A388;}
	.st82{fill:#E0A289;}
	.st83{fill:#DFA18A;}
	.st84{fill:#DFA08B;}
	.st85{fill:#DFA08C;}
	.st86{fill:#DE9F8D;}
	.st87{fill:#DE9E8E;}
	.st88{fill:#DE9E8F;}
	.st89{fill:#DD9D90;}
	.st90{fill:#DD9C91;}
	.st91{fill:#DD9C92;}
	.st92{fill:#DC9B93;}
	.st93{fill:#DC9A94;}
	.st94{fill:#DB9995;}
	.st95{fill:#DB9996;}
	.st96{fill:#DB9897;}
	.st97{fill:#DA9798;}
	.st98{fill:#DA9799;}
	.st99{fill:#DA969A;}
	.st100{fill:#D9959B;}
	.st101{fill:#D9959C;}
	.st102{fill:#D9949D;}
	.st103{fill:#D8939E;}
	.st104{fill:#D8929F;}
	.st105{fill:#D792A0;}
	.st106{fill:#D791A1;}
	.st107{fill:#D790A2;}
	.st108{fill:#D690A3;}
	.st109{fill:#D68FA4;}
	.st110{fill:#D68EA5;}
	.st111{fill:#D58DA6;}
	.st112{fill:#D58DA7;}
	.st113{fill:#D58CA8;}
	.st114{fill:#D48BA9;}
	.st115{fill:#D48BAA;}
	.st116{fill:#D38AAB;}
	.st117{fill:#D389AC;}
	.st118{fill:#D389AD;}
	.st119{fill:#D288AE;}
	.st120{fill:#D287AF;}
	.st121{fill:#D286B0;}
	.st122{fill:#D186B1;}
	.st123{fill:#D185B2;}
	.st124{fill:#D184B3;}
	.st125{fill:#D084B4;}
	.st126{fill:#D083B5;}
	.st127{fill:#CF82B6;}
	.st128{fill:#CF82B7;}
	.st129{fill:#CF81B8;}
	.st130{fill:#CE80B9;}
	.st131{fill:#CE7FBA;}
	.st132{fill:#CE7FBB;}
	.st133{fill:#CD7EBC;}
	.st134{fill:#CD7DBD;}
	.st135{fill:#CD7DBE;}
	.st136{fill:#CC7CBF;}
	.st137{fill:#CC7BC0;}
	.st138{fill:#CB7BC1;}
	.st139{fill:#CB7AC2;}
	.st140{fill:#CB79C3;}
	.st141{fill:#CA78C4;}
	.st142{fill:#CA78C5;}
	.st143{fill:#CA77C6;}
	.st144{fill:#C976C7;}
	.st145{fill:#C976C8;}
	.st146{fill:#C975C9;}
	.st147{fill:#C874CA;}
	.st148{fill:#C874CB;}
	.st149{fill:#C773CC;}
	.st150{fill:#C772CD;}
	.st151{fill:#C771CE;}
	.st152{fill:#C671CF;}
	.st153{fill:#99E1F7;}
	.st154{fill:#6596D1;}
	.st155{fill:#562E6D;}
	.st156{fill:#1C2175;}
	.st157{fill:#6DA2D7;}
	.st158{fill:#5273BA;}
	.st159{fill:url(#SVGID_1_);}
	.st160{fill:#FFF073;}
	.st161{fill:#7A4683;}
	.st162{fill:#A75CBC;}
	.st163{fill:none;}
	.st164{fill:#93DFF6;}
	.st165{display:none;fill:#311942;}
	.st166{fill:#311942;}
	.st167{display:none;fill:#FFFFFF;}
	.st168{fill:url(#SVGID_2_);}
	.st169{fill:url(#SVGID_3_);}
	.st170{fill:url(#SVGID_4_);}
	.st171{fill:url(#SVGID_5_);}
	.st172{fill:url(#SVGID_6_);}
	.st173{fill:url(#SVGID_7_);}
	.st174{fill:url(#SVGID_8_);}
	.st175{fill:url(#SVGID_9_);}
	.st176{fill:url(#SVGID_10_);}
	.st177{fill:url(#SVGID_11_);}
	.st178{fill:url(#SVGID_12_);}
	.st179{fill:url(#SVGID_13_);}
	.st180{fill:url(#SVGID_14_);}
	.st181{fill:url(#SVGID_15_);}
	.st182{fill:url(#SVGID_16_);}
	.st183{fill:url(#SVGID_17_);}
	.st184{fill:url(#SVGID_18_);}
	.st185{fill:url(#SVGID_19_);}
	.st186{fill:url(#SVGID_20_);}
	.st187{fill:url(#SVGID_21_);}
	.st188{fill:url(#SVGID_22_);}
	.st189{fill:url(#SVGID_23_);}
	.st190{fill:url(#SVGID_24_);}
	.st191{fill:url(#SVGID_25_);}
	.st192{fill:url(#SVGID_26_);}
	.st193{fill:url(#SVGID_27_);}
	.st194{fill:url(#SVGID_28_);}
</style>
<title>esa-big-logo-merged</title>
<g id="Calque_13">
	<path class="st0" d="M233.9,94.6l-1.5-0.5c-8.5-2.6-17.2-4.2-26-5l-1.7-0.1l1-2.2l25.2-53.4l0,0l2.9,59L233.9,94.6z"/>
	<path class="st0" d="M297.3,60.9l-20,55.6l-0.4,1.2l-0.7-0.6c-7.1-5.7-14.7-10.6-22.8-14.7l-1.2-0.6l1.4-1.3L297.3,60.9L297.3,60.9
		L297.3,60.9z"/>
	<path class="st0" d="M348,111.6l-39.6,43.6c-4.6-8.2-10.1-16-16.4-23l-0.4-0.4l0.7-0.3L348,111.6L348,111.6L348,111.6z"/>
	<path class="st0" d="M375.5,249.8L375.5,249.8l-55.3,2.7c2.4-8.7,3.8-17.7,4.3-26.7L375.5,249.8L375.5,249.8z"/>
	<path class="st0" d="M375.5,178L375.5,178l-51.7,24.4c-1.1-9.3-3.3-18.4-6.4-27.2L375.5,178L375.5,178z"/>
	<path class="st1" d="M206.4,89.1l-1.7-0.1c-3.2-0.2-6.4-0.4-9.6-0.4v-40l10.7,38.1L206.4,89.1z"/>
	<path class="st1" d="M258.2,61.3l-4.7,39.3l-0.2,1.9l-1.2-0.6c-5.9-2.9-12-5.3-18.3-7.3l-1.5-0.5l1.4-1.7L258.2,61.3z"/>
	<path class="st1" d="M311.8,97.1l-19.4,34.5l-0.4,0.7l-0.4-0.4c-4.6-5.1-9.5-9.8-14.8-14.1l-0.7-0.6l1.2-0.6L311.8,97.1z"/>
	<path class="st1" d="M347.6,150.7l-30.4,23.9c-2.4-6.6-5.3-13.1-8.7-19.2L347.6,150.7z"/>
	<path class="st1" d="M347.6,277.1l-34.8-4.2c2.7-5.8,4.9-11.8,6.7-17.9L347.6,277.1z"/>
	<path class="st1" d="M324.6,223.8c0.1-1.8,0.1-3.6,0.1-5.5c0-4.9-0.3-9.8-0.8-14.7l36.3,10.2L324.6,223.8z"/>
	<path class="st2" d="M317.4,175.2h-0.9l0.7-0.5L317.4,175.2z"/>
	<path class="st0" d="M317.2,218.4c0,67.5-54.7,100.2-122.2,100.2V96.2C262.5,96.2,317.2,150.9,317.2,218.4L317.2,218.4z"/>
	<path class="st3" d="M316.9,218.4c0,67.3-54.6,100-121.9,100V96.5C262.3,96.5,316.9,151.1,316.9,218.4
		C316.9,218.4,316.9,218.4,316.9,218.4z"/>
	<path class="st4" d="M316.6,218.4c0,67.1-54.4,99.9-121.6,99.9V96.8C262.2,96.8,316.6,151.2,316.6,218.4
		C316.6,218.4,316.6,218.4,316.6,218.4z"/>
	<path class="st5" d="M316.3,218.4c0,67-54.3,99.7-121.3,99.7v-221C262,97.1,316.3,151.4,316.3,218.4z"/>
	<path class="st6" d="M316,218.4c0,66.8-54.2,99.6-121,99.6V97.4C261.8,97.4,316,151.5,316,218.4C316,218.4,316,218.4,316,218.4z"/>
	<path class="st7" d="M315.7,218.4c0,66.7-54,99.5-120.7,99.5V97.7C261.7,97.7,315.7,151.7,315.7,218.4
		C315.7,218.4,315.7,218.4,315.7,218.4z"/>
	<path class="st8" d="M315.4,218.4c0,66.5-53.9,99.3-120.4,99.3V97.9C261.5,97.9,315.4,151.9,315.4,218.4
		C315.4,218.4,315.4,218.4,315.4,218.4z"/>
	<path class="st9" d="M315.1,218.4c0,66.4-53.8,99.2-120.1,99.2V98.2C261.4,98.2,315.1,152,315.1,218.4z"/>
	<path class="st10" d="M314.9,218.4c0,66.2-53.7,99-119.9,99V98.5C261.2,98.5,314.9,152.2,314.9,218.4L314.9,218.4z"/>
	<path class="st11" d="M314.6,218.4c0,66-53.5,98.9-119.6,98.9V98.8C261,98.8,314.6,152.3,314.6,218.4
		C314.6,218.4,314.6,218.4,314.6,218.4z"/>
	<path class="st12" d="M314.3,218.4c0,65.9-53.4,98.7-119.3,98.7v-218C260.9,99.1,314.3,152.5,314.3,218.4
		C314.3,218.4,314.3,218.4,314.3,218.4z"/>
	<path class="st13" d="M314,218.4c0,65.7-53.3,98.6-119,98.6V99.4C260.7,99.4,314,152.7,314,218.4z"/>
	<path class="st14" d="M313.7,218.4c0,65.6-53.1,98.5-118.7,98.5V99.7C260.6,99.7,313.7,152.8,313.7,218.4L313.7,218.4z"/>
	<path class="st15" d="M313.4,218.4c0,65.4-53,98.3-118.4,98.3V100C260.4,100,313.4,153,313.4,218.4z"/>
	<path class="st16" d="M313.1,218.4c0,65.2-52.9,98.2-118.1,98.2V100.3C260.2,100.3,313.1,153.1,313.1,218.4L313.1,218.4z"/>
	<path class="st17" d="M312.8,218.4c0,65.1-52.8,98-117.8,98V100.5C260.1,100.5,312.8,153.3,312.8,218.4
		C312.8,218.4,312.8,218.4,312.8,218.4z"/>
	<path class="st18" d="M312.5,218.4c0,64.9-52.6,97.9-117.6,97.9V100.8C259.9,100.8,312.5,153.5,312.5,218.4L312.5,218.4z"/>
	<path class="st19" d="M312.3,218.4c0,64.8-52.5,97.7-117.3,97.7v-215C259.8,101.1,312.3,153.6,312.3,218.4L312.3,218.4z"/>
	<path class="st20" d="M312,218.4c0,64.6-52.4,97.6-117,97.6V101.4C259.6,101.4,312,153.8,312,218.4z"/>
	<path class="st21" d="M311.7,218.4c0,64.4-52.2,97.5-116.7,97.5V101.7C259.4,101.7,311.7,153.9,311.7,218.4z"/>
	<path class="st22" d="M311.4,218.4c0,64.3-52.1,97.3-116.4,97.3V102C259.3,102,311.4,154.1,311.4,218.4z"/>
	<path class="st23" d="M311.1,218.4c0,64.1-52,97.2-116.1,97.2V102.3C259.1,102.3,311.1,154.3,311.1,218.4z"/>
	<path class="st24" d="M310.8,218.4c0,64-51.9,97-115.8,97V102.6C259,102.6,310.8,154.4,310.8,218.4L310.8,218.4z"/>
	<path class="st25" d="M310.5,218.4c0,63.8-51.7,96.9-115.5,96.9V102.8C258.8,102.8,310.5,154.6,310.5,218.4L310.5,218.4z"/>
	<path class="st26" d="M310.2,218.4c0,63.6-51.6,96.7-115.2,96.7v-212C258.6,103.1,310.2,154.7,310.2,218.4
		C310.2,218.4,310.2,218.4,310.2,218.4z"/>
	<path class="st27" d="M310,218.4c0,63.5-51.5,96.6-115,96.6V103.4C258.5,103.4,310,154.8,310,218.4C310,218.3,310,218.4,310,218.4z
		"/>
	<path class="st28" d="M309.7,218.4c0,63.3-51.3,96.5-114.7,96.5V103.7C258.3,103.7,309.7,155,309.7,218.4
		C309.7,218.4,309.7,218.4,309.7,218.4z"/>
	<path class="st29" d="M309.4,218.4c0,63.2-51.2,96.3-114.4,96.3V104C258.2,104,309.4,155.2,309.4,218.4
		C309.4,218.4,309.4,218.4,309.4,218.4z"/>
	<path class="st30" d="M309.1,218.4c0,63-51.1,96.2-114.1,96.2V104.3C258,104.3,309.1,155.4,309.1,218.4
		C309.1,218.4,309.1,218.4,309.1,218.4z"/>
	<path class="st31" d="M308.8,218.4c0,62.9-51,96-113.8,96V104.6C257.9,104.6,308.8,155.5,308.8,218.4L308.8,218.4z"/>
	<path class="st32" d="M308.5,218.4c0,62.7-50.8,95.9-113.5,95.9V104.9C257.7,104.9,308.5,155.7,308.5,218.4L308.5,218.4z"/>
	<path class="st33" d="M308.2,218.4c0,62.5-50.7,95.7-113.2,95.7v-209C257.5,105.1,308.2,155.8,308.2,218.4
		C308.2,218.4,308.2,218.4,308.2,218.4z"/>
	<path class="st34" d="M307.9,218.4c0,62.4-50.6,95.6-112.9,95.6V105.4C257.4,105.4,307.9,156,307.9,218.4L307.9,218.4z"/>
	<path class="st35" d="M307.6,218.4c0,62.2-50.4,95.5-112.6,95.5V105.7C257.2,105.7,307.6,156.2,307.6,218.4L307.6,218.4z"/>
	<path class="st36" d="M307.4,218.4c0,62-50.3,95.3-112.4,95.3V106C257,106,307.4,156.3,307.4,218.4
		C307.4,218.4,307.4,218.4,307.4,218.4z"/>
	<path class="st37" d="M307.1,218.4c0,61.9-50.2,95.2-112.1,95.2V106.3C256.9,106.3,307.1,156.5,307.1,218.4z"/>
	<path class="st38" d="M306.8,218.4c0,61.7-50,95-111.8,95V106.6C256.7,106.6,306.8,156.6,306.8,218.4z"/>
	<path class="st39" d="M306.5,218.4c0,61.6-49.9,94.9-111.5,94.9V106.9C256.6,106.9,306.5,156.8,306.5,218.4z"/>
	<path class="st40" d="M306.2,218.4c0,61.4-49.8,94.7-111.2,94.7V107.2C256.4,107.2,306.2,157,306.2,218.4z"/>
	<path class="st41" d="M305.9,218.4c0,61.3-49.7,94.6-110.9,94.6V107.5C256.3,107.5,305.9,157.1,305.9,218.4z"/>
	<path class="st42" d="M305.6,218.4c0,61.1-49.5,94.5-110.6,94.5V107.8C256.1,107.8,305.6,157.3,305.6,218.4z"/>
	<path class="st43" d="M305.3,218.4c0,60.9-49.4,94.3-110.3,94.3V108.1C255.9,108.1,305.3,157.4,305.3,218.4L305.3,218.4z"/>
	<path class="st44" d="M305,218.4c0,60.8-49.3,94.2-110,94.2V108.3C255.8,108.3,305,157.6,305,218.4C305,218.4,305,218.4,305,218.4z
		"/>
	<path class="st45" d="M304.8,218.4c0,60.6-49.1,94-109.8,94V108.6C255.6,108.6,304.8,157.8,304.8,218.4
		C304.8,218.4,304.8,218.4,304.8,218.4z"/>
	<path class="st46" d="M304.5,218.4c0,60.5-49,93.9-109.5,93.9V108.9C255.5,108.9,304.5,157.9,304.5,218.4z"/>
	<path class="st47" d="M304.2,218.4c0,60.3-48.9,93.7-109.2,93.7V109.2C255.3,109.2,304.2,158.1,304.2,218.4L304.2,218.4z"/>
	<path class="st48" d="M303.9,218.4c0,60.1-48.8,93.6-108.9,93.6V109.5C255.1,109.5,303.9,158.2,303.9,218.4L303.9,218.4z"/>
	<path class="st49" d="M303.6,218.4c0,60-48.6,93.5-108.6,93.5v-202C255,109.8,303.6,158.4,303.6,218.4z"/>
	<path class="st50" d="M303.3,218.4c0,59.8-48.5,93.3-108.3,93.3V110.1C254.8,110.1,303.3,158.6,303.3,218.4L303.3,218.4z"/>
	<path class="st51" d="M303,218.4c0,59.7-48.4,93.2-108,93.2V110.4C254.6,110.4,303,158.7,303,218.4C303,218.4,303,218.4,303,218.4z
		"/>
	<path class="st52" d="M302.7,218.4c0,59.5-48.2,93-107.7,93V110.6C254.5,110.6,302.7,158.9,302.7,218.4z"/>
	<path class="st53" d="M302.4,218.4c0,59.3-48.1,92.9-107.4,92.9V110.9C254.3,110.9,302.4,159,302.4,218.4z"/>
	<path class="st54" d="M302.2,218.4c0,59.2-48,92.7-107.2,92.7V111.2C254.2,111.2,302.2,159.2,302.2,218.4z"/>
	<path class="st55" d="M301.9,218.4c0,59-47.9,92.6-106.9,92.6V111.5C254,111.5,301.9,159.4,301.9,218.4z"/>
	<path class="st56" d="M301.6,218.4c0,58.9-47.7,92.5-106.6,92.5v-199C253.9,111.8,301.6,159.5,301.6,218.4z"/>
	<path class="st57" d="M301.3,218.4c0,58.7-47.6,92.3-106.3,92.3V112.1C253.7,112.1,301.3,159.7,301.3,218.4L301.3,218.4z"/>
	<path class="st58" d="M301,218.4c0,58.5-47.5,92.2-106,92.2V112.4C253.5,112.4,301,159.8,301,218.4L301,218.4z"/>
	<path class="st59" d="M300.7,218.4c0,58.4-47.3,92-105.7,92V112.7C253.4,112.7,300.7,160,300.7,218.4L300.7,218.4z"/>
	<path class="st60" d="M300.4,218.4c0,58.2-47.2,91.9-105.4,91.9V113C253.2,113,300.4,160.2,300.4,218.4z"/>
	<path class="st61" d="M300.1,218.4c0,58.1-47.1,91.7-105.1,91.7V113.2C253.1,113.2,300.1,160.3,300.1,218.4L300.1,218.4z"/>
	<path class="st62" d="M299.9,218.4c0,57.9-46.9,91.6-104.9,91.6V113.5C252.9,113.5,299.9,160.5,299.9,218.4L299.9,218.4z"/>
	<path class="st63" d="M299.6,218.4c0,57.7-46.8,91.5-104.6,91.5v-196C252.7,113.8,299.6,160.6,299.6,218.4z"/>
	<path class="st64" d="M299.3,218.4c0,57.6-46.7,91.3-104.3,91.3V114.1C252.6,114.1,299.3,160.8,299.3,218.4z"/>
	<path class="st65" d="M299,218.4c0,57.4-46.6,91.2-104,91.2V114.4C252.4,114.4,299,161,299,218.4z"/>
	<path class="st66" d="M298.7,218.4c0,57.3-46.4,91-103.7,91V114.7C252.3,114.7,298.7,161.1,298.7,218.4L298.7,218.4z"/>
	<path class="st67" d="M298.4,218.4c0,57.1-46.3,90.9-103.4,90.9V115C252.1,115,298.4,161.3,298.4,218.4z"/>
	<path class="st68" d="M298.1,218.4c0,57-46.2,90.7-103.1,90.7V115.3C251.9,115.3,298.1,161.4,298.1,218.4
		C298.1,218.4,298.1,218.4,298.1,218.4z"/>
	<path class="st69" d="M297.8,218.4c0,56.8-46,90.6-102.8,90.6V115.6C251.8,115.6,297.8,161.6,297.8,218.4L297.8,218.4z"/>
	<path class="st70" d="M297.5,218.4c0,56.6-45.9,90.5-102.5,90.5v-193C251.6,115.8,297.5,161.7,297.5,218.4
		C297.5,218.4,297.5,218.4,297.5,218.4z"/>
	<path class="st71" d="M297.3,218.4c0,56.5-45.8,90.3-102.3,90.3V116.1C251.5,116.1,297.3,161.9,297.3,218.4L297.3,218.4z"/>
	<path class="st72" d="M297,218.4c0,56.3-45.6,90.2-102,90.2V116.4C251.3,116.4,297,162.1,297,218.4z"/>
	<path class="st73" d="M296.7,218.4c0,56.1-45.5,90-101.7,90V116.7C251.2,116.7,296.7,162.2,296.7,218.4
		C296.7,218.4,296.7,218.4,296.7,218.4z"/>
	<path class="st74" d="M296.4,218.4c0,56-45.4,89.9-101.4,89.9V117C251,117,296.4,162.4,296.4,218.4L296.4,218.4z"/>
	<path class="st75" d="M296.1,218.4c0,55.8-45.3,89.7-101.1,89.7V117.3C250.8,117.3,296.1,162.5,296.1,218.4z"/>
	<path class="st76" d="M295.8,218.4c0,55.7-45.1,89.6-100.8,89.6V117.6C250.7,117.6,295.8,162.7,295.8,218.4
		C295.8,218.4,295.8,218.4,295.8,218.4z"/>
	<path class="st77" d="M295.5,218.4c0,55.5-45,89.5-100.5,89.5v-190C250.5,117.8,295.5,162.8,295.5,218.4
		C295.5,218.4,295.5,218.4,295.5,218.4z"/>
	<path class="st78" d="M295.2,218.4c0,55.4-44.9,89.3-100.2,89.3V118.2C250.4,118.2,295.2,163,295.2,218.4L295.2,218.4z"/>
	<path class="st79" d="M294.9,218.4c0,55.2-44.7,89.2-99.9,89.2V118.4C250.2,118.4,294.9,163.2,294.9,218.4
		C294.9,218.4,294.9,218.4,294.9,218.4z"/>
	<path class="st80" d="M294.6,218.4c0,55-44.6,89-99.6,89V118.7C250,118.7,294.6,163.3,294.6,218.4
		C294.6,218.4,294.6,218.4,294.6,218.4z"/>
	<path class="st81" d="M294.4,218.4c0,54.9-44.5,88.9-99.4,88.9V119C249.9,119,294.4,163.5,294.4,218.4
		C294.4,218.4,294.4,218.4,294.4,218.4z"/>
	<path class="st82" d="M294.1,218.4c0,54.7-44.4,88.7-99.1,88.7V119.3C249.7,119.3,294.1,163.7,294.1,218.4
		C294.1,218.4,294.1,218.4,294.1,218.4z"/>
	<path class="st83" d="M293.8,218.4c0,54.6-44.2,88.6-98.8,88.6V119.6C249.6,119.6,293.8,163.8,293.8,218.4
		C293.8,218.4,293.8,218.4,293.8,218.4z"/>
	<path class="st84" d="M293.5,218.4c0,54.4-44.1,88.5-98.5,88.5v-187C249.4,119.9,293.5,164,293.5,218.4
		C293.5,218.4,293.5,218.4,293.5,218.4z"/>
	<path class="st85" d="M293.2,218.4c0,54.2-44,88.3-98.2,88.3V120.2C249.2,120.2,293.2,164.1,293.2,218.4z"/>
	<path class="st86" d="M292.9,218.4c0,54.1-43.8,88.2-97.9,88.2V120.5C249.1,120.5,292.9,164.3,292.9,218.4L292.9,218.4z"/>
	<path class="st87" d="M292.6,218.4c0,53.9-43.7,88-97.6,88V120.8C248.9,120.8,292.6,164.5,292.6,218.4
		C292.6,218.4,292.6,218.4,292.6,218.4z"/>
	<path class="st88" d="M292.3,218.4c0,53.8-43.6,87.9-97.3,87.9V121C248.8,121,292.3,164.6,292.3,218.4
		C292.3,218.4,292.3,218.4,292.3,218.4z"/>
	<path class="st89" d="M292,218.4c0,53.6-43.4,87.7-97.1,87.7V121.3c53.6,0,97,43.4,97.1,96.9C292.1,218.3,292.1,218.3,292,218.4z"
		/>
	<path class="st90" d="M291.8,218.4c0,53.4-43.3,87.6-96.8,87.6V121.6C248.4,121.6,291.8,164.9,291.8,218.4z"/>
	<path class="st91" d="M291.5,218.4c0,53.3-43.2,87.4-96.5,87.4V121.9C248.3,121.9,291.5,165.1,291.5,218.4z"/>
	<path class="st92" d="M291.2,218.4c0,53.1-43.1,87.3-96.2,87.3V122.2C248.1,122.2,291.2,165.3,291.2,218.4z"/>
	<path class="st93" d="M290.9,218.4c0,53-42.9,87.2-95.9,87.2V122.5C248,122.5,290.9,165.4,290.9,218.4z"/>
	<path class="st94" d="M290.6,218.4c0,52.8-42.8,87-95.6,87V122.8C247.8,122.8,290.6,165.6,290.6,218.4L290.6,218.4z"/>
	<path class="st95" d="M290.3,218.4c0,52.6-42.7,86.9-95.3,86.9V123.1C247.6,123.1,290.3,165.7,290.3,218.4L290.3,218.4z"/>
	<path class="st96" d="M290,218.4c0,52.5-42.6,86.7-95,86.7V123.3C247.5,123.3,290,165.9,290,218.4C290,218.4,290,218.4,290,218.4z"
		/>
	<path class="st97" d="M289.7,218.4c0,52.3-42.4,86.6-94.7,86.6V123.6C247.3,123.6,289.7,166,289.7,218.4
		C289.7,218.4,289.7,218.4,289.7,218.4z"/>
	<path class="st98" d="M289.5,218.4c0,52.2-42.3,86.4-94.4,86.4V123.9C247.2,123.9,289.5,166.2,289.5,218.4
		C289.5,218.4,289.5,218.4,289.5,218.4z"/>
	<path class="st99" d="M289.2,218.4c0,52-42.2,86.3-94.2,86.3V124.2C247,124.2,289.2,166.4,289.2,218.4
		C289.2,218.4,289.2,218.4,289.2,218.4z"/>
	<path class="st100" d="M288.9,218.4c0,51.9-42,86.2-93.9,86.2v-180C246.8,124.5,288.9,166.5,288.9,218.4z"/>
	<path class="st101" d="M288.6,218.4c0,51.7-41.9,86-93.6,86V124.8C246.7,124.8,288.6,166.7,288.6,218.4L288.6,218.4z"/>
	<path class="st102" d="M288.3,218.4c0,51.5-41.8,85.9-93.3,85.9V125.1C246.5,125.1,288.3,166.9,288.3,218.4z"/>
	<path class="st103" d="M288,218.4c0,51.4-41.6,85.7-93,85.7V125.4C246.4,125.4,288,167,288,218.4C288,218.4,288,218.4,288,218.4z"
		/>
	<path class="st104" d="M287.7,218.4c0,51.2-41.5,85.6-92.7,85.6V125.7C246.2,125.7,287.7,167.2,287.7,218.4z"/>
	<path class="st105" d="M287.4,218.4c0,51-41.4,85.4-92.4,85.4V125.9C246,125.9,287.4,167.3,287.4,218.4z"/>
	<path class="st106" d="M287.1,218.4c0,50.9-41.3,85.3-92.1,85.3V126.2C245.9,126.2,287.1,167.5,287.1,218.4z"/>
	<path class="st107" d="M286.9,218.4c0,50.7-41.1,85.2-91.9,85.2v-177C245.7,126.5,286.8,167.7,286.9,218.4z"/>
	<path class="st108" d="M286.6,218.4c0,50.6-41,85-91.6,85V126.8C245.6,126.8,286.6,167.8,286.6,218.4
		C286.6,218.4,286.6,218.4,286.6,218.4z"/>
	<path class="st109" d="M286.3,218.4c0,50.4-40.9,84.9-91.3,84.9V127.1C245.4,127.1,286.3,168,286.3,218.4
		C286.3,218.4,286.3,218.4,286.3,218.4z"/>
	<path class="st110" d="M286,218.4c0,50.3-40.7,84.7-91,84.7V127.4C245.3,127.4,286,168.1,286,218.4z"/>
	<path class="st111" d="M285.7,218.4c0,50.1-40.6,84.6-90.7,84.6V127.7C245.1,127.7,285.7,168.3,285.7,218.4
		C285.7,218.4,285.7,218.4,285.7,218.4z"/>
	<path class="st112" d="M285.4,218.4c0,49.9-40.5,84.4-90.4,84.4V128C244.9,128,285.4,168.5,285.4,218.4z"/>
	<path class="st113" d="M285.1,218.4c0,49.8-40.4,84.3-90.1,84.3V128.3C244.8,128.3,285.1,168.6,285.1,218.4
		C285.1,218.4,285.1,218.4,285.1,218.4z"/>
	<path class="st114" d="M284.8,218.4c0,49.6-40.2,84.1-89.8,84.1v-174C244.6,128.5,284.8,168.8,284.8,218.4
		C284.8,218.4,284.8,218.4,284.8,218.4z"/>
	<path class="st115" d="M284.5,218.4c0,49.5-40.1,84-89.6,84V128.8C244.5,128.8,284.5,168.9,284.5,218.4z"/>
	<path class="st116" d="M284.3,218.4c0,49.3-40,83.9-89.3,83.9V129.1C244.3,129.1,284.3,169.1,284.3,218.4L284.3,218.4z"/>
	<path class="st117" d="M284,218.4c0,49.1-39.8,83.7-89,83.7V129.4C244.1,129.4,284,169.2,284,218.4z"/>
	<path class="st118" d="M283.7,218.4c0,49-39.7,83.6-88.7,83.6V129.7C244,129.7,283.7,169.4,283.7,218.4z"/>
	<path class="st119" d="M283.4,218.4c0,48.8-39.6,83.4-88.4,83.4V130C243.8,130,283.4,169.6,283.4,218.4z"/>
	<path class="st120" d="M283.1,218.4c0,48.7-39.4,83.3-88.1,83.3V130.3C243.7,130.3,283.1,169.7,283.1,218.4
		C283.1,218.4,283.1,218.4,283.1,218.4z"/>
	<path class="st121" d="M282.8,218.4c0,48.5-39.3,83.1-87.8,83.1v-171C243.5,130.5,282.8,169.8,282.8,218.4
		C282.8,218.4,282.8,218.4,282.8,218.4z"/>
	<path class="st122" d="M282.5,218.4c0,48.3-39.2,83-87.5,83V130.9C243.3,130.9,282.5,170,282.5,218.4L282.5,218.4z"/>
	<path class="st123" d="M282.2,218.4c0,48.2-39.1,82.9-87.2,82.9V131.1C243.2,131.1,282.2,170.2,282.2,218.4z"/>
	<path class="st124" d="M282,218.4c0,48-38.9,82.7-86.9,82.7V131.4C243.1,131.5,282,170.4,282,218.4z"/>
	<path class="st125" d="M281.7,218.4c0,47.9-38.8,82.6-86.7,82.6V131.7C242.9,131.7,281.7,170.5,281.7,218.4L281.7,218.4z"/>
	<path class="st126" d="M281.4,218.4c0,47.7-38.7,82.4-86.4,82.4V132C242.7,132,281.4,170.7,281.4,218.4
		C281.4,218.4,281.4,218.4,281.4,218.4z"/>
	<path class="st127" d="M281.1,218.4c0,47.5-38.5,82.3-86.1,82.3V132.3C242.5,132.3,281.1,170.8,281.1,218.4z"/>
	<path class="st128" d="M280.8,218.4c0,47.4-38.4,82.1-85.8,82.1V132.6C242.4,132.6,280.8,171,280.8,218.4
		C280.8,218.4,280.8,218.4,280.8,218.4z"/>
	<path class="st129" d="M280.5,218.4c0,47.2-38.3,82-85.5,82V132.9C242.2,132.9,280.5,171.2,280.5,218.4
		C280.5,218.4,280.5,218.4,280.5,218.4z"/>
	<path class="st130" d="M280.2,218.4c0,47.1-38.2,81.9-85.2,81.9V133.2C242.1,133.2,280.2,171.3,280.2,218.4z"/>
	<path class="st131" d="M279.9,218.4c0,46.9-38,81.7-84.9,81.7V133.4C241.9,133.4,279.9,171.5,279.9,218.4z"/>
	<path class="st132" d="M279.6,218.4c0,46.7-37.9,81.6-84.6,81.6V133.7C241.7,133.7,279.6,171.6,279.6,218.4
		C279.6,218.4,279.6,218.4,279.6,218.4z"/>
	<path class="st133" d="M279.4,218.4c0,46.6-37.8,81.4-84.4,81.4V134C241.6,134,279.3,171.8,279.4,218.4
		C279.4,218.3,279.4,218.4,279.4,218.4z"/>
	<path class="st134" d="M279.1,218.4c0,46.4-37.6,81.3-84.1,81.3V134.3C241.4,134.3,279.1,171.9,279.1,218.4
		C279.1,218.4,279.1,218.4,279.1,218.4z"/>
	<path class="st135" d="M278.8,218.4c0,46.3-37.5,81.1-83.8,81.1V134.6C241.3,134.6,278.8,172.1,278.8,218.4
		C278.8,218.4,278.8,218.4,278.8,218.4z"/>
	<path class="st136" d="M278.5,218.4c0,46.1-37.4,81-83.5,81V134.9C241.1,134.9,278.5,172.3,278.5,218.4
		C278.5,218.4,278.5,218.4,278.5,218.4z"/>
	<path class="st137" d="M278.2,218.4c0,46-37.3,80.9-83.2,80.9V135.2C241,135.2,278.2,172.4,278.2,218.4L278.2,218.4z"/>
	<path class="st138" d="M277.9,218.4c0,45.8-37.1,80.7-82.9,80.7V135.5C240.8,135.5,277.9,172.6,277.9,218.4z"/>
	<path class="st139" d="M277.6,218.4c0,45.6-37,80.6-82.6,80.6V135.8C240.6,135.8,277.6,172.8,277.6,218.4z"/>
	<path class="st140" d="M277.3,218.4c0,45.5-36.9,80.4-82.3,80.4V136.1C240.5,136.1,277.3,172.9,277.3,218.4L277.3,218.4z"/>
	<path class="st141" d="M277,218.4c0,45.3-36.7,80.3-82,80.3V136.3C240.3,136.3,277,173.1,277,218.4C277,218.4,277,218.4,277,218.4z
		"/>
	<path class="st142" d="M276.8,218.4c0,45.1-36.6,80.1-81.8,80.1V136.6C240.2,136.6,276.8,173.2,276.8,218.4z"/>
	<path class="st143" d="M276.5,218.4c0,45-36.5,80-81.5,80V136.9C240,136.9,276.5,173.4,276.5,218.4z"/>
	<path class="st144" d="M276.2,218.4c0,44.8-36.4,79.9-81.2,79.9v-161C239.8,137.2,276.2,173.6,276.2,218.4z"/>
	<path class="st145" d="M275.9,218.4c0,44.7-36.2,79.7-80.9,79.7V137.5C239.7,137.5,275.9,173.7,275.9,218.4z"/>
	<path class="st146" d="M275.6,218.4c0,44.5-36.1,79.6-80.6,79.6V137.8C239.5,137.8,275.6,173.9,275.6,218.4L275.6,218.4z"/>
	<path class="st147" d="M275.3,218.4c0,44.4-36,79.4-80.3,79.4V138.1C239.4,138.1,275.3,174,275.3,218.4z"/>
	<path class="st148" d="M275,218.4c0,44.2-35.8,79.3-80,79.3V138.4C239.2,138.4,275,174.2,275,218.4C275,218.4,275,218.4,275,218.4z
		"/>
	<path class="st149" d="M274.7,218.4c0,44-35.7,79.1-79.7,79.1V138.6C239,138.6,274.7,174.3,274.7,218.4
		C274.7,218.4,274.7,218.4,274.7,218.4z"/>
	<path class="st150" d="M274.4,218.4c0,43.7-35.5,79-79.1,79c-0.1,0-0.2,0-0.3,0V138.9C238.9,138.9,274.4,174.5,274.4,218.4
		C274.4,218.4,274.4,218.4,274.4,218.4z"/>
	<path class="st151" d="M274.2,218.4c0,43.6-35.4,78.9-79,78.9c-0.1,0-0.1,0-0.2,0v-158C238.7,139.2,274.1,174.7,274.2,218.4z"/>
	<path class="st152" d="M273.9,218.4c0,43.5-35.3,78.7-78.8,78.7c0,0-0.1,0-0.1,0V139.5C238.6,139.5,273.9,174.8,273.9,218.4z"/>
	<path class="st1" d="M273.6,218.4c0,43.4-35.1,78.6-78.5,78.6c0,0,0,0,0,0V139.8C238.4,139.8,273.6,175,273.6,218.4z"/>
</g>
<g id="Calque_24">
	<path class="st153" d="M11.1,228.2h23l-17.6,17.6l12.5,12.5l14.2-14.2l15.9-15.9h13l-15.2,15.3L69.4,256l27.8-27.8h13.9l-17.1,16
		l-7.2,6.7l-30.2,28.2l41.3-1.4l9.6-0.3l23.6-0.8l-0.8,0.8l-9.1,9.1H82v7.4c1,0.1,1.9,0.1,2.9,0.3c2.8,0.4,5.5,1,8.1,2
		c4-0.1,7.9,0.2,11.8,0.8c1.2-0.5,2.5-0.9,3.7-1.2c1.5-1.1,3-2.1,4.7-3c0.8-0.4,1.6-0.8,2.4-1.2l0.7-0.3c0.3-0.1,0.5-0.2,0.8-0.3
		c0.2-0.1,0.4-0.2,0.6-0.3c0.4-0.2,0.8-0.3,1.2-0.5c0.5-0.2,1-0.4,1.5-0.5s1-0.3,1.6-0.5s1.1-0.3,1.6-0.4s1.1-0.2,1.6-0.3
		c4.2-0.8,8.5-1,12.7-0.5l2.3-2.3l-0.1,2.5c2.6,0.4,5.1,0.9,7.6,1.7c0.8,0.3,1.7,0.5,2.5,0.8c1.6-0.2,3.1-0.4,4.7-0.4
		c4.8-0.1,9.5,0.6,14,2.1c1.9-0.2,3.9-0.3,5.8-0.3c0.6,0,1.1,0,1.7,0.1h0.3c0.6,0,1.1,0.1,1.7,0.1s1.2,0.1,1.8,0.2s1.2,0.2,1.8,0.3
		c1.2,0.2,2.4,0.4,3.6,0.7c0.6,0.1,1.2,0.3,1.8,0.5s1.2,0.3,1.8,0.5l0.5,0.2l0.7,0.2c1.6-0.1,3.2-0.1,4.8-0.1V38h-6.3v23L171,43.3
		l-12.5,12.5L188.7,86v13l-15.3-15.2l-12.5,12.5l11.2,11.2l16.6,16.5v14l-16-17.1l-6.7-7.2l-28.3-30.2l1.3,41.3l0.3,9.6l0.8,23.6
		l-9.9-9.9V109h-17.7v21.6l-9.2-9.2V78.7H85.7v25L69.4,87.4l-9,9l16.3,16.2h-25v17.7h42.7l9.2,9.2H82v17.7h39.3l9.1,9.1l0.8,0.8
		l-23.7-0.8l-9.6-0.3l-41.3-1.4l30.2,28.2l7.2,6.7l17.1,16H97.1L80.6,199l-11.2-11.2l-12.5,12.5l15.3,15.3h-13l-16-15.9l-14.2-14.2
		l-12.5,12.5l17.6,17.6h-23V228.2z"/>
	<path class="st154" d="M36.9,227.4h19.8l-15.2,15.2l1.7,1.6l9.1,9.1l7.2-7.2l18.7-18.7h11.2l-13.1,13.1l4.3,4.3l6.2,6.2l0.2,0.2
		l7-7l16-16l0.9-0.9h12L76,271.2l64.1-2.1l-8.5,8.5H97.9v15.2h15.4c0.8-0.4,1.6-0.8,2.4-1.2c0.2-0.1,0.4-0.2,0.7-0.3
		s0.5-0.2,0.8-0.3l0.6-0.3c0.4-0.2,0.8-0.3,1.2-0.5c0.5-0.2,1-0.4,1.5-0.5s1-0.3,1.6-0.5s1.1-0.3,1.6-0.4s1.1-0.3,1.6-0.3
		c4.2-0.8,8.5-1,12.7-0.5c0.5,0,1,0.1,1.5,0.2v-2.9l8.5-8.5l-0.4,13.1l0.2,0.1c0.8,0.3,1.7,0.5,2.5,0.8c1.6-0.2,3.1-0.4,4.7-0.4
		c4.8-0.1,9.5,0.6,14,2.1c1.9-0.2,3.9-0.3,5.8-0.3c0.6,0,1.1,0,1.7,0.1h0.3c0.6,0,1.1,0.1,1.7,0.1s1.2,0.1,1.8,0.2l1.8,0.3
		c1.2,0.2,2.4,0.5,3.6,0.7c0.6,0.1,1.2,0.3,1.8,0.5s1.2,0.4,1.8,0.5l0.5-0.5v0.7l0.7,0.2c1.6-0.1,3.2-0.1,4.8-0.1V63.8h-5.4v19.8
		l-15.2-15.2l-1.7,1.7l-9.1,9.1l7.2,7.2l18.7,18.7v11.2l-13.1-13.1l-4.3,4.3l-6.2,6.2l-0.2,0.2l7,7l16,16l0.9,0.9v12L145.7,103
		l2.1,64l-8.5-8.5v-33.7h-15.2v18.6l-7.9-7.9V98.8H101v21.5l-14-14l-7.7,7.8l14,14H71.9v15.2h36.7l7.9,7.9H97.9v15.2h33.8l8.5,8.5
		L76,172.6l46.8,43.9h-12l-0.9-0.9l-16-16l-7-7l-10.7,10.8l13.1,13.1H78.2l-25.9-25.9l-10.8,10.8l15.2,15.2H36.9V227.4z"/>
	<path class="st155" d="M289.5,150.3l-4.2-1.8l-14.1-5.8l-1.8-0.7l-4.4-1.8c-1.4-0.6-2.9-0.6-4.3,0c-0.6-1.4-1.6-2.4-3-3l-7-2.9l0,0
		l-20-8.3c-1.4-0.6-2.9-0.6-4.3,0c-0.6-1.4-1.6-2.4-3-3l-8.7-3.6h-0.1l-17.5-7.3c-0.5-0.2-1-0.3-1.5-0.4c-0.2,0-0.4,0-0.6,0v11.8
		l18.6,7.8l1.7,0.7v2.3c0,0.7,0.1,1.5,0.4,2.2l0,0c1.2,2.9,4.5,4.3,7.4,3.1l5.2-2.1l19.7,8.2l1.7,0.7v2.3c0,0.7,0.1,1.5,0.4,2.2l0,0
		c1.2,2.9,4.5,4.3,7.4,3.1c0,0,0,0,0,0l5.2-2.1l17.1,7.1l0,0l1.7,0.7v116l-1.8,0.7l-14,5.9l-17.4-7.2v-19.7c0-0.7-0.1-1.5-0.4-2.2
		c-1.2-2.9-4.5-4.3-7.4-3.1c0,0,0,0-0.1,0l-26,10.8c-2.1,0.9-3.5,2.9-3.5,5.2v24.4h11.3v-20.7l14.6-6.1v14.9c0,2.3,1.4,4.4,3.5,5.2
		l15.8,6.6l7.3,3c1.4,0.6,3,0.6,4.4,0l1.4-0.6l1.7-0.7l4.2-1.7l10-4.1l4.3-1.8c2.1-0.9,3.5-2.9,3.5-5.2V155.6
		C293,153.3,291.6,151.2,289.5,150.3z"/>
	<path class="st156" d="M108.4,159.4v72.3l9.7,4c2.1,0.9,3.5,2.9,3.5,5.2c0,0.7-0.1,1.5-0.4,2.2c-0.6,1.4-1.7,2.5-3.1,3.1l-8,3.3
		l-1.7,0.7v25.2l1.8,0.7l34.2,14.2h-29.6l-10-4.1l-4.3-1.8c-2.1-0.9-3.5-2.9-3.5-5.2v-32.7c0-2.3,1.4-4.4,3.5-5.2l0.6-0.3l-0.6-0.3
		c-1.6-0.7-2.9-2.1-3.3-3.8c-0.1-0.5-0.2-0.9-0.2-1.4v-79.8c0-2.3,1.4-4.4,3.5-5.2l4.2-1.8l14.1-5.8l1.8-0.7l18.8-7.8l0,0l36-15h0.1
		l17.3-7.2c0.5-0.2,1-0.3,1.5-0.4c0.2,0,0.4,0,0.6,0v11.8L110,158.7l0,0L108.4,159.4z"/>
	<path class="st157" d="M195,138.9l-44.2,18.4l7.3,3L195,145v22.5l-9.8,4.1l7.4,3.1l2.5-1v20.3l-92.3-38.3l92.3-38.3V138.9z"/>
	<path class="st1" d="M221,128.1l-26,10.8v-21.6L221,128.1z"/>
	<path class="st1" d="M255.5,142.4L195,167.5V145l33.4-13.9L255.5,142.4z"/>
	<path class="st1" d="M287.3,155.6L195,193.9v-20.3l67.8-28.2L287.3,155.6z"/>
	<path class="st0" d="M221,134.1l-62.9,26.1l-7.3-3l70.3-29.2V134.1z"/>
	<path class="st0" d="M255.5,148.4l-62.9,26.1l-7.4-3.1l70.3-29.2V148.4z"/>
	<path class="st158" d="M172.7,264.5v11l-70-29.1l13.2-5.5L172.7,264.5z"/>
	
		<linearGradient id="SVGID_1_" gradientUnits="userSpaceOnUse" x1="102.69" y1="229.075" x2="195" y2="229.075" gradientTransform="matrix(1 0 0 -1 0 452)">
		<stop  offset="0" style="stop-color:#94E0F7"/>
		<stop  offset="1" style="stop-color:#FFFFFF"/>
	</linearGradient>
	<path class="st159" d="M124.6,199.1v11l70.4,29.2v51h-65.5l-22.1-9.2l-4.8-2v-32.7l7.4,3.1l62.6,26v-11l-51.6-21.4l-5.2-2.2
		l-13.2-5.5v-79.8l7.4,3.1l0,0l84.9,35.3v34.4l-0.7-0.3l-0.2-0.1l-2.8-1.2l-0.7-0.3l-4.1-1.7l-0.8-0.3l-0.3-0.1l-1.3-0.5l-7.8-3.2
		l-2.7-1.1L163,215l-2.1-0.9l-1.4-0.6l-2.5-1l-9.6-4l-2.5-1l-2.9-1.3l-4.2-1.7h-0.1l-3.2-1.3l-3.5-1.5l-3.1-1.3L124.6,199.1z"/>
	<path class="st156" d="M137.8,204.5l-13.2,5.5v-11L137.8,204.5z"/>
	<path class="st158" d="M195,228.3v11L124.6,210l0,0l13.2-5.5L195,228.3z"/>
	<path class="st160" d="M279.9,158.6L279.9,158.6L195,193.9v96.4h21.7v-24.5l26-10.8l5.2-2.2l17.9-7.4v42.6l16.7-7l4.8-2V155.6
		L279.9,158.6z M216.7,230.3v-10.9c1-0.4,1.9-0.8,2.9-1.2l2.8-1.2l12.4-5.1l3.2-1.3l4.8-2l9.6-4l4.6-1.9l1.5-0.6l7.2-3v10.9
		L216.7,230.3z"/>
	<path class="st161" d="M265.8,199v10.9l-13.3-5.3L265.8,199z"/>
	<path class="st162" d="M265.8,209.9l-49.1,20.4v-10.9l35.8-14.9L265.8,209.9z"/>
	<path class="st162" d="M265.8,245.5v42.6l-23.1-9.6v-23.4L265.8,245.5z"/>
	<polyline class="st163" points="198.4,290.3 198.4,113 198.4,92.2 198.4,52.2 	"/>
	<path class="st164" d="M195,167.5v6.1l-2.5,1l-7.4-3.1L195,167.5z"/>
	<path class="st164" d="M195,138.9v6.1l-36.9,15.3l-7.3-3L195,138.9z"/>
	<rect x="193.3" y="38" class="st2" width="3" height="332"/>
	<path class="st165" d="M210.4,380.6c-8,0-14.4,6.5-14.4,14.4c0,8,6.5,14.4,14.4,14.4c8,0,14.4-6.5,14.4-14.4
		C224.9,387,218.4,380.6,210.4,380.6C210.5,380.6,210.4,380.6,210.4,380.6z M213.3,402.7h-2.9v-11.1c-1.1,1-2.4,1.8-3.8,2.2v-2.7
		c0.9-0.3,1.8-0.8,2.5-1.4c0.8-0.6,1.5-1.5,1.9-2.5h2.4L213.3,402.7z"/>
	<path class="st2" d="M213.3,387.3v15.4h-2.9v-11.1c-1.1,1-2.4,1.8-3.8,2.2v-2.7c0.9-0.3,1.8-0.8,2.5-1.4c0.8-0.6,1.5-1.5,1.9-2.5
		L213.3,387.3z"/>
	<path class="st166" d="M181.2,391.4c-0.1-0.5-0.3-1-0.7-1.3c-0.3-0.2-0.6-0.3-0.9-0.3c-0.3,0-0.7,0.1-0.9,0.3
		c-0.3,0.3-0.5,0.7-0.6,1.2c-0.2,1.2-0.3,2.5-0.3,3.8c0,1.2,0,2.4,0.3,3.6c0.1,0.5,0.3,1,0.7,1.3c0.3,0.2,0.6,0.3,0.9,0.3
		c0.3,0,0.7-0.1,0.9-0.3c0.3-0.3,0.5-0.7,0.6-1.2c0.2-1.2,0.3-2.5,0.3-3.8C181.5,393.8,181.4,392.6,181.2,391.4z M181.2,391.4
		c-0.1-0.5-0.3-1-0.7-1.3c-0.3-0.2-0.6-0.3-0.9-0.3c-0.3,0-0.7,0.1-0.9,0.3c-0.3,0.3-0.5,0.7-0.6,1.2c-0.2,1.2-0.3,2.5-0.3,3.8
		c0,1.2,0,2.4,0.3,3.6c0.1,0.5,0.3,1,0.7,1.3c0.3,0.2,0.6,0.3,0.9,0.3c0.3,0,0.7-0.1,0.9-0.3c0.3-0.3,0.5-0.7,0.6-1.2
		c0.2-1.2,0.3-2.5,0.3-3.8C181.5,393.8,181.4,392.6,181.2,391.4z M179.6,380.6c-8,0-14.4,6.5-14.4,14.4c0,8,6.5,14.4,14.4,14.4
		c8,0,14.4-6.5,14.4-14.4C194.1,387,187.6,380.6,179.6,380.6C179.6,380.6,179.6,380.6,179.6,380.6z M183,401.1c-0.8,1-2,1.6-3.4,1.5
		c-1.4,0-2.7-0.6-3.5-1.7c-0.9-1.1-1.3-3.1-1.3-6s0.5-4.9,1.5-6.1c1.6-1.9,4.4-2.1,6.2-0.5c0.2,0.1,0.3,0.3,0.5,0.5
		c1,1.2,1.4,3.3,1.4,6.1S184,399.9,183,401.1z M180.6,390c-0.3-0.2-0.6-0.3-0.9-0.3c-0.3,0-0.7,0.1-0.9,0.3
		c-0.3,0.3-0.5,0.7-0.6,1.2c-0.2,1.2-0.3,2.5-0.3,3.8c0,1.2,0,2.4,0.3,3.6c0.1,0.5,0.3,1,0.7,1.3c0.3,0.2,0.6,0.3,0.9,0.3
		c0.3,0,0.7-0.1,0.9-0.3c0.3-0.3,0.5-0.7,0.6-1.2c0.2-1.2,0.3-2.5,0.3-3.8c0-1.2,0-2.4-0.3-3.6C181.1,390.8,180.9,390.4,180.6,390z"
		/>
	<path class="st2" d="M183,388.9c-1.6-1.9-4.4-2.1-6.2-0.5c-0.2,0.1-0.3,0.3-0.5,0.5c-1,1.3-1.5,3.3-1.5,6.1s0.4,4.9,1.3,6
		c0.8,1.1,2.1,1.7,3.5,1.7c1.3,0.1,2.6-0.5,3.4-1.5c1-1.3,1.5-3.3,1.5-6.2C184.4,392.1,184,390.1,183,388.9z M181.2,398.8
		c-0.1,0.5-0.3,0.9-0.6,1.2c-0.3,0.2-0.6,0.3-0.9,0.3c-0.3,0-0.7-0.1-0.9-0.3c-0.3-0.4-0.6-0.8-0.7-1.3c-0.2-1.2-0.3-2.4-0.3-3.6
		c0-1.3,0.1-2.5,0.3-3.8c0.1-0.5,0.3-0.9,0.6-1.2c0.3-0.2,0.6-0.3,0.9-0.3c0.3,0,0.7,0.1,0.9,0.3c0.3,0.4,0.6,0.8,0.7,1.3
		c0.2,1.2,0.3,2.4,0.3,3.6C181.5,396.3,181.4,397.5,181.2,398.8z"/>
	<path class="st166" d="M148.8,380.6c-8,0-14.4,6.5-14.4,14.4c0,8,6.5,14.4,14.4,14.4c8,0,14.4-6.5,14.4-14.4
		C163.3,387,156.8,380.6,148.8,380.6C148.9,380.6,148.8,380.6,148.8,380.6z M153.6,400v2.7H144c0.1-1,0.4-2,0.9-2.9
		c0.9-1.4,1.9-2.6,3.1-3.7c0.8-0.8,1.6-1.6,2.3-2.5c0.4-0.5,0.5-1.2,0.6-1.8c0-0.5-0.1-1.1-0.5-1.5c-0.8-0.7-2-0.7-2.7,0
		c-0.4,0.5-0.6,1.2-0.6,1.8l-2.7-0.3c0-1.3,0.6-2.6,1.5-3.5c0.9-0.7,2.1-1.1,3.2-1.1c1.2-0.1,2.4,0.4,3.3,1.2c0.8,0.8,1.2,1.9,1.2,3
		c0,0.7-0.1,1.4-0.4,2c-0.3,0.7-0.6,1.4-1.1,2c-0.5,0.7-1.1,1.3-1.8,2c-0.9,0.9-1.4,1.4-1.6,1.7c-0.2,0.3-0.4,0.5-0.6,0.8L153.6,400
		z"/>
	<path class="st166" d="M242.9,391.4c-0.1-0.5-0.3-1-0.7-1.3c-0.3-0.2-0.6-0.3-0.9-0.3c-0.3,0-0.7,0.1-0.9,0.3
		c-0.3,0.3-0.5,0.7-0.6,1.2c-0.2,1.2-0.3,2.5-0.3,3.8c0,1.2,0,2.4,0.3,3.6c0.1,0.5,0.3,1,0.7,1.3c0.3,0.2,0.6,0.3,0.9,0.3
		c0.3,0,0.7-0.1,0.9-0.3c0.3-0.3,0.5-0.7,0.6-1.2c0.2-1.2,0.3-2.5,0.3-3.8C243.2,393.8,243.1,392.6,242.9,391.4z M242.9,391.4
		c-0.1-0.5-0.3-1-0.7-1.3c-0.3-0.2-0.6-0.3-0.9-0.3c-0.3,0-0.7,0.1-0.9,0.3c-0.3,0.3-0.5,0.7-0.6,1.2c-0.2,1.2-0.3,2.5-0.3,3.8
		c0,1.2,0,2.4,0.3,3.6c0.1,0.5,0.3,1,0.7,1.3c0.3,0.2,0.6,0.3,0.9,0.3c0.3,0,0.7-0.1,0.9-0.3c0.3-0.3,0.5-0.7,0.6-1.2
		c0.2-1.2,0.3-2.5,0.3-3.8C243.2,393.8,243.1,392.6,242.9,391.4z M241.3,380.6c-8,0-14.4,6.5-14.4,14.4c0,8,6.5,14.4,14.4,14.4
		c8,0,14.4-6.5,14.4-14.4C255.7,387,249.3,380.6,241.3,380.6C241.3,380.6,241.3,380.6,241.3,380.6z M244.6,401.1
		c-0.8,1-2,1.6-3.4,1.5c-1.4,0-2.7-0.6-3.5-1.7c-0.9-1.1-1.3-3.1-1.3-6s0.5-4.9,1.5-6.1c1.6-1.9,4.4-2.1,6.2-0.5
		c0.2,0.1,0.3,0.3,0.5,0.5c1,1.2,1.4,3.3,1.4,6.1S245.6,399.9,244.6,401.1z M242.2,390c-0.3-0.2-0.6-0.3-0.9-0.3
		c-0.3,0-0.7,0.1-0.9,0.3c-0.3,0.3-0.5,0.7-0.6,1.2c-0.2,1.2-0.3,2.5-0.3,3.8c0,1.2,0,2.4,0.3,3.6c0.1,0.5,0.3,1,0.7,1.3
		c0.3,0.2,0.6,0.3,0.9,0.3c0.3,0,0.7-0.1,0.9-0.3c0.3-0.3,0.5-0.7,0.6-1.2c0.2-1.2,0.3-2.5,0.3-3.8c0-1.2,0-2.4-0.3-3.6
		C242.8,390.8,242.5,390.4,242.2,390z"/>
	<path class="st166" d="M210.5,380.6c-8,0-14.4,6.5-14.4,14.4c0,8,6.5,14.4,14.4,14.4c8,0,14.4-6.5,14.4-14.4
		C224.9,387.1,218.5,380.6,210.5,380.6C210.5,380.6,210.5,380.6,210.5,380.6z M215.3,400v2.7h-9.6c0.1-1,0.4-2,0.9-2.9
		c0.9-1.4,1.9-2.6,3.1-3.7c0.8-0.8,1.6-1.6,2.3-2.5c0.4-0.5,0.5-1.2,0.6-1.8c0-0.5-0.1-1.1-0.5-1.5c-0.8-0.7-2-0.7-2.7,0
		c-0.4,0.5-0.6,1.2-0.6,1.8l-2.7-0.3c0-1.3,0.6-2.6,1.5-3.5c0.9-0.7,2.1-1.1,3.2-1.1c1.2-0.1,2.4,0.4,3.3,1.2c0.8,0.8,1.2,1.9,1.2,3
		c0,0.7-0.1,1.4-0.4,2c-0.3,0.7-0.6,1.4-1.1,2c-0.5,0.7-1.1,1.3-1.8,2c-0.9,0.9-1.4,1.4-1.6,1.7c-0.2,0.3-0.4,0.5-0.6,0.8L215.3,400
		z"/>
	<path class="st167" d="M148.2,400h5.4v2.7H144c0.1-1,0.4-2,0.9-2.9c0.9-1.4,1.9-2.6,3.1-3.7c0.8-0.8,1.6-1.6,2.3-2.5
		c0.4-0.5,0.5-1.2,0.6-1.8c0-0.5-0.1-1.1-0.5-1.5c-0.8-0.7-2-0.7-2.7,0c-0.4,0.5-0.6,1.2-0.6,1.8l-2.7-0.3c0-1.3,0.6-2.6,1.5-3.5
		c0.9-0.7,2.1-1.1,3.2-1.1c1.2-0.1,2.4,0.4,3.3,1.2c0.8,0.8,1.2,1.9,1.2,3c0,0.7-0.1,1.4-0.4,2c-0.3,0.7-0.6,1.4-1.1,2
		c-0.5,0.7-1.1,1.3-1.8,2c-0.9,0.9-1.4,1.4-1.6,1.7C148.5,399.5,148.4,399.7,148.2,400z"/>
	<path class="st165" d="M243,392.6c0,0.7-0.2,1.4-0.6,1.9c-0.3,0.4-0.8,0.7-1.3,0.7c-0.5,0-1.1-0.3-1.4-0.7
		c-0.4-0.6-0.6-1.4-0.6-2.1c-0.1-0.7,0.1-1.5,0.5-2.1c0.3-0.4,0.8-0.6,1.3-0.6c0.6,0,1.1,0.3,1.4,0.8
		C242.8,391.1,243,391.9,243,392.6z"/>
	<path class="st165" d="M241.2,380.6c-8,0-14.4,6.5-14.4,14.4c0,8,6.5,14.4,14.4,14.4c8,0,14.4-6.5,14.4-14.4
		C255.7,387,249.2,380.6,241.2,380.6C241.2,380.6,241.2,380.6,241.2,380.6z M244.6,400.9c-0.9,1.2-2.3,1.9-3.8,1.8
		c-1,0-2-0.3-2.7-0.9c-0.8-0.8-1.2-1.7-1.3-2.8l2.7-0.3c0,0.5,0.2,0.9,0.5,1.3c0.3,0.3,0.7,0.4,1.1,0.4c0.6,0,1.1-0.3,1.4-0.8
		c0.5-1.1,0.8-2.2,0.8-3.4c-0.6,0.8-1.6,1.3-2.6,1.3c-1.1,0-2.2-0.5-2.9-1.4c-1.7-2.1-1.6-5.2,0.1-7.3c0.8-0.9,2.1-1.4,3.3-1.4
		c1.4,0,2.8,0.6,3.6,1.8c0.9,1.2,1.4,3.1,1.4,5.8C246.1,397.6,245.6,399.6,244.6,400.9L244.6,400.9z"/>
	<path class="st167" d="M244.6,389.1c-0.8-1.1-2.2-1.8-3.6-1.8c-1.3,0-2.5,0.5-3.3,1.4c-1.7,2.1-1.7,5.1-0.1,7.3
		c0.7,0.9,1.8,1.4,2.9,1.4c1,0,2-0.5,2.6-1.3c0,1.2-0.2,2.4-0.8,3.4c-0.3,0.5-0.9,0.8-1.4,0.8c-0.4,0-0.8-0.1-1.1-0.4
		c-0.3-0.3-0.5-0.8-0.5-1.3l-2.7,0.3c0.1,1.1,0.6,2.1,1.3,2.8c0.8,0.6,1.7,1,2.7,0.9c1.5,0,2.9-0.6,3.8-1.8c1-1.2,1.5-3.2,1.5-6
		C246.1,392.1,245.6,390.1,244.6,389.1z M242.4,394.6c-0.3,0.4-0.8,0.7-1.3,0.7c-0.5,0-1.1-0.3-1.4-0.7c-0.4-0.6-0.6-1.4-0.6-2.1
		c-0.1-0.7,0.1-1.5,0.5-2.1c0.3-0.4,0.8-0.6,1.3-0.6c0.6,0,1.1,0.3,1.4,0.8c0.4,0.6,0.7,1.4,0.6,2.2
		C243,393.3,242.8,394,242.4,394.6L242.4,394.6z"/>
</g>
<g id="Calque_25">
	<path class="st166" d="M351.7,337.9l-3.9-5.6c2.5-2.6,3.9-6,3.8-9.6c0-8.6-6.4-14.6-15.5-14.6h-11.8c-0.9,0-1.8,0.3-2.5,0.9
		c-0.7-0.6-1.6-0.9-2.5-0.9h-8.1v-27c0-2.2-1.8-4-4-4h-7.5c-2.2,0-4,1.8-4,4v4.8l-7.3-7.8c-0.8-0.8-1.8-1.3-2.9-1.3h-4.2
		c-2.2,0-4,1.8-4,4V296l-7.4-16.6c-0.6-1.4-2.1-2.4-3.6-2.4h-4.6c-1.6,0-3,0.9-3.6,2.4l-8.3,18.4v-6.1c0-0.3,0-0.5-0.1-0.8
		c1-0.8,1.6-2,1.6-3.2V281c0-2.2-1.8-4-4-4h-20.3c-2.2,0-4,1.8-4,4v0.2c-3.2-2.8-7.3-4.4-11.5-4.2h-11c-2.2,0-4,1.8-4,4v2.8
		c-6.8-8.5-19.2-10-27.7-3.2c-1.4,1.1-2.7,2.4-3.7,3.9c-2.5-4.6-7.5-7.5-13.8-7.5h-11.8c-1,0-2,0.4-2.7,1.1
		c-0.7-0.7-1.7-1.1-2.7-1.1h-26c-0.9,0-1.7,0.3-2.4,0.8c-0.7-0.5-1.5-0.8-2.4-0.8H82.8c-2.2,0-4,1.8-4,4v27h-11
		c-1.6,0-3.1,1-3.7,2.5c-3.3-1.9-7.1-2.9-10.9-2.8c-8.9,0-15,5.3-15,12.8c-0.1,3,1.1,5.9,3.2,8c-0.1,0.1-0.2,0.3-0.3,0.5l-3.6,6
		c-1.1,1.8-0.6,4.1,1.1,5.3c4,2.8,8.8,4.3,13.7,4.2c5,0,9-1.5,11.6-4.2c0.1,2.1,1.9,3.8,4,3.8h7.4c2.2,0,4-1.8,4-4v-3.3
		c4-0.1,7.9-1.5,11-4.2v7.4c0,2.2,1.8,4,4,4h0.3l-11.4,25.4c-0.9,2,0,4.4,2,5.3c0.5,0.2,1.1,0.4,1.6,0.4h7.8c1.6,0,3.1-1,3.7-2.5
		l0.9-2.2h4.7l0.9,2.2c0.6,1.5,2.1,2.5,3.7,2.5h7.9c1.1,0,2.1-0.5,2.9-1.2c2.8,1.1,5.8,1.6,8.8,1.6c4.9,0,8.8-1.4,11.4-4
		c3.9,2.7,8.5,4.1,13.3,4c5,0,8.9-1.5,11.5-4.1c0.1,2.1,1.9,3.8,4,3.8h20.4c0.8,0,1.7-0.3,2.3-0.8c0.7,0.5,1.5,0.8,2.3,0.8h7.4
		c1.8,0,3.3-1.2,3.8-2.9c0.6,0.4,1.4,0.6,2.1,0.6h4.6c0.8,0,1.6-0.2,2.2-0.7c0.5,1.7,2.1,2.9,3.9,2.9h7.5c1.1,0,2.1-0.4,2.8-1.1
		c0.7,0.7,1.7,1.1,2.8,1.1h12c5.8,0,9.4-1.5,11.7-3.5c0.2,2,1.9,3.5,3.9,3.5h20.1c1.3,0,2.6-0.7,3.3-1.8c0.7,1.1,2,1.8,3.3,1.8h7.7
		c2.2,0,4-1.8,4-4v-9.9l9.7-16.2c0.2-0.3,0.3-0.6,0.4-0.9h12.3c0.9,0,1.8-0.3,2.5-0.9c0.7,0.6,1.6,0.9,2.5,0.9h7.5
		c1.8,0,3.3-1.2,3.8-2.9l0.7,1c0.7,1.2,2,1.9,3.4,1.9h8.7c2.2,0,4-1.8,4-4C352.4,339.3,352.2,338.5,351.7,337.9L351.7,337.9z
		 M289.9,357.4l0.3-0.8h0.1L289.9,357.4z M328.3,316h0.3c-0.1,0.1-0.2,0.2-0.3,0.4V316z M328.3,330.9v-2.4c0.3,0.5,0.6,0.9,1,1.2
		C328.9,330.1,328.6,330.5,328.3,330.9L328.3,330.9z M335.8,322.5v-0.1h0.2v0.1L335.8,322.5z M338.4,330.5c0,0.1,0,0.1,0,0.2
		c-0.1-0.2-0.2-0.3-0.3-0.4l0.5-0.2C338.5,330.2,338.4,330.4,338.4,330.5L338.4,330.5z"/>
	
		<linearGradient id="SVGID_2_" gradientUnits="userSpaceOnUse" x1="93.02" y1="174" x2="93.02" y2="145.86" gradientTransform="matrix(1 0 0 -1 0 452)">
		<stop  offset="0" style="stop-color:#FF72D0"/>
		<stop  offset="1" style="stop-color:#C670D0"/>
	</linearGradient>
	<path class="st168" d="M103.2,299.5v6.6H82.8V278h20.3v6.6H90.4v4h11.2v6.5H90.4v4.4L103.2,299.5z"/>
	
		<linearGradient id="SVGID_3_" gradientUnits="userSpaceOnUse" x1="120.84" y1="174" x2="120.84" y2="145.52" gradientTransform="matrix(1 0 0 -1 0 452)">
		<stop  offset="0" style="stop-color:#FF72D0"/>
		<stop  offset="1" style="stop-color:#C670D0"/>
	</linearGradient>
	<path class="st169" d="M107.9,293.5V278h7.6v16.1c0,2.6,1.3,5.6,5.3,5.6s5.4-3,5.4-5.6V278h7.6v15.5c0,8.6-5.2,13-13,13
		S107.9,302.1,107.9,293.5z"/>
	
		<linearGradient id="SVGID_4_" gradientUnits="userSpaceOnUse" x1="151.34" y1="174" x2="151.34" y2="145.86" gradientTransform="matrix(1 0 0 -1 0 452)">
		<stop  offset="0" style="stop-color:#FF72D0"/>
		<stop  offset="1" style="stop-color:#C670D0"/>
	</linearGradient>
	<path class="st170" d="M150.1,298.9h-3.3v7.2h-7.5V278h11.8c7.2,0,11.5,4.6,11.5,10.6c0.1,3.7-2,7.1-5.3,8.8l6.1,8.7h-8.7
		L150.1,298.9z M146.8,292.6h3.7c2.8,0,4.5-1.8,4.5-4s-1.6-4.2-4.6-4.2h-3.6L146.8,292.6z"/>
	
		<linearGradient id="SVGID_5_" gradientUnits="userSpaceOnUse" x1="180.86" y1="174.6" x2="180.86" y2="145.36" gradientTransform="matrix(1 0 0 -1 0 452)">
		<stop  offset="0" style="stop-color:#FF72D0"/>
		<stop  offset="1" style="stop-color:#C670D0"/>
	</linearGradient>
	<path class="st171" d="M165.8,292c0-8.3,6.4-14.6,15.2-14.6s15,6.1,15,14.6s-6.4,14.6-15,14.6S165.8,300.2,165.8,292z M188.1,292
		c0-4.5-3-7.7-7.2-7.7s-7.4,3.2-7.4,7.7s3.1,7.7,7.4,7.7S188.1,296.4,188.1,292z"/>
	
		<linearGradient id="SVGID_6_" gradientUnits="userSpaceOnUse" x1="211.76" y1="174" x2="211.76" y2="145.9" gradientTransform="matrix(1 0 0 -1 0 452)">
		<stop  offset="0" style="stop-color:#FF72D0"/>
		<stop  offset="1" style="stop-color:#C670D0"/>
	</linearGradient>
	<path class="st172" d="M223.2,288.7c0,5.9-4.6,10.1-12.2,10.2h-3.2v7.2h-7.5V278h11C218.7,278,223.2,282.5,223.2,288.7z
		 M215.5,288.6c0-2.1-1.4-4.1-4.7-4.1h-3v7.9h3C214.2,292.4,215.5,290.5,215.5,288.6z"/>
	
		<linearGradient id="SVGID_7_" gradientUnits="userSpaceOnUse" x1="237.06" y1="174" x2="237.06" y2="145.86" gradientTransform="matrix(1 0 0 -1 0 452)">
		<stop  offset="0" style="stop-color:#FF72D0"/>
		<stop  offset="1" style="stop-color:#C670D0"/>
	</linearGradient>
	<path class="st173" d="M247.3,299.5v6.6h-20.4V278h20.3v6.6h-12.8v4h11.2v6.5h-11.2v4.4L247.3,299.5z"/>
	
		<linearGradient id="SVGID_8_" gradientUnits="userSpaceOnUse" x1="263.755" y1="174" x2="263.755" y2="145.86" gradientTransform="matrix(1 0 0 -1 0 452)">
		<stop  offset="0" style="stop-color:#FF72D0"/>
		<stop  offset="1" style="stop-color:#C670D0"/>
	</linearGradient>
	<path class="st174" d="M268.8,301.4h-10.1l-1.9,4.7h-7.8l12.6-28.1h4.6l12.5,28.1h-7.9L268.8,301.4z M260.5,295.7h6.4l-3.2-7.6
		L260.5,295.7z"/>
	
		<linearGradient id="SVGID_9_" gradientUnits="userSpaceOnUse" x1="294.155" y1="174.3" x2="294.155" y2="145.6" gradientTransform="matrix(1 0 0 -1 0 452)">
		<stop  offset="0" style="stop-color:#FF72D0"/>
		<stop  offset="1" style="stop-color:#C670D0"/>
	</linearGradient>
	<path class="st175" d="M307.1,278v28.4h-4.2l-14.3-15.6v15.4h-7.5v-28.4h4.2l14.2,15.3v-15H307.1z"/>
	
		<linearGradient id="SVGID_10_" gradientUnits="userSpaceOnUse" x1="52.16" y1="114.5173" x2="52.16" y2="143.3638" gradientTransform="matrix(1 0 0 -1 0 452)">
		<stop  offset="0" style="stop-color:#FDDA39"/>
		<stop  offset="0" style="stop-color:#FD9F3B"/>
		<stop  offset="0.28" style="stop-color:#FEC34C"/>
		<stop  offset="0.57" style="stop-color:#FEE25A"/>
		<stop  offset="0.82" style="stop-color:#FFF463"/>
		<stop  offset="1" style="stop-color:#FFFB66"/>
	</linearGradient>
	<path class="st176" d="M40.9,334l3.6-6c2.3,2,5.2,3.1,8.3,3c1.8,0,2.8-0.7,2.8-2c0-1.4-1-2-5-3.2c-6.1-1.8-8.4-4.1-8.4-8.4
		c0-5.4,4.4-8.8,11-8.8c3.6-0.1,7.2,1,10.2,3.1l-3.2,5.7c-2.1-1.4-4.6-2.2-7.2-2.3c-2.1,0-3.2,0.6-3.2,1.7s0.8,1.6,4.9,2.8
		c5.9,1.8,8.4,4.4,8.4,8.6c0,5.8-4,9.2-11,9.2C48.2,337.5,44.2,336.3,40.9,334z"/>
	
		<linearGradient id="SVGID_11_" gradientUnits="userSpaceOnUse" x1="79.24" y1="114.86" x2="79.24" y2="142.96" gradientTransform="matrix(1 0 0 -1 0 452)">
		<stop  offset="0" style="stop-color:#FDDA39"/>
		<stop  offset="0" style="stop-color:#FD9F3B"/>
		<stop  offset="0.28" style="stop-color:#FEC34C"/>
		<stop  offset="0.57" style="stop-color:#FEE25A"/>
		<stop  offset="0.82" style="stop-color:#FFF463"/>
		<stop  offset="1" style="stop-color:#FFFB66"/>
	</linearGradient>
	<path class="st177" d="M90.7,319.7c0,5.9-4.6,10.1-12.2,10.2h-3.2v7.2h-7.5V309h11C86.2,309,90.7,313.5,90.7,319.7z M83,319.6
		c0-2.1-1.4-4.1-4.7-4.1h-3v7.9h3C81.7,323.4,83,321.5,83,319.6z"/>
	
		<linearGradient id="SVGID_12_" gradientUnits="userSpaceOnUse" x1="104.54" y1="114.86" x2="104.54" y2="143" gradientTransform="matrix(1 0 0 -1 0 452)">
		<stop  offset="0" style="stop-color:#FDDA39"/>
		<stop  offset="0" style="stop-color:#FD9F3B"/>
		<stop  offset="0.28" style="stop-color:#FEC34C"/>
		<stop  offset="0.57" style="stop-color:#FEE25A"/>
		<stop  offset="0.82" style="stop-color:#FFF463"/>
		<stop  offset="1" style="stop-color:#FFFB66"/>
	</linearGradient>
	<path class="st178" d="M114.7,330.5v6.6H94.3V309h20.3v6.6h-12.8v4h11.2v6.5h-11.2v4.4L114.7,330.5z"/>
	
		<linearGradient id="SVGID_13_" gradientUnits="userSpaceOnUse" x1="129.9" y1="114.86" x2="129.9" y2="143" gradientTransform="matrix(1 0 0 -1 0 452)">
		<stop  offset="0" style="stop-color:#FDDA39"/>
		<stop  offset="0" style="stop-color:#FD9F3B"/>
		<stop  offset="0.28" style="stop-color:#FEC34C"/>
		<stop  offset="0.57" style="stop-color:#FEE25A"/>
		<stop  offset="0.82" style="stop-color:#FFF463"/>
		<stop  offset="1" style="stop-color:#FFFB66"/>
	</linearGradient>
	<path class="st179" d="M140.1,330.5v6.6h-20.4V309H140v6.6h-12.7v4h11.2v6.5h-11.2v4.4L140.1,330.5z"/>
	
		<linearGradient id="SVGID_14_" gradientUnits="userSpaceOnUse" x1="158.44" y1="114.86" x2="158.44" y2="143" gradientTransform="matrix(1 0 0 -1 0 452)">
		<stop  offset="0" style="stop-color:#FDDA39"/>
		<stop  offset="0" style="stop-color:#FD9F3B"/>
		<stop  offset="0.28" style="stop-color:#FEC34C"/>
		<stop  offset="0.57" style="stop-color:#FEE25A"/>
		<stop  offset="0.82" style="stop-color:#FFF463"/>
		<stop  offset="1" style="stop-color:#FFFB66"/>
	</linearGradient>
	<path class="st180" d="M171.8,323.1c0,8.4-5.9,14.1-15.6,14.1h-11.1V309h11.1C165.9,309,171.8,314.6,171.8,323.1z M164,323.1
		c0-4.4-2.7-7.4-7.4-7.4h-4v14.7h4C161.3,330.4,164,327.5,164,323.1L164,323.1z"/>
	
		<linearGradient id="SVGID_15_" gradientUnits="userSpaceOnUse" x1="188.28" y1="114.86" x2="188.28" y2="143" gradientTransform="matrix(1 0 0 -1 0 452)">
		<stop  offset="0" style="stop-color:#FDDA39"/>
		<stop  offset="0" style="stop-color:#FD9F3B"/>
		<stop  offset="0.28" style="stop-color:#FEC34C"/>
		<stop  offset="0.57" style="stop-color:#FEE25A"/>
		<stop  offset="0.82" style="stop-color:#FFF463"/>
		<stop  offset="1" style="stop-color:#FFFB66"/>
	</linearGradient>
	<path class="st181" d="M187,329.9h-3.3v7.2h-7.5V309H188c7.2,0,11.5,4.6,11.5,10.6c0.1,3.7-2,7.1-5.3,8.8l6.1,8.7h-8.7L187,329.9z
		 M183.7,323.6h3.7c2.8,0,4.5-1.8,4.5-4s-1.6-4.2-4.6-4.2h-3.6L183.7,323.6z"/>
	
		<linearGradient id="SVGID_16_" gradientUnits="userSpaceOnUse" x1="216.875" y1="114.48" x2="216.875" y2="142.96" gradientTransform="matrix(1 0 0 -1 0 452)">
		<stop  offset="0" style="stop-color:#FDDA39"/>
		<stop  offset="0" style="stop-color:#FD9F3B"/>
		<stop  offset="0.28" style="stop-color:#FEC34C"/>
		<stop  offset="0.57" style="stop-color:#FEE25A"/>
		<stop  offset="0.82" style="stop-color:#FFF463"/>
		<stop  offset="1" style="stop-color:#FFFB66"/>
	</linearGradient>
	<path class="st182" d="M203.9,324.5V309h7.6v16.1c0,2.6,1.3,5.6,5.3,5.6s5.4-3,5.4-5.6V309h7.6v15.5c0,8.6-5.2,13-13,13
		S203.9,333.1,203.9,324.5z"/>
	
		<linearGradient id="SVGID_17_" gradientUnits="userSpaceOnUse" x1="248.315" y1="114.6" x2="248.315" y2="143.3" gradientTransform="matrix(1 0 0 -1 0 452)">
		<stop  offset="0" style="stop-color:#FDDA39"/>
		<stop  offset="0" style="stop-color:#FD9F3B"/>
		<stop  offset="0.28" style="stop-color:#FEC34C"/>
		<stop  offset="0.57" style="stop-color:#FEE25A"/>
		<stop  offset="0.82" style="stop-color:#FFF463"/>
		<stop  offset="1" style="stop-color:#FFFB66"/>
	</linearGradient>
	<path class="st183" d="M261.3,309v28.4h-4.2l-14.3-15.6v15.4h-7.5v-28.4h4.2l14.2,15.3v-15H261.3z"/>
	
		<linearGradient id="SVGID_18_" gradientUnits="userSpaceOnUse" x1="280.115" y1="114.6" x2="280.115" y2="143.3" gradientTransform="matrix(1 0 0 -1 0 452)">
		<stop  offset="0" style="stop-color:#FDDA39"/>
		<stop  offset="0" style="stop-color:#FD9F3B"/>
		<stop  offset="0.28" style="stop-color:#FEC34C"/>
		<stop  offset="0.57" style="stop-color:#FEE25A"/>
		<stop  offset="0.82" style="stop-color:#FFF463"/>
		<stop  offset="1" style="stop-color:#FFFB66"/>
	</linearGradient>
	<path class="st184" d="M293.1,309v28.4h-4.2l-14.3-15.6v15.4h-7.5v-28.4h4.2l14.2,15.3v-15H293.1z"/>
	
		<linearGradient id="SVGID_19_" gradientUnits="userSpaceOnUse" x1="309.095" y1="114.86" x2="309.095" y2="143" gradientTransform="matrix(1 0 0 -1 0 452)">
		<stop  offset="0" style="stop-color:#FDDA39"/>
		<stop  offset="0" style="stop-color:#FD9F3B"/>
		<stop  offset="0.28" style="stop-color:#FEC34C"/>
		<stop  offset="0.57" style="stop-color:#FEE25A"/>
		<stop  offset="0.82" style="stop-color:#FFF463"/>
		<stop  offset="1" style="stop-color:#FFFB66"/>
	</linearGradient>
	<path class="st185" d="M319.3,330.5v6.6h-20.4V309h20.3v6.6h-12.8v4h11.2v6.5h-11.2v4.4L319.3,330.5z"/>
	
		<linearGradient id="SVGID_20_" gradientUnits="userSpaceOnUse" x1="336.335" y1="114.86" x2="336.335" y2="143" gradientTransform="matrix(1 0 0 -1 0 452)">
		<stop  offset="0" style="stop-color:#FDDA39"/>
		<stop  offset="0" style="stop-color:#FD9F3B"/>
		<stop  offset="0.28" style="stop-color:#FEC34C"/>
		<stop  offset="0.57" style="stop-color:#FEE25A"/>
		<stop  offset="0.82" style="stop-color:#FFF463"/>
		<stop  offset="1" style="stop-color:#FFFB66"/>
	</linearGradient>
	<path class="st186" d="M335.1,329.9h-3.3v7.2h-7.5V309h11.8c7.2,0,11.5,4.6,11.5,10.6c0.1,3.7-2,7.1-5.3,8.8l6.1,8.7h-8.7
		L335.1,329.9z M331.8,323.6h3.7c2.8,0,4.5-1.8,4.5-4s-1.6-4.2-4.6-4.2h-3.6V323.6z"/>
	
		<linearGradient id="SVGID_21_" gradientUnits="userSpaceOnUse" x1="101.72" y1="112" x2="101.72" y2="83.86" gradientTransform="matrix(1 0 0 -1 0 452)">
		<stop  offset="0" style="stop-color:#FF72D0"/>
		<stop  offset="1" style="stop-color:#C670D0"/>
	</linearGradient>
	<path class="st187" d="M106.7,363.4H96.6l-1.9,4.7h-7.8L99.5,340h4.6l12.5,28.1h-7.9L106.7,363.4z M98.5,357.7h6.4l-3.2-7.7
		L98.5,357.7z"/>
	
		<linearGradient id="SVGID_22_" gradientUnits="userSpaceOnUse" x1="128.16" y1="112.3638" x2="128.16" y2="83.5173" gradientTransform="matrix(1 0 0 -1 0 452)">
		<stop  offset="0" style="stop-color:#FF72D0"/>
		<stop  offset="1" style="stop-color:#C670D0"/>
	</linearGradient>
	<path class="st188" d="M116.9,365l3.6-6c2.3,2,5.2,3.1,8.3,3c1.8,0,2.8-0.7,2.8-2c0-1.4-1-2-5-3.2c-6.1-1.8-8.4-4.1-8.4-8.4
		c0-5.4,4.4-8.8,11-8.8c3.6-0.1,7.2,1,10.2,3.1l-3.2,5.7c-2.1-1.4-4.6-2.2-7.2-2.3c-2.1,0-3.2,0.6-3.2,1.7s0.8,1.6,4.9,2.8
		c5.9,1.8,8.4,4.4,8.4,8.6c0,5.8-4,9.2-11,9.2C124.2,368.5,120.2,367.3,116.9,365z"/>
	
		<linearGradient id="SVGID_23_" gradientUnits="userSpaceOnUse" x1="152.84" y1="112.3638" x2="152.84" y2="83.5173" gradientTransform="matrix(1 0 0 -1 0 452)">
		<stop  offset="0" style="stop-color:#FF72D0"/>
		<stop  offset="1" style="stop-color:#C670D0"/>
	</linearGradient>
	<path class="st189" d="M141.6,365l3.6-6c2.3,2,5.2,3.1,8.3,3c1.8,0,2.8-0.7,2.8-2c0-1.4-1-2-5-3.2c-6.1-1.8-8.4-4.1-8.4-8.4
		c0-5.4,4.4-8.8,11-8.8c3.6-0.1,7.2,1,10.2,3.1l-3.2,5.7c-2.1-1.4-4.6-2.2-7.2-2.3c-2.1,0-3.2,0.6-3.2,1.7s0.8,1.6,4.9,2.8
		c5.9,1.8,8.4,4.4,8.4,8.6c0,5.8-4,9.2-11,9.2C148.8,368.5,144.9,367.3,141.6,365z"/>
	
		<linearGradient id="SVGID_24_" gradientUnits="userSpaceOnUse" x1="178.66" y1="112" x2="178.66" y2="83.86" gradientTransform="matrix(1 0 0 -1 0 452)">
		<stop  offset="0" style="stop-color:#FF72D0"/>
		<stop  offset="1" style="stop-color:#C670D0"/>
	</linearGradient>
	<path class="st190" d="M188.9,361.5v6.6h-20.4V340h20.3v6.6H176v4h11.2v6.5H176v4.4L188.9,361.5z"/>
	
		<linearGradient id="SVGID_25_" gradientUnits="userSpaceOnUse" x1="209.385" y1="112" x2="209.385" y2="83.86" gradientTransform="matrix(1 0 0 -1 0 452)">
		<stop  offset="0" style="stop-color:#FF72D0"/>
		<stop  offset="1" style="stop-color:#C670D0"/>
	</linearGradient>
	<path class="st191" d="M217.7,368.1l-0.1-13.1l-6,10.9H207l-5.9-10.7v12.9h-7.5l0.7-28.1h5l10.2,17.2l10.2-17.2h4.8l0.7,28.1
		L217.7,368.1z"/>
	
		<linearGradient id="SVGID_26_" gradientUnits="userSpaceOnUse" x1="242.3706" y1="112" x2="242.3706" y2="83.86" gradientTransform="matrix(1 0 0 -1 0 452)">
		<stop  offset="0" style="stop-color:#FF72D0"/>
		<stop  offset="1" style="stop-color:#C670D0"/>
	</linearGradient>
	<path class="st192" d="M254,360.1c0,5-3.2,8.1-11.3,8.1h-12V340h11.6c7.6,0,10.6,3.2,10.6,7.6c0,2.7-1.8,5-4.4,5.7
		C251.8,353.8,254.2,356.7,254,360.1z M242.1,345.8h-4.1v5.5h4.1c2.4,0,3.6-1,3.6-2.8S244.5,345.8,242.1,345.8L242.1,345.8z
		 M246.7,359.5c0-1.9-1.2-2.8-3.9-2.8h-4.7v5.7h4.7C245.4,362.4,246.7,361.3,246.7,359.5L246.7,359.5z"/>
	
		<linearGradient id="SVGID_27_" gradientUnits="userSpaceOnUse" x1="268.455" y1="112" x2="268.455" y2="83.86" gradientTransform="matrix(1 0 0 -1 0 452)">
		<stop  offset="0" style="stop-color:#FF72D0"/>
		<stop  offset="1" style="stop-color:#C670D0"/>
	</linearGradient>
	<path class="st193" d="M278.5,361.5v6.7h-20.1V340h7.7v21.4L278.5,361.5z"/>
	
		<linearGradient id="SVGID_28_" gradientUnits="userSpaceOnUse" x1="289.095" y1="112" x2="289.095" y2="83.88" gradientTransform="matrix(1 0 0 -1 0 452)">
		<stop  offset="0" style="stop-color:#FF72D0"/>
		<stop  offset="1" style="stop-color:#C670D0"/>
	</linearGradient>
	<path class="st194" d="M292.9,357.2v11h-7.7v-11L275.1,340h9.2l5,9.8l5.1-9.8h8.8L292.9,357.2z"/>
</g>
</svg>
