<svg xmlns="http://www.w3.org/2000/svg" xmlns:xlink="http://www.w3.org/1999/xlink" viewBox="0 0 390 452"><defs><style>.cls-1{fill:#fdda39;}.cls-2{fill:#c670d0;}.cls-3{fill:#fff;}.cls-4{fill:#fdd93a;}.cls-5{fill:#fcd93b;}.cls-6{fill:#fcd83c;}.cls-7{fill:#fcd73d;}.cls-8{fill:#fbd63e;}.cls-9{fill:#fbd63f;}.cls-10{fill:#fad540;}.cls-11{fill:#fad441;}.cls-12{fill:#fad442;}.cls-13{fill:#f9d343;}.cls-14{fill:#f9d244;}.cls-15{fill:#f9d245;}.cls-16{fill:#f8d146;}.cls-17{fill:#f8d047;}.cls-18{fill:#f8cf48;}.cls-19{fill:#f7cf49;}.cls-20{fill:#f7ce4a;}.cls-21{fill:#f6cd4b;}.cls-22{fill:#f6cd4c;}.cls-23{fill:#f6cc4d;}.cls-24{fill:#f5cb4e;}.cls-25{fill:#f5cb4f;}.cls-26{fill:#f5ca50;}.cls-27{fill:#f4c951;}.cls-28{fill:#f4c852;}.cls-29{fill:#f4c853;}.cls-30{fill:#f3c754;}.cls-31{fill:#f3c655;}.cls-32{fill:#f2c656;}.cls-33{fill:#f2c557;}.cls-34{fill:#f2c458;}.cls-35{fill:#f1c459;}.cls-36{fill:#f1c35a;}.cls-37{fill:#f1c25b;}.cls-38{fill:#f0c15c;}.cls-39{fill:#f0c15d;}.cls-40{fill:#f0c05e;}.cls-41{fill:#efbf5f;}.cls-42{fill:#efbf60;}.cls-43{fill:#eebe61;}.cls-44{fill:#eebd62;}.cls-45{fill:#eebd63;}.cls-46{fill:#edbc64;}.cls-47{fill:#edbb65;}.cls-48{fill:#edba66;}.cls-49{fill:#ecba67;}.cls-50{fill:#ecb968;}.cls-51{fill:#ecb869;}.cls-52{fill:#ebb86a;}.cls-53{fill:#ebb76b;}.cls-54{fill:#eab66c;}.cls-55{fill:#eab56d;}.cls-56{fill:#eab56e;}.cls-57{fill:#e9b46f;}.cls-58{fill:#e9b370;}.cls-59{fill:#e9b371;}.cls-60{fill:#e8b272;}.cls-61{fill:#e8b173;}.cls-62{fill:#e8b174;}.cls-63{fill:#e7b075;}.cls-64{fill:#e7af76;}.cls-65{fill:#e6ae77;}.cls-66{fill:#e6ae78;}.cls-67{fill:#e6ad79;}.cls-68{fill:#e5ac7a;}.cls-69{fill:#e5ac7b;}.cls-70{fill:#e5ab7c;}.cls-71{fill:#e4aa7d;}.cls-72{fill:#e4aa7e;}.cls-73{fill:#e4a97f;}.cls-74{fill:#e3a880;}.cls-75{fill:#e3a781;}.cls-76{fill:#e2a782;}.cls-77{fill:#e2a683;}.cls-78{fill:#e2a584;}.cls-79{fill:#e1a585;}.cls-80{fill:#e1a486;}.cls-81{fill:#e1a387;}.cls-82{fill:#e0a388;}.cls-83{fill:#e0a289;}.cls-84{fill:#dfa18a;}.cls-85{fill:#dfa08b;}.cls-86{fill:#dfa08c;}.cls-87{fill:#de9f8d;}.cls-88{fill:#de9e8e;}.cls-89{fill:#de9e8f;}.cls-90{fill:#dd9d90;}.cls-91{fill:#dd9c91;}.cls-92{fill:#dd9c92;}.cls-93{fill:#dc9b93;}.cls-94{fill:#dc9a94;}.cls-95{fill:#db9995;}.cls-96{fill:#db9996;}.cls-97{fill:#db9897;}.cls-98{fill:#da9798;}.cls-99{fill:#da9799;}.cls-100{fill:#da969a;}.cls-101{fill:#d9959b;}.cls-102{fill:#d9959c;}.cls-103{fill:#d9949d;}.cls-104{fill:#d8939e;}.cls-105{fill:#d8929f;}.cls-106{fill:#d792a0;}.cls-107{fill:#d791a1;}.cls-108{fill:#d790a2;}.cls-109{fill:#d690a3;}.cls-110{fill:#d68fa4;}.cls-111{fill:#d68ea5;}.cls-112{fill:#d58da6;}.cls-113{fill:#d58da7;}.cls-114{fill:#d58ca8;}.cls-115{fill:#d48ba9;}.cls-116{fill:#d48baa;}.cls-117{fill:#d38aab;}.cls-118{fill:#d389ac;}.cls-119{fill:#d389ad;}.cls-120{fill:#d288ae;}.cls-121{fill:#d287af;}.cls-122{fill:#d286b0;}.cls-123{fill:#d186b1;}.cls-124{fill:#d185b2;}.cls-125{fill:#d184b3;}.cls-126{fill:#d084b4;}.cls-127{fill:#d083b5;}.cls-128{fill:#cf82b6;}.cls-129{fill:#cf82b7;}.cls-130{fill:#cf81b8;}.cls-131{fill:#ce80b9;}.cls-132{fill:#ce7fba;}.cls-133{fill:#ce7fbb;}.cls-134{fill:#cd7ebc;}.cls-135{fill:#cd7dbd;}.cls-136{fill:#cd7dbe;}.cls-137{fill:#cc7cbf;}.cls-138{fill:#cc7bc0;}.cls-139{fill:#cb7bc1;}.cls-140{fill:#cb7ac2;}.cls-141{fill:#cb79c3;}.cls-142{fill:#ca78c4;}.cls-143{fill:#ca78c5;}.cls-144{fill:#ca77c6;}.cls-145{fill:#c976c7;}.cls-146{fill:#c976c8;}.cls-147{fill:#c975c9;}.cls-148{fill:#c874ca;}.cls-149{fill:#c874cb;}.cls-150{fill:#c773cc;}.cls-151{fill:#c772cd;}.cls-152{fill:#c771ce;}.cls-153{fill:#c671cf;}.cls-154{fill:#99e1f7;}.cls-155{fill:#6596d1;}.cls-156{fill:#562e6d;}.cls-157{fill:#1c2175;}.cls-158{fill:#6da2d7;}.cls-159{fill:#5273ba;}.cls-160{fill:url(#Dégradé_sans_nom_4);}.cls-161{fill:#fff073;}.cls-162{fill:#7a4683;}.cls-163{fill:#a75cbc;}.cls-164{fill:none;}.cls-165{fill:#93dff6;}.cls-166{fill:#311942;}.cls-167{fill:url(#Dégradé_sans_nom_39);}.cls-168{fill:url(#Dégradé_sans_nom_39-2);}.cls-169{fill:url(#Dégradé_sans_nom_39-3);}.cls-170{fill:url(#Dégradé_sans_nom_39-4);}.cls-171{fill:url(#Dégradé_sans_nom_39-5);}.cls-172{fill:url(#Dégradé_sans_nom_39-6);}.cls-173{fill:url(#Dégradé_sans_nom_39-7);}.cls-174{fill:url(#Dégradé_sans_nom_39-8);}.cls-175{fill:url(#Dégradé_sans_nom_28);}.cls-176{fill:url(#Dégradé_sans_nom_28-2);}.cls-177{fill:url(#Dégradé_sans_nom_28-3);}.cls-178{fill:url(#Dégradé_sans_nom_28-4);}.cls-179{fill:url(#Dégradé_sans_nom_28-5);}.cls-180{fill:url(#Dégradé_sans_nom_28-6);}.cls-181{fill:url(#Dégradé_sans_nom_28-7);}.cls-182{fill:url(#Dégradé_sans_nom_28-8);}.cls-183{fill:url(#Dégradé_sans_nom_28-9);}.cls-184{fill:url(#Dégradé_sans_nom_28-10);}.cls-185{fill:url(#Dégradé_sans_nom_28-11);}.cls-186{fill:url(#Dégradé_sans_nom_39-9);}.cls-187{fill:url(#Dégradé_sans_nom_39-10);}.cls-188{fill:url(#Dégradé_sans_nom_39-11);}.cls-189{fill:url(#Dégradé_sans_nom_39-12);}.cls-190{fill:url(#Dégradé_sans_nom_39-13);}.cls-191{fill:url(#Dégradé_sans_nom_39-14);}.cls-192{fill:url(#Dégradé_sans_nom_39-15);}.cls-193{fill:url(#Dégradé_sans_nom_39-16);}</style><linearGradient id="Dégradé_sans_nom_4" x1="102.69" y1="222.94" x2="195" y2="222.94" gradientUnits="userSpaceOnUse"><stop offset="0" stop-color="#94e0f7"/><stop offset="1" stop-color="#fff"/></linearGradient><linearGradient id="Dégradé_sans_nom_39" x1="93.02" y1="278.02" x2="93.02" y2="306.14" gradientUnits="userSpaceOnUse"><stop offset="0" stop-color="#ff72d0"/><stop offset="1" stop-color="#c670d0"/></linearGradient><linearGradient id="Dégradé_sans_nom_39-2" x1="120.84" y1="278.02" x2="120.84" y2="306.5" xlink:href="#Dégradé_sans_nom_39"/><linearGradient id="Dégradé_sans_nom_39-3" x1="151.34" y1="278.02" x2="151.34" y2="306.14" xlink:href="#Dégradé_sans_nom_39"/><linearGradient id="Dégradé_sans_nom_39-4" x1="180.86" y1="277.38" x2="180.86" y2="306.62" xlink:href="#Dégradé_sans_nom_39"/><linearGradient id="Dégradé_sans_nom_39-5" x1="211.76" y1="278.02" x2="211.76" y2="306.14" xlink:href="#Dégradé_sans_nom_39"/><linearGradient id="Dégradé_sans_nom_39-6" x1="237.06" y1="278.02" x2="237.06" y2="306.14" xlink:href="#Dégradé_sans_nom_39"/><linearGradient id="Dégradé_sans_nom_39-7" x1="263.76" y1="278.02" x2="263.76" y2="306.14" xlink:href="#Dégradé_sans_nom_39"/><linearGradient id="Dégradé_sans_nom_39-8" x1="294.16" y1="277.7" x2="294.16" y2="306.42" xlink:href="#Dégradé_sans_nom_39"/><linearGradient id="Dégradé_sans_nom_28" x1="52.18" y1="337.5" x2="52.18" y2="308.66" gradientUnits="userSpaceOnUse"><stop offset="0" stop-color="#fdda39"/><stop offset="0" stop-color="#fd9f3b"/><stop offset="0.28" stop-color="#fec34c"/><stop offset="0.57" stop-color="#fee25a"/><stop offset="0.82" stop-color="#fff463"/><stop offset="1" stop-color="#fffb66"/></linearGradient><linearGradient id="Dégradé_sans_nom_28-2" x1="79.24" y1="337.14" x2="79.24" y2="309.02" xlink:href="#Dégradé_sans_nom_28"/><linearGradient id="Dégradé_sans_nom_28-3" x1="104.54" y1="337.14" x2="104.54" y2="309.02" xlink:href="#Dégradé_sans_nom_28"/><linearGradient id="Dégradé_sans_nom_28-4" x1="129.9" y1="337.14" x2="129.9" y2="309.02" xlink:href="#Dégradé_sans_nom_28"/><linearGradient id="Dégradé_sans_nom_28-5" x1="158.44" y1="337.14" x2="158.44" y2="309.02" xlink:href="#Dégradé_sans_nom_28"/><linearGradient id="Dégradé_sans_nom_28-6" x1="188.3" y1="337.14" x2="188.3" y2="309.02" xlink:href="#Dégradé_sans_nom_28"/><linearGradient id="Dégradé_sans_nom_28-7" x1="216.88" y1="337.5" x2="216.88" y2="309.02" xlink:href="#Dégradé_sans_nom_28"/><linearGradient id="Dégradé_sans_nom_28-8" x1="248.32" y1="337.42" x2="248.32" y2="308.7" xlink:href="#Dégradé_sans_nom_28"/><linearGradient id="Dégradé_sans_nom_28-9" x1="280.12" y1="337.42" x2="280.12" y2="308.7" xlink:href="#Dégradé_sans_nom_28"/><linearGradient id="Dégradé_sans_nom_28-10" x1="309.1" y1="337.14" x2="309.1" y2="309.02" xlink:href="#Dégradé_sans_nom_28"/><linearGradient id="Dégradé_sans_nom_28-11" x1="336.34" y1="337.14" x2="336.34" y2="309.02" xlink:href="#Dégradé_sans_nom_28"/><linearGradient id="Dégradé_sans_nom_39-9" x1="101.72" y1="340.02" x2="101.72" y2="368.14" xlink:href="#Dégradé_sans_nom_39"/><linearGradient id="Dégradé_sans_nom_39-10" x1="128.18" y1="339.66" x2="128.18" y2="368.5" xlink:href="#Dégradé_sans_nom_39"/><linearGradient id="Dégradé_sans_nom_39-11" x1="152.86" y1="339.66" x2="152.86" y2="368.5" xlink:href="#Dégradé_sans_nom_39"/><linearGradient id="Dégradé_sans_nom_39-12" x1="178.66" y1="340.02" x2="178.66" y2="368.14" xlink:href="#Dégradé_sans_nom_39"/><linearGradient id="Dégradé_sans_nom_39-13" x1="209.36" y1="340.02" x2="209.36" y2="368.14" xlink:href="#Dégradé_sans_nom_39"/><linearGradient id="Dégradé_sans_nom_39-14" x1="242.38" y1="340.02" x2="242.38" y2="368.14" xlink:href="#Dégradé_sans_nom_39"/><linearGradient id="Dégradé_sans_nom_39-15" x1="268.46" y1="340.02" x2="268.46" y2="368.14" xlink:href="#Dégradé_sans_nom_39"/><linearGradient id="Dégradé_sans_nom_39-16" x1="289.1" y1="340.02" x2="289.1" y2="368.14" xlink:href="#Dégradé_sans_nom_39"/></defs><title>esa-big-logo-merged</title><g id="Calque_13" data-name="Calque 13"><path class="cls-1" d="M233.86,94.55l-1.5-.46a129.51,129.51,0,0,0-26-5L204.65,89l1-2.18,25.21-53.43v0l2.85,59Z"/><path class="cls-1" d="M297.25,60.86,277.3,116.47l-.44,1.23-.74-.6a130.29,130.29,0,0,0-22.8-14.66l-1.21-.6,1.39-1.27,43.74-39.72,0,0Z"/><path class="cls-1" d="M348,111.64,308.4,155.28a129.77,129.77,0,0,0-16.35-23l-.37-.41.73-.26,55.6-20,0,0Z"/><path class="cls-1" d="M375.46,249.77l0,0-55.27,2.67a129.37,129.37,0,0,0,4.31-26.73l51,24Z"/><path class="cls-1" d="M375.46,178h0L323.77,202.4a128.4,128.4,0,0,0-6.39-27.24L375.5,178Z"/><path class="cls-2" d="M206.39,89.12,204.65,89q-4.77-.36-9.65-.36V48.69l10.68,38.12Z"/><path class="cls-2" d="M258.21,61.26l-4.71,39.31-.18,1.87-1.21-.6a128.57,128.57,0,0,0-18.25-7.29l-1.5-.46,1.4-1.7Z"/><path class="cls-2" d="M311.8,97.07l-19.39,34.51-.36.67-.37-.41a131.16,131.16,0,0,0-14.82-14.14l-.74-.6,1.18-.63Z"/><path class="cls-2" d="M347.61,150.66l-30.44,23.92a128.24,128.24,0,0,0-8.73-19.22Z"/><path class="cls-2" d="M347.61,277.09l-34.84-4.18A128,128,0,0,0,319.5,255Z"/><path class="cls-2" d="M324.63,223.84q.12-2.72.12-5.46a131.35,131.35,0,0,0-.82-14.66l36.26,10.16Z"/><path class="cls-3" d="M317.38,175.16l-.9,0,.69-.54Z"/><path class="cls-1" d="M317.17,218.38c0,67.47-54.7,100.17-122.17,100.17V96.21A122.17,122.17,0,0,1,317.17,218.38Z"/><path class="cls-4" d="M316.88,218.38c0,67.31-54.57,100-121.88,100V96.5A121.88,121.88,0,0,1,316.88,218.38Z"/><path class="cls-5" d="M316.59,218.38c0,67.15-54.44,99.89-121.59,99.89V96.79A121.59,121.59,0,0,1,316.59,218.38Z"/><path class="cls-6" d="M316.3,218.38c0,67-54.31,99.74-121.3,99.74v-221A121.3,121.3,0,0,1,316.3,218.38Z"/><path class="cls-7" d="M316,218.38c0,66.83-54.18,99.6-121,99.6V97.37A121,121,0,0,1,316,218.38Z"/><path class="cls-8" d="M315.72,218.38c0,66.67-54.05,99.46-120.72,99.46V97.65A120.72,120.72,0,0,1,315.72,218.38Z"/><path class="cls-9" d="M315.43,218.38c0,66.51-53.92,99.32-120.43,99.32V97.94A120.43,120.43,0,0,1,315.43,218.38Z"/><path class="cls-10" d="M315.15,218.38c0,66.35-53.8,99.17-120.15,99.17V98.23A120.15,120.15,0,0,1,315.15,218.38Z"/><path class="cls-11" d="M314.86,218.38c0,66.19-53.66,99-119.86,99V98.52A119.86,119.86,0,0,1,314.86,218.38Z"/><path class="cls-12" d="M314.57,218.38c0,66-53.53,98.89-119.57,98.89V98.81A119.57,119.57,0,0,1,314.57,218.38Z"/><path class="cls-13" d="M314.28,218.38c0,65.87-53.4,98.74-119.28,98.74V99.1A119.28,119.28,0,0,1,314.28,218.38Z"/><path class="cls-14" d="M314,218.38c0,65.72-53.27,98.6-119,98.6V99.39A119,119,0,0,1,314,218.38Z"/><path class="cls-15" d="M313.7,218.38c0,65.56-53.14,98.46-118.7,98.46V99.68A118.7,118.7,0,0,1,313.7,218.38Z"/><path class="cls-16" d="M313.41,218.38c0,65.4-53,98.31-118.41,98.31V100A118.41,118.41,0,0,1,313.41,218.38Z"/><path class="cls-17" d="M313.13,218.38c0,65.24-52.89,98.17-118.13,98.17V100.25A118.13,118.13,0,0,1,313.13,218.38Z"/><path class="cls-18" d="M312.84,218.38c0,65.08-52.76,98-117.84,98V100.54A117.84,117.84,0,0,1,312.84,218.38Z"/><path class="cls-19" d="M312.55,218.38c0,64.92-52.63,97.89-117.55,97.89V100.83A117.55,117.55,0,0,1,312.55,218.38Z"/><path class="cls-20" d="M312.26,218.38c0,64.76-52.5,97.74-117.26,97.74v-215A117.26,117.26,0,0,1,312.26,218.38Z"/><path class="cls-21" d="M312,218.38C312,283,259.6,316,195,316V101.41A117,117,0,0,1,312,218.38Z"/><path class="cls-22" d="M311.68,218.38c0,64.44-52.24,97.46-116.68,97.46V101.7A116.68,116.68,0,0,1,311.68,218.38Z"/><path class="cls-23" d="M311.39,218.38c0,64.28-52.11,97.31-116.39,97.31V102A116.4,116.4,0,0,1,311.39,218.38Z"/><path class="cls-24" d="M311.1,218.38c0,64.12-52,97.17-116.1,97.17V102.27A116.11,116.11,0,0,1,311.1,218.38Z"/><path class="cls-25" d="M310.82,218.38c0,64-51.86,97-115.82,97V102.56A115.82,115.82,0,0,1,310.82,218.38Z"/><path class="cls-26" d="M310.53,218.38c0,63.8-51.73,96.88-115.53,96.88V102.85A115.53,115.53,0,0,1,310.53,218.38Z"/><path class="cls-27" d="M310.24,218.38c0,63.64-51.6,96.74-115.24,96.74v-212A115.24,115.24,0,0,1,310.24,218.38Z"/><path class="cls-28" d="M310,218.38C310,281.86,258.49,315,195,315V103.43A114.94,114.94,0,0,1,310,218.38Z"/><path class="cls-29" d="M309.66,218.38c0,63.32-51.33,96.45-114.66,96.45V103.72A114.65,114.65,0,0,1,309.66,218.38Z"/><path class="cls-30" d="M309.37,218.38c0,63.16-51.2,96.31-114.37,96.31V104A114.36,114.36,0,0,1,309.37,218.38Z"/><path class="cls-31" d="M309.08,218.38c0,63-51.07,96.17-114.08,96.17V104.29A114.08,114.08,0,0,1,309.08,218.38Z"/><path class="cls-32" d="M308.8,218.38c0,62.85-50.95,96-113.8,96V104.58A113.8,113.8,0,0,1,308.8,218.38Z"/><path class="cls-33" d="M308.51,218.38c0,62.69-50.82,95.88-113.51,95.88V104.87A113.51,113.51,0,0,1,308.51,218.38Z"/><path class="cls-34" d="M308.22,218.38c0,62.53-50.69,95.74-113.22,95.74v-209A113.22,113.22,0,0,1,308.22,218.38Z"/><path class="cls-35" d="M307.93,218.38c0,62.37-50.56,95.6-112.93,95.6V105.45A112.93,112.93,0,0,1,307.93,218.38Z"/><path class="cls-36" d="M307.64,218.38c0,62.21-50.43,95.45-112.64,95.45V105.74A112.64,112.64,0,0,1,307.64,218.38Z"/><path class="cls-37" d="M307.35,218.38c0,62.05-50.3,95.31-112.35,95.31V106A112.35,112.35,0,0,1,307.35,218.38Z"/><path class="cls-38" d="M307.06,218.38c0,61.89-50.17,95.17-112.06,95.17V106.31A112.07,112.07,0,0,1,307.06,218.38Z"/><path class="cls-39" d="M306.77,218.38c0,61.73-50,95-111.77,95V106.6A111.78,111.78,0,0,1,306.77,218.38Z"/><path class="cls-40" d="M306.49,218.38c0,61.57-49.92,94.88-111.49,94.88V106.89A111.5,111.5,0,0,1,306.49,218.38Z"/><path class="cls-41" d="M306.2,218.38c0,61.41-49.79,94.74-111.2,94.74V107.18A111.21,111.21,0,0,1,306.2,218.38Z"/><path class="cls-42" d="M305.91,218.38c0,61.25-49.66,94.6-110.91,94.6V107.47A110.91,110.91,0,0,1,305.91,218.38Z"/><path class="cls-43" d="M305.62,218.38c0,61.09-49.53,94.45-110.62,94.45V107.76A110.62,110.62,0,0,1,305.62,218.38Z"/><path class="cls-44" d="M305.33,218.38c0,60.93-49.4,94.31-110.33,94.31V108.05A110.33,110.33,0,0,1,305.33,218.38Z"/><path class="cls-45" d="M305,218.38c0,60.77-49.27,94.17-110,94.17V108.34A110,110,0,0,1,305,218.38Z"/><path class="cls-46" d="M304.75,218.38c0,60.61-49.13,94-109.75,94V108.62A109.75,109.75,0,0,1,304.75,218.38Z"/><path class="cls-47" d="M304.47,218.38c0,60.45-49,93.88-109.47,93.88V108.91A109.47,109.47,0,0,1,304.47,218.38Z"/><path class="cls-48" d="M304.18,218.38c0,60.29-48.88,93.74-109.18,93.74V109.2A109.18,109.18,0,0,1,304.18,218.38Z"/><path class="cls-49" d="M303.89,218.38C303.89,278.52,255.14,312,195,312V109.49A108.89,108.89,0,0,1,303.89,218.38Z"/><path class="cls-50" d="M303.6,218.38c0,60-48.62,93.45-108.6,93.45v-202A108.6,108.6,0,0,1,303.6,218.38Z"/><path class="cls-51" d="M303.31,218.38c0,59.82-48.49,93.31-108.31,93.31V110.07A108.31,108.31,0,0,1,303.31,218.38Z"/><path class="cls-52" d="M303,218.38c0,59.66-48.36,93.17-108,93.17V110.36A108,108,0,0,1,303,218.38Z"/><path class="cls-53" d="M302.73,218.38c0,59.5-48.23,93-107.73,93V110.64A107.74,107.74,0,0,1,302.73,218.38Z"/><path class="cls-54" d="M302.44,218.38c0,59.34-48.1,92.88-107.44,92.88V110.93A107.45,107.45,0,0,1,302.44,218.38Z"/><path class="cls-55" d="M302.16,218.38c0,59.18-48,92.74-107.16,92.74V111.22A107.16,107.16,0,0,1,302.16,218.38Z"/><path class="cls-56" d="M301.87,218.38C301.87,277.4,254,311,195,311V111.51A106.87,106.87,0,0,1,301.87,218.38Z"/><path class="cls-57" d="M301.58,218.38c0,58.86-47.72,92.45-106.58,92.45v-199A106.58,106.58,0,0,1,301.58,218.38Z"/><path class="cls-58" d="M301.29,218.38c0,58.7-47.59,92.31-106.29,92.31V112.09A106.29,106.29,0,0,1,301.29,218.38Z"/><path class="cls-59" d="M301,218.38c0,58.54-47.46,92.16-106,92.16V112.38A106,106,0,0,1,301,218.38Z"/><path class="cls-60" d="M300.71,218.38c0,58.38-47.33,92-105.71,92V112.67A105.71,105.71,0,0,1,300.71,218.38Z"/><path class="cls-61" d="M300.42,218.38c0,58.22-47.2,91.88-105.42,91.88V113A105.42,105.42,0,0,1,300.42,218.38Z"/><path class="cls-62" d="M300.14,218.38c0,58.06-47.08,91.73-105.14,91.73V113.24A105.14,105.14,0,0,1,300.14,218.38Z"/><path class="cls-63" d="M299.85,218.38c0,57.9-46.94,91.59-104.85,91.59V113.53A104.85,104.85,0,0,1,299.85,218.38Z"/><path class="cls-64" d="M299.56,218.38c0,57.74-46.81,91.45-104.56,91.45v-196A104.56,104.56,0,0,1,299.56,218.38Z"/><path class="cls-65" d="M299.27,218.38c0,57.58-46.68,91.31-104.27,91.31V114.11A104.27,104.27,0,0,1,299.27,218.38Z"/><path class="cls-66" d="M299,218.38c0,57.43-46.55,91.16-104,91.16V114.4A104,104,0,0,1,299,218.38Z"/><path class="cls-67" d="M298.69,218.38c0,57.27-46.42,91-103.69,91V114.69A103.69,103.69,0,0,1,298.69,218.38Z"/><path class="cls-68" d="M298.4,218.38c0,57.11-46.29,90.88-103.4,90.88V115A103.4,103.4,0,0,1,298.4,218.38Z"/><path class="cls-69" d="M298.11,218.38c0,56.95-46.16,90.73-103.11,90.73V115.26A103.11,103.11,0,0,1,298.11,218.38Z"/><path class="cls-70" d="M297.83,218.38c0,56.79-46,90.59-102.83,90.59V115.55A102.83,102.83,0,0,1,297.83,218.38Z"/><path class="cls-71" d="M297.54,218.38c0,56.63-45.91,90.45-102.54,90.45v-193A102.54,102.54,0,0,1,297.54,218.38Z"/><path class="cls-72" d="M297.25,218.38c0,56.47-45.78,90.3-102.25,90.3V116.13A102.25,102.25,0,0,1,297.25,218.38Z"/><path class="cls-73" d="M297,218.38c0,56.31-45.65,90.16-102,90.16V116.42A102,102,0,0,1,297,218.38Z"/><path class="cls-74" d="M296.67,218.38c0,56.15-45.52,90-101.67,90V116.71A101.67,101.67,0,0,1,296.67,218.38Z"/><path class="cls-75" d="M296.38,218.38c0,56-45.39,89.88-101.38,89.88V117A101.38,101.38,0,0,1,296.38,218.38Z"/><path class="cls-76" d="M296.09,218.38c0,55.83-45.26,89.73-101.09,89.73V117.28A101.1,101.1,0,0,1,296.09,218.38Z"/><path class="cls-77" d="M295.81,218.38C295.81,274.05,250.67,308,195,308V117.57A100.81,100.81,0,0,1,295.81,218.38Z"/><path class="cls-78" d="M295.52,218.38c0,55.51-45,89.45-100.52,89.45v-190A100.52,100.52,0,0,1,295.52,218.38Z"/><path class="cls-79" d="M295.23,218.38c0,55.35-44.88,89.3-100.23,89.3V118.15A100.23,100.23,0,0,1,295.23,218.38Z"/><path class="cls-80" d="M294.94,218.38c0,55.19-44.74,89.16-99.94,89.16V118.44A99.93,99.93,0,0,1,294.94,218.38Z"/><path class="cls-81" d="M294.65,218.38c0,55-44.61,89-99.65,89V118.73A99.64,99.64,0,0,1,294.65,218.38Z"/><path class="cls-82" d="M294.36,218.38c0,54.87-44.48,88.87-99.36,88.87V119A99.35,99.35,0,0,1,294.36,218.38Z"/><path class="cls-83" d="M294.07,218.38c0,54.71-44.35,88.73-99.07,88.73V119.3A99.07,99.07,0,0,1,294.07,218.38Z"/><path class="cls-84" d="M293.78,218.38c0,54.56-44.22,88.59-98.78,88.59V119.59A98.78,98.78,0,0,1,293.78,218.38Z"/><path class="cls-85" d="M293.5,218.38c0,54.4-44.1,88.45-98.5,88.45V119.88A98.5,98.5,0,0,1,293.5,218.38Z"/><path class="cls-86" d="M293.21,218.38c0,54.24-44,88.3-98.21,88.3V120.17A98.21,98.21,0,0,1,293.21,218.38Z"/><path class="cls-87" d="M292.92,218.38c0,54.08-43.84,88.16-97.92,88.16V120.46A97.92,97.92,0,0,1,292.92,218.38Z"/><path class="cls-88" d="M292.63,218.38c0,53.92-43.71,88-97.63,88V120.75A97.63,97.63,0,0,1,292.63,218.38Z"/><path class="cls-89" d="M292.34,218.38c0,53.76-43.58,87.87-97.34,87.87V121A97.34,97.34,0,0,1,292.34,218.38Z"/><path class="cls-90" d="M292.05,218.38c0,53.6-43.45,87.73-97.05,87.73V121.33A97,97,0,0,1,292.05,218.38Z"/><path class="cls-91" d="M291.76,218.38c0,53.44-43.32,87.59-96.76,87.59V121.61A96.77,96.77,0,0,1,291.76,218.38Z"/><path class="cls-92" d="M291.48,218.38c0,53.28-43.2,87.44-96.48,87.44V121.9A96.49,96.49,0,0,1,291.48,218.38Z"/><path class="cls-93" d="M291.19,218.38c0,53.12-43.07,87.3-96.19,87.3V122.19A96.2,96.2,0,0,1,291.19,218.38Z"/><path class="cls-94" d="M290.9,218.38c0,53-42.94,87.16-95.9,87.16V122.48A95.9,95.9,0,0,1,290.9,218.38Z"/><path class="cls-95" d="M290.61,218.38c0,52.8-42.81,87-95.61,87V122.77A95.61,95.61,0,0,1,290.61,218.38Z"/><path class="cls-96" d="M290.32,218.38c0,52.64-42.68,86.87-95.32,86.87V123.06A95.32,95.32,0,0,1,290.32,218.38Z"/><path class="cls-97" d="M290,218.38c0,52.48-42.55,86.73-95,86.73V123.35A95,95,0,0,1,290,218.38Z"/><path class="cls-98" d="M289.74,218.38C289.74,270.7,247.33,305,195,305V123.63A94.74,94.74,0,0,1,289.74,218.38Z"/><path class="cls-99" d="M289.45,218.38c0,52.16-42.28,86.44-94.45,86.44V123.92A94.45,94.45,0,0,1,289.45,218.38Z"/><path class="cls-100" d="M289.17,218.38c0,52-42.16,86.3-94.17,86.3V124.21A94.17,94.17,0,0,1,289.17,218.38Z"/><path class="cls-101" d="M288.88,218.38c0,51.85-42,86.16-93.88,86.16v-180A93.88,93.88,0,0,1,288.88,218.38Z"/><path class="cls-102" d="M288.59,218.38c0,51.69-41.9,86-93.59,86V124.79A93.59,93.59,0,0,1,288.59,218.38Z"/><path class="cls-103" d="M288.3,218.38c0,51.53-41.77,85.87-93.3,85.87V125.08A93.3,93.3,0,0,1,288.3,218.38Z"/><path class="cls-104" d="M288,218.38c0,51.37-41.64,85.73-93,85.73V125.37A93,93,0,0,1,288,218.38Z"/><path class="cls-105" d="M287.72,218.38c0,51.21-41.51,85.58-92.72,85.58V125.66A92.72,92.72,0,0,1,287.72,218.38Z"/><path class="cls-106" d="M287.43,218.38c0,51.05-41.38,85.44-92.43,85.44V125.94A92.44,92.44,0,0,1,287.43,218.38Z"/><path class="cls-107" d="M287.15,218.38c0,50.89-41.26,85.3-92.15,85.3V126.23A92.15,92.15,0,0,1,287.15,218.38Z"/><path class="cls-108" d="M286.86,218.38c0,50.73-41.13,85.16-91.86,85.16v-177A91.86,91.86,0,0,1,286.86,218.38Z"/><path class="cls-109" d="M286.57,218.38c0,50.57-41,85-91.57,85V126.81A91.57,91.57,0,0,1,286.57,218.38Z"/><path class="cls-110" d="M286.28,218.38c0,50.41-40.87,84.87-91.28,84.87V127.1A91.28,91.28,0,0,1,286.28,218.38Z"/><path class="cls-111" d="M286,218.38c0,50.25-40.74,84.73-91,84.73V127.39A91,91,0,0,1,286,218.38Z"/><path class="cls-112" d="M285.7,218.38c0,50.09-40.61,84.58-90.7,84.58V127.68A90.7,90.7,0,0,1,285.7,218.38Z"/><path class="cls-113" d="M285.41,218.38c0,49.93-40.48,84.44-90.41,84.44V128A90.41,90.41,0,0,1,285.41,218.38Z"/><path class="cls-114" d="M285.12,218.38c0,49.77-40.35,84.3-90.12,84.3V128.25A90.12,90.12,0,0,1,285.12,218.38Z"/><path class="cls-115" d="M284.84,218.38c0,49.61-40.22,84.15-89.84,84.15v-174A89.84,89.84,0,0,1,284.84,218.38Z"/><path class="cls-116" d="M284.55,218.38c0,49.45-40.09,84-89.55,84V128.83A89.55,89.55,0,0,1,284.55,218.38Z"/><path class="cls-117" d="M284.26,218.38c0,49.29-40,83.87-89.26,83.87V129.12A89.26,89.26,0,0,1,284.26,218.38Z"/><path class="cls-118" d="M284,218.38c0,49.14-39.83,83.73-89,83.73V129.41A89,89,0,0,1,284,218.38Z"/><path class="cls-119" d="M283.68,218.38c0,49-39.7,83.58-88.68,83.58V129.7A88.68,88.68,0,0,1,283.68,218.38Z"/><path class="cls-120" d="M283.39,218.38c0,48.82-39.57,83.44-88.39,83.44V130A88.39,88.39,0,0,1,283.39,218.38Z"/><path class="cls-121" d="M283.1,218.38c0,48.66-39.44,83.3-88.1,83.3V130.27A88.1,88.1,0,0,1,283.1,218.38Z"/><path class="cls-122" d="M282.82,218.38c0,48.5-39.32,83.15-87.82,83.15v-171A87.82,87.82,0,0,1,282.82,218.38Z"/><path class="cls-123" d="M282.53,218.38c0,48.34-39.19,83-87.53,83V130.85A87.53,87.53,0,0,1,282.53,218.38Z"/><path class="cls-124" d="M282.24,218.38c0,48.18-39.06,82.87-87.24,82.87V131.14A87.24,87.24,0,0,1,282.24,218.38Z"/><path class="cls-125" d="M282,218.38c0,48-38.93,82.72-86.95,82.72V131.43A87,87,0,0,1,282,218.38Z"/><path class="cls-126" d="M281.66,218.38c0,47.86-38.8,82.58-86.66,82.58V131.72A86.66,86.66,0,0,1,281.66,218.38Z"/><path class="cls-127" d="M281.37,218.38c0,47.7-38.67,82.44-86.37,82.44V132A86.37,86.37,0,0,1,281.37,218.38Z"/><path class="cls-128" d="M281.08,218.38c0,47.54-38.54,82.3-86.08,82.3V132.29A86.09,86.09,0,0,1,281.08,218.38Z"/><path class="cls-129" d="M280.79,218.38c0,47.38-38.41,82.15-85.79,82.15V132.58A85.79,85.79,0,0,1,280.79,218.38Z"/><path class="cls-130" d="M280.51,218.38c0,47.22-38.29,82-85.51,82V132.87A85.51,85.51,0,0,1,280.51,218.38Z"/><path class="cls-131" d="M280.22,218.38c0,47.06-38.16,81.87-85.22,81.87V133.16A85.22,85.22,0,0,1,280.22,218.38Z"/><path class="cls-132" d="M279.93,218.38c0,46.9-38,81.72-84.93,81.72V133.45A84.93,84.93,0,0,1,279.93,218.38Z"/><path class="cls-133" d="M279.64,218.38c0,46.74-37.89,81.58-84.64,81.58V133.74A84.63,84.63,0,0,1,279.64,218.38Z"/><path class="cls-134" d="M279.35,218.38c0,46.58-37.76,81.44-84.35,81.44V134A84.34,84.34,0,0,1,279.35,218.38Z"/><path class="cls-135" d="M279.06,218.38c0,46.42-37.63,81.29-84.06,81.29V134.32A84.05,84.05,0,0,1,279.06,218.38Z"/><path class="cls-136" d="M278.77,218.38c0,46.27-37.5,81.15-83.77,81.15V134.6A83.77,83.77,0,0,1,278.77,218.38Z"/><path class="cls-137" d="M278.49,218.38c0,46.11-37.38,81-83.49,81V134.89A83.49,83.49,0,0,1,278.49,218.38Z"/><path class="cls-138" d="M278.2,218.38c0,45.95-37.25,80.86-83.2,80.86V135.18A83.2,83.2,0,0,1,278.2,218.38Z"/><path class="cls-139" d="M277.91,218.38c0,45.79-37.12,80.72-82.91,80.72V135.47A82.91,82.91,0,0,1,277.91,218.38Z"/><path class="cls-140" d="M277.62,218.38c0,45.63-37,80.58-82.62,80.58V135.76A82.62,82.62,0,0,1,277.62,218.38Z"/><path class="cls-141" d="M277.33,218.38c0,45.47-36.86,80.44-82.33,80.44V136.05A82.33,82.33,0,0,1,277.33,218.38Z"/><path class="cls-142" d="M277,218.38c0,45.31-36.73,80.29-82,80.29V136.34A82,82,0,0,1,277,218.38Z"/><path class="cls-143" d="M276.75,218.38c0,45.15-36.6,80.15-81.75,80.15V136.62A81.76,81.76,0,0,1,276.75,218.38Z"/><path class="cls-144" d="M276.47,218.38c0,45-36.48,80-81.47,80V136.91A81.48,81.48,0,0,1,276.47,218.38Z"/><path class="cls-145" d="M276.18,218.38c0,44.83-36.35,79.86-81.18,79.86v-161A81.19,81.19,0,0,1,276.18,218.38Z"/><path class="cls-146" d="M275.89,218.38c0,44.67-36.22,79.72-80.89,79.72V137.49A80.9,80.9,0,0,1,275.89,218.38Z"/><path class="cls-147" d="M275.6,218.38c0,44.51-36.09,79.58-80.6,79.58V137.78A80.6,80.6,0,0,1,275.6,218.38Z"/><path class="cls-148" d="M275.31,218.38c0,44.35-36,79.43-80.31,79.43V138.07A80.31,80.31,0,0,1,275.31,218.38Z"/><path class="cls-149" d="M275,218.38c0,44.19-35.83,79.29-80,79.29V138.36A80,80,0,0,1,275,218.38Z"/><path class="cls-150" d="M274.73,218.38c0,44-35.69,79.15-79.73,79.15V138.65A79.72,79.72,0,0,1,274.73,218.38Z"/><path class="cls-151" d="M274.44,218.38a79.07,79.07,0,0,1-79.44,79V138.93A79.44,79.44,0,0,1,274.44,218.38Z"/><path class="cls-152" d="M274.16,218.38A78.91,78.91,0,0,1,195,297.24v-158A79.16,79.16,0,0,1,274.16,218.38Z"/><path class="cls-153" d="M273.87,218.38A78.74,78.74,0,0,1,195,297.1V139.51A78.87,78.87,0,0,1,273.87,218.38Z"/><path class="cls-2" d="M273.58,218.38A78.58,78.58,0,0,1,195,297V139.8A78.58,78.58,0,0,1,273.58,218.38Z"/></g><g id="Calque_24" data-name="Calque 24"><path class="cls-154" d="M11.09,228.24h23L16.44,245.89l12.5,12.5,14.21-14.21,15.94-15.94h13L56.86,243.51,69.36,256l27.77-27.77h13.94L94,244.26,86.76,251,56.59,279.24l41.3-1.36,9.64-.32,23.65-.78-.78.78-9.08,9.08H82V294c1,.06,1.92.14,2.88.27a39.34,39.34,0,0,1,8.1,2,69.15,69.15,0,0,1,11.83.76c1.23-.45,2.48-.87,3.74-1.24a38.06,38.06,0,0,1,4.68-3c.78-.43,1.56-.83,2.36-1.19l.67-.3c.26-.13.53-.24.79-.34a5.22,5.22,0,0,1,.61-.25q.57-.24,1.17-.45c.51-.19,1-.36,1.54-.52s1-.32,1.57-.46,1.06-.28,1.59-.4,1.07-.24,1.61-.34a45.36,45.36,0,0,1,12.7-.53l2.25-2.25-.08,2.5a49.82,49.82,0,0,1,7.59,1.71c.83.25,1.66.53,2.48.83a43.89,43.89,0,0,1,4.68-.4,41,41,0,0,1,14,2.08,47.73,47.73,0,0,1,5.82-.28c.57,0,1.14,0,1.71.06h.29c.57,0,1.13.07,1.69.12s1.22.12,1.83.2,1.22.16,1.83.27c1.21.2,2.41.44,3.59.74.6.14,1.19.3,1.77.47s1.17.34,1.75.54l.49.16.68.24c1.58-.11,3.17-.14,4.76-.1V38h-6.33V61L171,43.35l-12.5,12.5L188.67,86V99L173.4,83.77l-12.5,12.5,11.2,11.21L188.67,124V138l-16-17.11-6.74-7.2L137.67,83.5,139,124.8l.32,9.64.78,23.65-9.86-9.86V109H112.59v21.59l-9.22-9.22V78.69H85.69v25L69.43,87.39l-9,9L76.74,112.6h-25v17.68H94.42l9.22,9.22H82v17.68h39.28l9.08,9.08.78.78-23.65-.78-9.64-.32-41.3-1.36,30.17,28.24,7.2,6.74,17.11,16H97.13L80.56,199l-11.2-11.21-12.5,12.5,15.27,15.27h-13L43.15,199.64,28.94,185.43l-12.5,12.5,17.65,17.65h-23Z"/><path class="cls-155" d="M36.89,227.35H56.66L41.49,242.53l1.66,1.65,9.09,9.09,7.19-7.19,18.73-18.73H89.37L76.24,240.48l4.32,4.33,6.2,6.19.23.23,7-7,16-16,.89-.89h12L76,271.2l64.12-2.11-8.47,8.47H97.89v15.2h15.38c.78-.43,1.56-.83,2.36-1.19.22-.11.45-.21.67-.3s.53-.24.79-.34l.61-.25q.57-.24,1.17-.45c.51-.19,1-.36,1.54-.52s1-.32,1.57-.46,1.06-.28,1.59-.4,1.07-.25,1.61-.34a44.33,44.33,0,0,1,12.71-.54c.49,0,1,.1,1.46.16v-2.88l8.48-8.47-.43,13.08.24.08c.83.25,1.66.53,2.48.83a43.89,43.89,0,0,1,4.68-.4,41,41,0,0,1,14,2.08,47.73,47.73,0,0,1,5.82-.28q.85,0,1.71.06h.29c.56,0,1.13.07,1.69.12s1.22.12,1.83.2l1.83.27c1.21.2,2.41.45,3.59.74.6.15,1.19.3,1.77.47s1.17.35,1.75.54l.49-.52v.69l.68.23a47.2,47.2,0,0,1,4.76-.09V63.8h-5.44V83.57L174.39,68.4l-1.66,1.66-9.09,9.09,7.19,7.19,18.73,18.73v11.21l-13.13-13.13-4.33,4.33-6.19,6.19-.23.23,7,7,16,16,.89.89v12l-43.85-46.84L147.83,167l-8.48-8.47V124.8h-15.2v18.57l-7.92-7.93V98.79H101v21.45l-14-14L79.35,114l14,14H71.87v15.2h36.66l7.93,7.92H97.89v15.2h33.77l8.47,8.48L76,172.62l46.84,43.85h-12l-.89-.89-16-16-7-7L76.24,203.34l13.13,13.13H78.16L52.24,190.55,41.49,201.3l15.17,15.17H36.89Z"/><path class="cls-156" d="M289.48,150.33l-4.23-1.75-14.08-5.84L269.4,142,265,140.17a5.64,5.64,0,0,0-4.29,0,5.64,5.64,0,0,0-3-3l-7-2.93h0l-20-8.33a5.79,5.79,0,0,0-4.31,0,5.66,5.66,0,0,0-3-3l-8.67-3.6-.05,0L197.18,112a5.85,5.85,0,0,0-1.53-.4c-.21,0-.43,0-.65,0v11.81l18.64,7.75,1.73.72v2.31a5.47,5.47,0,0,0,.44,2.17h0a5.67,5.67,0,0,0,7.4,3.06l5.19-2.15,19.69,8.18,1.71.71v2.32a5.64,5.64,0,0,0,.43,2.17h0a5.66,5.66,0,0,0,7.41,3.06l5.16-2.15,17.09,7.09h0l1.72.71v116l-1.78.74L265.8,282l-17.44-7.24V255.06a5.54,5.54,0,0,0-.44-2.17,5.64,5.64,0,0,0-7.41-3.06l-26,10.8a5.67,5.67,0,0,0-3.49,5.24v24.44h11.34V269.65L237,263.56V278.5a5.68,5.68,0,0,0,3.5,5.24l15.83,6.57,7.27,3a5.66,5.66,0,0,0,4.35,0l1.41-.58,1.68-.7,4.18-1.74,10-4.14,4.27-1.77a5.65,5.65,0,0,0,3.5-5.23V155.57A5.68,5.68,0,0,0,289.48,150.33Z"/><path class="cls-157" d="M108.36,159.35v72.27l9.74,4a5.68,5.68,0,0,1,3.5,5.24,5.42,5.42,0,0,1-.44,2.16,5.62,5.62,0,0,1-3.06,3.07l-8,3.33-1.73.72v25.19l1.78.74,34.17,14.19H114.75l-10-4.14-4.27-1.77a5.65,5.65,0,0,1-3.5-5.23V246.4a5.65,5.65,0,0,1,3.5-5.23l.63-.27-.64-.26a5.68,5.68,0,0,1-3.31-3.81,5.58,5.58,0,0,1-.18-1.42V155.57a5.68,5.68,0,0,1,3.5-5.24l4.23-1.76,14.07-5.84,1.77-.74,18.8-7.8h0l36-15,.05,0,17.33-7.2a5.78,5.78,0,0,1,1.52-.4c.21,0,.43,0,.65,0v11.81l-84.9,35.26h0Z"/><path class="cls-158" d="M195,138.87l-44.23,18.37,7.34,3L195,145v22.49l-9.81,4.07,7.35,3.05,2.46-1V193.9l-92.31-38.33L195,117.24Z"/><path class="cls-2" d="M221,128.05l-26,10.82V117.24Z"/><path class="cls-2" d="M255.47,142.35,195,167.46V145l33.39-13.87Z"/><path class="cls-2" d="M287.31,155.57,195,193.9V173.56l67.82-28.16Z"/><path class="cls-1" d="M221,134.15l-62.93,26.14-7.34-3L221,128.05Z"/><path class="cls-1" d="M255.47,148.45l-62.93,26.13-7.35-3.05,70.28-29.18Z"/><path class="cls-159" d="M172.72,264.49v11l-70-29.08,13.24-5.5Z"/><path class="cls-160" d="M124.6,199.05v11L195,239.28v51H129.52l-22.06-9.16-4.77-2V246.4l7.4,3.07,62.63,26v-11l-51.56-21.42-5.23-2.17-13.24-5.49V155.57l7.39,3.07h0L195,193.9v34.39l-.69-.29-.24-.1-2.83-1.17-.73-.3-4.09-1.7-.75-.31-.27-.11-1.27-.53-7.76-3.23-2.71-1.13L163,215l-2.07-.87-1.45-.6-2.51-1-9.63-4-2.48-1L142,206.28l-4.19-1.74-.1,0-3.18-1.32L131,201.73l-3.12-1.3Z"/><path class="cls-157" d="M137.83,204.54,124.6,210v-11Z"/><path class="cls-159" d="M195,228.29v11L124.6,210h0l13.23-5.5Z"/><path class="cls-161" d="M279.92,158.64h0L195,193.9v96.41h21.68V265.86l26-10.8,5.23-2.17,17.88-7.43V288.1l16.74-7,4.77-2V155.57Zm-63.24,71.63V219.41c1-.4,1.94-.81,2.94-1.21l2.81-1.18,12.41-5.15,3.2-1.33,4.83-2,9.62-4,4.56-1.89,1.52-.63,7.23-3v10.86Z"/><path class="cls-162" d="M265.8,199v10.86l-13.31-5.33Z"/><path class="cls-163" d="M265.8,209.87l-49.12,20.4V219.41l35.81-14.87Z"/><path class="cls-163" d="M265.8,245.46V288.1l-23.11-9.6V255.06Z"/><polyline class="cls-164" points="198.41 290.31 198.41 112.98 198.41 92.16 198.41 52.22"/><path class="cls-165" d="M195,167.46v6.1l-2.46,1-7.35-3.05Z"/><path class="cls-165" d="M195,138.87V145l-36.89,15.32-7.34-3Z"/><rect class="cls-3" x="193.29" y="38" width="3.01" height="332"/><path class="cls-166" d="M210.43,380.56A14.43,14.43,0,1,0,224.87,395,14.42,14.42,0,0,0,210.43,380.56Zm2.89,22.13h-2.93V391.61a10.39,10.39,0,0,1-3.81,2.23v-2.67a8.18,8.18,0,0,0,2.51-1.43,5.42,5.42,0,0,0,1.85-2.45h2.38Z"/><path class="cls-3" d="M213.32,387.29v15.4h-2.93V391.61a10.39,10.39,0,0,1-3.81,2.23v-2.67a8.18,8.18,0,0,0,2.51-1.43,5.42,5.42,0,0,0,1.85-2.45Z"/><path class="cls-166" d="M181.22,391.35a2.67,2.67,0,0,0-.67-1.32,1.34,1.34,0,0,0-.91-.34,1.41,1.41,0,0,0-.93.34,2.27,2.27,0,0,0-.62,1.19,17.06,17.06,0,0,0-.3,3.77,16.85,16.85,0,0,0,.27,3.65,2.71,2.71,0,0,0,.66,1.33,1.46,1.46,0,0,0,.92.33,1.43,1.43,0,0,0,.92-.34,2.28,2.28,0,0,0,.62-1.2,16.87,16.87,0,0,0,.3-3.77A17.77,17.77,0,0,0,181.22,391.35Zm0,0a2.67,2.67,0,0,0-.67-1.32,1.34,1.34,0,0,0-.91-.34,1.41,1.41,0,0,0-.93.34,2.27,2.27,0,0,0-.62,1.19,17.06,17.06,0,0,0-.3,3.77,16.85,16.85,0,0,0,.27,3.65,2.71,2.71,0,0,0,.66,1.33,1.46,1.46,0,0,0,.92.33,1.43,1.43,0,0,0,.92-.34,2.28,2.28,0,0,0,.62-1.2,16.87,16.87,0,0,0,.3-3.77A17.77,17.77,0,0,0,181.22,391.35Zm-1.58-10.79A14.43,14.43,0,1,0,194.07,395,14.43,14.43,0,0,0,179.64,380.56ZM183,401.15a4,4,0,0,1-3.35,1.54,4.24,4.24,0,0,1-3.5-1.7c-.87-1.12-1.32-3.14-1.32-6s.49-4.88,1.46-6.13a4.42,4.42,0,0,1,6.72,0c1,1.24,1.45,3.29,1.45,6.14S184,399.89,183,401.15ZM180.55,390a1.34,1.34,0,0,0-.91-.34,1.41,1.41,0,0,0-.93.34,2.27,2.27,0,0,0-.62,1.19,17.06,17.06,0,0,0-.3,3.77,16.85,16.85,0,0,0,.27,3.65,2.71,2.71,0,0,0,.66,1.33,1.46,1.46,0,0,0,.92.33,1.43,1.43,0,0,0,.92-.34,2.28,2.28,0,0,0,.62-1.2,16.87,16.87,0,0,0,.3-3.77,17.77,17.77,0,0,0-.26-3.64A2.67,2.67,0,0,0,180.55,390Z"/><path class="cls-3" d="M183,388.85a4.42,4.42,0,0,0-6.72,0c-1,1.25-1.46,3.3-1.46,6.13s.45,4.91,1.32,6a4.24,4.24,0,0,0,3.5,1.7,4,4,0,0,0,3.35-1.54q1.45-1.89,1.46-6.16C184.45,392.14,184,390.09,183,388.85Zm-1.82,9.91a2.28,2.28,0,0,1-.62,1.2,1.43,1.43,0,0,1-.92.34,1.46,1.46,0,0,1-.92-.33,2.71,2.71,0,0,1-.66-1.33,16.85,16.85,0,0,1-.27-3.65,17.06,17.06,0,0,1,.3-3.77,2.27,2.27,0,0,1,.62-1.19,1.41,1.41,0,0,1,.93-.34,1.34,1.34,0,0,1,.91.34,2.67,2.67,0,0,1,.67,1.32,17.77,17.77,0,0,1,.26,3.64A16.87,16.87,0,0,1,181.18,398.76Z"/><path class="cls-166" d="M148.84,380.56A14.43,14.43,0,1,0,163.28,395,14.43,14.43,0,0,0,148.84,380.56Zm4.81,19.4v2.73H144a7.69,7.69,0,0,1,.94-2.93,19,19,0,0,1,3.09-3.68,19.65,19.65,0,0,0,2.28-2.52,3.41,3.41,0,0,0,.56-1.79,2.16,2.16,0,0,0-.48-1.51,2,2,0,0,0-2.74,0,3,3,0,0,0-.58,1.84l-2.74-.29a5,5,0,0,1,1.53-3.48,4.91,4.91,0,0,1,3.23-1.06,4.54,4.54,0,0,1,3.34,1.22,4.19,4.19,0,0,1,1.2,3.05,5.68,5.68,0,0,1-.35,2,7.68,7.68,0,0,1-1.1,2,17.84,17.84,0,0,1-1.79,1.95c-.87.86-1.42,1.42-1.65,1.7a5.44,5.44,0,0,0-.56.82Z"/><path class="cls-3" d="M148.2,400h5.45v2.73H144a7.69,7.69,0,0,1,.94-2.93,19,19,0,0,1,3.09-3.68,19.65,19.65,0,0,0,2.28-2.52,3.41,3.41,0,0,0,.56-1.79,2.16,2.16,0,0,0-.48-1.51,2,2,0,0,0-2.74,0,3,3,0,0,0-.58,1.84l-2.74-.29a5,5,0,0,1,1.53-3.48,4.91,4.91,0,0,1,3.23-1.06,4.54,4.54,0,0,1,3.34,1.22,4.19,4.19,0,0,1,1.2,3.05,5.68,5.68,0,0,1-.35,2,7.68,7.68,0,0,1-1.1,2,17.84,17.84,0,0,1-1.79,1.95c-.87.86-1.42,1.42-1.65,1.7A5.44,5.44,0,0,0,148.2,400Z"/><path class="cls-166" d="M243,392.63a3,3,0,0,1-.55,1.93,1.68,1.68,0,0,1-1.34.66,1.7,1.7,0,0,1-1.38-.69,3.43,3.43,0,0,1-.55-2.14,3.31,3.31,0,0,1,.51-2.07,1.57,1.57,0,0,1,1.27-.63,1.79,1.79,0,0,1,1.42.77A3.38,3.38,0,0,1,243,392.63Z"/><path class="cls-166" d="M241.24,380.56A14.43,14.43,0,1,0,255.67,395,14.43,14.43,0,0,0,241.24,380.56Zm3.35,20.3a4.67,4.67,0,0,1-3.82,1.83,4,4,0,0,1-2.73-.94,4.62,4.62,0,0,1-1.33-2.81l2.67-.31a2,2,0,0,0,.51,1.26,1.45,1.45,0,0,0,1.09.41,1.75,1.75,0,0,0,1.45-.82,7.21,7.21,0,0,0,.77-3.41,3.23,3.23,0,0,1-2.6,1.26,3.83,3.83,0,0,1-2.94-1.37,5.84,5.84,0,0,1,.07-7.26,4.33,4.33,0,0,1,3.32-1.41,4.41,4.41,0,0,1,3.6,1.78q1.4,1.77,1.4,5.83T244.59,400.86Z"/><path class="cls-3" d="M244.65,389.07a4.41,4.41,0,0,0-3.6-1.78,4.33,4.33,0,0,0-3.32,1.41,5.84,5.84,0,0,0-.07,7.26,3.83,3.83,0,0,0,2.94,1.37,3.23,3.23,0,0,0,2.6-1.26,7.21,7.21,0,0,1-.77,3.41,1.75,1.75,0,0,1-1.45.82,1.45,1.45,0,0,1-1.09-.41,2,2,0,0,1-.51-1.26l-2.67.31a4.62,4.62,0,0,0,1.33,2.81,4,4,0,0,0,2.73.94,4.67,4.67,0,0,0,3.82-1.83q1.46-1.83,1.46-6T244.65,389.07Zm-2.24,5.49a1.68,1.68,0,0,1-1.34.66,1.7,1.7,0,0,1-1.38-.69,3.43,3.43,0,0,1-.55-2.14,3.31,3.31,0,0,1,.51-2.07,1.57,1.57,0,0,1,1.27-.63,1.79,1.79,0,0,1,1.42.77,3.38,3.38,0,0,1,.62,2.17A3,3,0,0,1,242.41,394.56Z"/></g><g id="Calque_25" data-name="Calque 25"><path class="cls-166" d="M351.66,337.85l-3.88-5.57a13.49,13.49,0,0,0,3.83-9.62c0-8.62-6.38-14.64-15.51-14.64H324.3a3.93,3.93,0,0,0-2.54.94,4,4,0,0,0-2.54-.94h-8.09V281a4,4,0,0,0-4-4h-7.47a4,4,0,0,0-4,4v4.8L288.34,278a4,4,0,0,0-2.92-1.27h-4.24a4,4,0,0,0-4,4V296l-7.39-16.64a4,4,0,0,0-3.65-2.38h-4.6a4,4,0,0,0-3.65,2.36l-8.27,18.41v-6.13a3.87,3.87,0,0,0-.08-.77,4,4,0,0,0,1.64-3.23V281a4,4,0,0,0-4-4H226.86a4,4,0,0,0-4,4v.22A16.44,16.44,0,0,0,211.34,277h-11a4,4,0,0,0-4,4v2.83a19.73,19.73,0,0,0-31.44.69c-2.48-4.63-7.48-7.52-13.8-7.52H139.3a4,4,0,0,0-2.74,1.1,4,4,0,0,0-2.74-1.1h-26a3.94,3.94,0,0,0-2.36.79,4,4,0,0,0-2.36-.79H82.82a4,4,0,0,0-4,4v27h-11a4,4,0,0,0-3.69,2.45,21.37,21.37,0,0,0-10.91-2.81c-8.85,0-15,5.28-15,12.84a10.62,10.62,0,0,0,3.2,8,3.13,3.13,0,0,0-.32.46l-3.56,6a4,4,0,0,0,1.1,5.28,22.78,22.78,0,0,0,13.66,4.24c5,0,9-1.5,11.58-4.17a4,4,0,0,0,4,3.81H75.3a4,4,0,0,0,4-4v-3.26a17.24,17.24,0,0,0,11-4.16v7.42a4,4,0,0,0,4,4h.27L83.21,369.5a4,4,0,0,0,3.65,5.64H94.7a4,4,0,0,0,3.7-2.5l.91-2.22h4.74l.9,2.22a4,4,0,0,0,3.71,2.5h7.92a4,4,0,0,0,2.87-1.24,24,24,0,0,0,8.81,1.6c4.9,0,8.8-1.44,11.4-4a22.79,22.79,0,0,0,13.28,4c5,0,8.95-1.49,11.54-4.13a4,4,0,0,0,4,3.77h20.4a4,4,0,0,0,2.34-.77,4,4,0,0,0,2.34.77H201a4,4,0,0,0,3.83-2.86,4,4,0,0,0,2.13.62h4.64a4,4,0,0,0,2.22-.68,4,4,0,0,0,3.85,2.92h7.48A4,4,0,0,0,228,374a4,4,0,0,0,2.79,1.14h12c5.81,0,9.44-1.51,11.69-3.52a4,4,0,0,0,3.95,3.52h20.15a4,4,0,0,0,3.33-1.78,4,4,0,0,0,3.32,1.78h7.72a4,4,0,0,0,4-4v-9.86l9.67-16.21a3.79,3.79,0,0,0,.4-.93h12.32a4,4,0,0,0,2.51-.91,3.93,3.93,0,0,0,2.5.91h7.48a4,4,0,0,0,3.84-2.89l.66,1a4,4,0,0,0,3.38,1.85h8.71a4,4,0,0,0,3.29-6.29Zm-61.78,19.58.33-.77.14,0ZM328.3,316h.25a3.11,3.11,0,0,0-.25.38Zm0,14.94v-2.41a3.93,3.93,0,0,0,1.05,1.21A3.78,3.78,0,0,0,328.3,331Zm7.48-8.4v-.15l.19,0v.06Zm2.63,7.92c0,.07,0,.14-.05.21a3,3,0,0,0-.34-.44l.5-.16C338.48,330.22,338.44,330.35,338.41,330.48Z"/><path class="cls-167" d="M103.22,299.54v6.6H82.82V278h20.32v6.64H90.38v4h11.2v6.52H90.38v4.36Z"/><path class="cls-168" d="M107.86,293.54V278h7.64v16.12c0,2.6,1.32,5.56,5.28,5.56s5.4-3,5.4-5.56V278h7.64v15.52c0,8.56-5.2,13-13,13S107.86,302.1,107.86,293.54Z"/><path class="cls-169" d="M150.06,298.94h-3.28v7.2H139.3V278h11.8c7.24,0,11.52,4.56,11.52,10.64a9.59,9.59,0,0,1-5.32,8.76l6.08,8.72h-8.72Zm-3.28-6.36h3.72c2.76,0,4.48-1.76,4.48-4s-1.64-4.2-4.6-4.2h-3.6Z"/><path class="cls-170" d="M165.78,292c0-8.28,6.44-14.6,15.16-14.6s15,6.12,15,14.6-6.36,14.64-15,14.64S165.78,300.22,165.78,292Zm22.36,0c0-4.52-3-7.68-7.2-7.68s-7.36,3.2-7.36,7.68,3.12,7.72,7.36,7.72S188.14,296.42,188.14,292Z"/><path class="cls-171" d="M223.18,288.74c0,5.92-4.6,10.12-12.2,10.16l-3.16,0v7.2h-7.48V278h11C218.7,278,223.18,282.46,223.18,288.74Zm-7.64-.16c0-2.08-1.4-4.08-4.72-4.08h-3v7.88h3C214.22,292.38,215.54,290.5,215.54,288.58Z"/><path class="cls-172" d="M247.26,299.54v6.6h-20.4V278h20.32v6.64H234.42v4h11.2v6.52h-11.2v4.36Z"/><path class="cls-173" d="M268.78,301.42H258.66l-1.92,4.72H248.9L261.54,278h4.6l12.47,28.12H270.7Zm-8.28-5.76h6.44l-3.2-7.64Z"/><path class="cls-174" d="M307.13,278v28.4h-4.2l-14.27-15.64v15.36h-7.48V277.7h4.24L299.66,293V278Z"/><path class="cls-175" d="M40.94,334l3.56-6a12.18,12.18,0,0,0,8.28,3c1.84,0,2.84-.72,2.84-2,0-1.44-1-2-5-3.16-6.08-1.8-8.44-4.12-8.44-8.36,0-5.36,4.36-8.84,11-8.84a17.23,17.23,0,0,1,10.2,3.08l-3.2,5.72a13.29,13.29,0,0,0-7.16-2.28c-2.08,0-3.16.56-3.16,1.72s.76,1.56,4.88,2.8c5.92,1.76,8.44,4.36,8.44,8.64,0,5.8-4,9.16-11,9.16A18.86,18.86,0,0,1,40.94,334Z"/><path class="cls-176" d="M90.66,319.74c0,5.92-4.6,10.12-12.2,10.16l-3.16,0v7.2H67.82V309h11C86.18,309,90.66,313.46,90.66,319.74ZM83,319.58c0-2.08-1.4-4.08-4.72-4.08h-3v7.88h3C81.7,323.38,83,321.5,83,319.58Z"/><path class="cls-177" d="M114.74,330.54v6.6H94.34V309h20.32v6.64H101.9v4h11.2v6.52H101.9v4.36Z"/><path class="cls-178" d="M140.1,330.54v6.6H119.7V309H140v6.64H127.26v4h11.2v6.52h-11.2v4.36Z"/><path class="cls-179" d="M171.82,323.06c0,8.44-5.92,14.08-15.64,14.08H145.06V309h11.12C165.9,309,171.82,314.62,171.82,323.06Zm-7.8.08c0-4.44-2.68-7.4-7.36-7.4h-4v14.68h4C161.34,330.42,164,327.5,164,323.14Z"/><path class="cls-180" d="M187,329.94h-3.28v7.2h-7.48V309h11.8c7.24,0,11.52,4.56,11.52,10.64a9.59,9.59,0,0,1-5.32,8.76l6.08,8.72h-8.72Zm-3.28-6.36h3.72c2.76,0,4.48-1.76,4.48-4s-1.64-4.2-4.6-4.2h-3.6Z"/><path class="cls-181" d="M203.9,324.54V309h7.64v16.12c0,2.6,1.32,5.56,5.28,5.56s5.4-3,5.4-5.56V309h7.63v15.52c0,8.56-5.19,13-13,13S203.9,333.1,203.9,324.54Z"/><path class="cls-182" d="M261.29,309v28.4H257.1l-14.28-15.64v15.36h-7.48V308.7h4.24L253.82,324V309Z"/><path class="cls-183" d="M293.09,309v28.4H288.9l-14.28-15.64v15.36h-7.48V308.7h4.24L285.62,324V309Z"/><path class="cls-184" d="M319.29,330.54v6.6H298.9V309h20.32v6.64H306.46v4h11.2v6.52h-11.2v4.36Z"/><path class="cls-185" d="M335.06,329.94h-3.28v7.2H324.3V309h11.8c7.24,0,11.51,4.56,11.51,10.64a9.59,9.59,0,0,1-5.31,8.76l6.07,8.72h-8.71Zm-3.28-6.36h3.72c2.76,0,4.48-1.76,4.48-4s-1.64-4.2-4.6-4.2h-3.6Z"/><path class="cls-186" d="M106.74,363.42H96.62l-1.92,4.72H86.86L99.5,340h4.6l12.48,28.12h-7.92Zm-8.28-5.76h6.44L101.7,350Z"/><path class="cls-187" d="M116.94,365l3.56-6a12.18,12.18,0,0,0,8.28,3c1.84,0,2.84-.72,2.84-2,0-1.44-1-2-5-3.16-6.08-1.8-8.44-4.12-8.44-8.36,0-5.36,4.36-8.84,11-8.84a17.23,17.23,0,0,1,10.2,3.08l-3.2,5.72a13.29,13.29,0,0,0-7.16-2.28c-2.08,0-3.16.56-3.16,1.72s.76,1.56,4.88,2.8c5.92,1.76,8.44,4.36,8.44,8.64,0,5.8-4,9.16-11,9.16A18.86,18.86,0,0,1,116.94,365Z"/><path class="cls-188" d="M141.62,365l3.56-6a12.18,12.18,0,0,0,8.28,3c1.84,0,2.84-.72,2.84-2,0-1.44-1-2-5-3.16-6.08-1.8-8.44-4.12-8.44-8.36,0-5.36,4.36-8.84,11-8.84a17.23,17.23,0,0,1,10.2,3.08l-3.2,5.72a13.29,13.29,0,0,0-7.16-2.28c-2.08,0-3.16.56-3.16,1.72s.76,1.56,4.88,2.8c5.92,1.76,8.44,4.36,8.44,8.64,0,5.8-4,9.16-11,9.16A18.86,18.86,0,0,1,141.62,365Z"/><path class="cls-189" d="M188.86,361.54v6.6h-20.4V340h20.32v6.64H176v4h11.2v6.52H176v4.36Z"/><path class="cls-190" d="M217.69,368.14,217.61,355l-6,10.88H207l-5.92-10.68,0,12.92h-7.48l.68-28.12h5l10.24,17.24L219.69,340h4.76l.72,28.12Z"/><path class="cls-191" d="M254,360.06c0,5-3.2,8.08-11.27,8.08h-12V340H242.3c7.55,0,10.63,3.16,10.63,7.6a6,6,0,0,1-4.43,5.72A6.43,6.43,0,0,1,254,360.06Zm-11.87-14.28h-4.08v5.48h4.12c2.36,0,3.56-1,3.56-2.76S244.5,345.78,242.14,345.78Zm4.56,13.72c0-1.88-1.2-2.8-3.92-2.8h-4.72v5.68h4.72C245.42,362.38,246.7,361.26,246.7,359.5Z"/><path class="cls-192" d="M278.53,361.46v6.68H258.38V340h7.68v21.44Z"/><path class="cls-193" d="M292.9,357.18v11h-7.72V357.22L275.06,340h9.24l5,9.76,5.08-9.76h8.75Z"/></g></svg>