<?xml version="1.0" standalone="no"?>
<!DOCTYPE svg PUBLIC "-//W3C//DTD SVG 20010904//EN"
 "http://www.w3.org/TR/2001/REC-SVG-20010904/DTD/svg10.dtd">
<svg version="1.0" xmlns="http://www.w3.org/2000/svg"
 width="128.000000pt" height="128.000000pt" viewBox="0 0 128.000000 128.000000"
 preserveAspectRatio="xMidYMid meet">
<metadata>
Created by potrace 1.11, written by Peter Selinger 2001-2013
</metadata>
<g transform="translate(0.000000,128.000000) scale(0.100000,-0.100000)"
fill="#000000" stroke="none">
<path d="M602 1270 c-4 -4 -132 -58 -284 -120 l-277 -113 -1 -258 c0 -235 1
-259 17 -268 17 -9 17 -10 0 -28 -14 -16 -17 -39 -17 -124 0 -57 4 -109 8
-114 4 -6 25 -18 47 -27 22 -8 154 -61 294 -117 l254 -102 68 26 c38 15 71 31
75 36 3 5 6 67 7 138 l1 129 46 20 c90 39 85 41 85 -40 l0 -72 76 -32 76 -32
79 33 79 33 3 395 2 395 -92 40 c-269 117 -499 211 -517 209 -12 -1 -25 -4
-29 -7z"/>
</g>
</svg>
